<svg width="79" height="79" viewBox="0 0 79 79" fill="none" xmlns="http://www.w3.org/2000/svg">
<g clip-path="url(#clip0_514_436)">
<circle cx="39.5" cy="39.5" r="39.5" fill="#E24D4D"/>
<g clip-path="url(#clip1_514_436)">
<path d="M67.8471 33.0242C61.8847 29.5091 61.831 29.3952 58.9687 23.4235C54.9635 15.0675 45.4077 11.5468 36.7387 15.229C33.0772 16.786 29.5727 16.9682 25.7127 15.8037C25.36 15.6968 25.0005 15.6121 24.5981 15.5209C23.8545 15.3535 23.1056 15.7946 22.8943 16.5259C22.5764 17.6175 22.2538 18.7019 21.9322 19.7812C20.8705 23.352 19.8663 26.7247 19.0803 30.2334C18.7461 31.722 19.0747 33.5264 20.0398 35.5568C20.8569 37.7009 24.1855 39.8653 28.5011 41.9441L16.0272 57.0858C15.7601 57.3921 15.6299 57.7863 15.6582 58.1936C15.6865 58.601 15.8716 58.972 16.1783 59.2381C16.3091 59.3518 16.4536 59.4396 16.6056 59.501C17.1928 59.7386 17.8917 59.5929 18.3274 59.0923L26.2169 50.3362L26.2198 50.396L36.1463 49.8527L42.5137 56.6057L42.0858 68.6969C42.05 69.3646 42.4516 69.9566 43.0388 70.1942C43.1907 70.2556 43.3543 70.2936 43.5278 70.3019C44.3673 70.3476 45.0887 69.7012 45.1332 68.8699L46.6946 49.3192C49.3256 50.2642 52.0606 50.9974 55.0126 50.953C57.8645 50.9092 60.5518 49.2749 62.0254 46.6886C63.6158 43.8968 65.1601 40.9963 66.6541 38.1905C67.2273 37.1143 67.8023 36.0334 68.3848 34.9501C68.7531 34.2649 68.5172 33.4189 67.8471 33.0242ZM37.1306 16.1479C41.4509 14.3108 45.9066 14.3084 49.7284 15.8545C53.2499 17.279 56.2333 20.0207 58.0706 23.8553C60.2096 28.3195 60.8552 29.6621 63.6084 31.5677C63.1947 32.3277 62.7466 33.1834 62.273 34.1046L60.9903 36.6293C59.6366 39.3053 58.2355 42.0717 57.0966 44.0049C56.3047 45.3484 54.9127 45.9686 52.7145 45.9569C49.5785 45.9389 46.6806 44.7742 43.8783 43.647L43.1169 43.3412C42.5891 43.131 41.922 42.8763 41.1591 42.585C36.5881 40.84 27.0828 37.2106 25.9009 34.3083C25.185 32.882 24.9267 31.6733 25.1339 30.7158C25.2028 30.3955 25.2799 30.0547 25.3627 29.7053L27.1364 23.0254C27.4813 21.7949 27.8288 20.5819 28.1478 19.4635C28.3553 18.7361 28.5454 18.0679 28.7235 17.4425C31.5746 17.7682 34.309 17.3472 37.1306 16.1479ZM17.7947 58.6208C17.7161 58.7105 17.6212 58.7762 17.5188 58.8227C17.2915 58.5268 17.1903 58.0932 17.3995 57.5921C17.5723 57.1783 17.944 56.7635 18.4202 56.455C18.748 56.2427 19.0963 56.0897 19.4337 55.942C19.5356 55.8964 19.6372 55.8518 19.7382 55.8059C20.1226 55.6306 20.5021 55.4218 20.8777 55.1985L17.7947 58.6208ZM24.2041 51.507C24.2053 51.4987 24.2079 51.4922 24.2091 51.484C24.2314 51.2197 24.1939 50.98 24.1587 50.7478C24.1229 50.5174 24.0893 50.2999 24.1095 50.0597C24.1371 49.7422 24.3525 49.3358 24.6008 49.1347C24.6797 49.0712 24.7984 48.9977 24.9182 49.0126C25.0247 49.0253 25.1006 49.1059 25.1929 49.2289C25.356 49.4478 25.4895 49.6916 25.6116 49.9449L24.2041 51.507ZM25.7766 49.7622C25.6569 49.5272 25.5287 49.2997 25.3757 49.0935C25.2681 48.9491 25.1425 48.8093 24.9454 48.7871C24.7882 48.768 24.6192 48.8265 24.4564 48.9581C24.1601 49.1973 23.9129 49.6635 23.881 50.0399C23.8576 50.3071 23.8953 50.549 23.931 50.7825C23.9663 51.0116 23.9996 51.2268 23.9802 51.4652C23.9695 51.591 23.941 51.7151 23.9052 51.8383L21.4825 54.5266C20.8815 54.9397 20.2693 55.3136 19.6425 55.6002C19.5415 55.6461 19.4408 55.691 19.3396 55.7347C18.994 55.8867 18.6379 56.0431 18.2942 56.2652C17.9926 56.461 17.4478 56.8828 17.1873 57.5052C16.9604 58.0501 17.0433 58.537 17.2755 58.888C17.0556 58.914 16.8256 58.8579 16.6458 58.7016C16.483 58.5598 16.3843 58.3615 16.3692 58.1439C16.3533 57.926 16.4238 57.7169 16.5708 57.5465L18.1816 55.5917L20.8759 53.5914C21.4059 53.1984 22.0057 52.7533 22.477 52.1728C22.8945 51.6583 23.2984 50.877 23.1786 50.2265C23.1684 50.166 23.1066 50.1258 23.0464 50.1351C22.9842 50.1468 22.9438 50.2064 22.9546 50.2682C23.0422 50.7408 22.7854 51.432 22.3005 52.0298C21.8478 52.5886 21.2594 53.0241 20.7402 53.4096L18.7827 54.8619L24.8608 47.4838C24.9997 47.6474 25.1481 47.8061 25.3109 47.9533C25.6769 48.2847 26.1926 48.6159 26.7052 48.7322L25.7766 49.7622ZM26.8935 48.5242C26.4512 48.4645 25.9242 48.2015 25.4644 47.7855C25.2987 47.6349 25.1488 47.4745 25.0083 47.307L26.2606 45.7853C26.2647 45.7967 26.2665 45.8083 26.2702 45.8206C26.4665 46.4641 26.6821 47.0947 26.9124 47.6944C26.9847 47.8831 27.0695 48.0595 27.1638 48.2235L26.8935 48.5242ZM27.1094 47.6125C26.8807 47.0167 26.6664 46.3909 26.4713 45.7523C26.4544 45.6977 26.4434 45.6391 26.4277 45.5839L28.0449 43.6187C28.0448 44.0427 28.0872 44.4525 28.2145 44.8056C28.2629 44.9379 28.3291 44.9994 28.3916 45.0247C28.4429 45.0455 28.4909 45.0421 28.5264 45.0348C28.7863 44.9794 28.8522 44.5993 28.8652 44.4841C28.9435 43.8509 29.2042 43.1581 29.6057 42.4658C29.8497 42.5786 30.0999 42.6895 30.3483 42.802C30.0058 43.2546 29.7286 43.752 29.6502 44.2702C29.6071 44.5511 29.6285 44.8038 29.6493 45.0475C29.6611 45.1792 29.6695 45.3085 29.6709 45.4392L28.4782 46.7627C28.4631 46.7436 28.4495 46.7316 28.4338 46.7089C28.0665 46.1742 27.8123 45.5344 27.6812 44.81C27.6704 44.7482 27.6103 44.7065 27.549 44.7186C27.4872 44.7293 27.4464 44.7899 27.4576 44.8508C27.5952 45.6072 27.8604 46.2763 28.2469 46.8383C28.2653 46.8653 28.2952 46.9012 28.3233 46.9365L27.313 48.0582C27.2372 47.9159 27.1676 47.7662 27.1094 47.6125ZM28.6407 44.4573C28.6181 44.6445 28.5486 44.7975 28.4772 44.8131C28.4772 44.8131 28.4565 44.8026 28.4303 44.728C28.284 44.3228 28.2382 43.8433 28.2746 43.3406L29.167 42.2579C29.2453 42.295 29.3223 42.3327 29.4028 42.3696C28.9913 43.0839 28.722 43.8004 28.6407 44.4573ZM30.8019 44.1851L29.889 45.1977C29.8845 45.1416 29.8831 45.0836 29.8786 45.0275C29.8581 44.786 29.8377 44.5576 29.8775 44.3036C29.9523 43.8132 30.2312 43.3327 30.5671 42.8992C30.6654 42.9433 30.7604 42.9871 30.8596 43.0316C31.0652 43.3491 31.1646 43.7147 31.033 43.9141L30.7753 44.157L30.8019 44.1851ZM27.1075 49.3494L31.292 44.7055L35.2504 48.9035L27.1075 49.3494ZM36.5537 48.832L31.7985 43.7889C31.8071 43.6709 31.7981 43.5512 31.7759 43.4316C32.7466 43.8503 33.7413 44.2657 34.7517 44.6744C36.4472 45.3603 38.1807 46.0301 39.8856 46.6797C40.8489 47.0466 41.6931 47.3675 42.3607 47.6343L43.3257 48.0214C43.3462 48.0297 43.3658 48.0376 43.3863 48.0459C43.206 48.1617 43.0542 48.3064 42.9473 48.4822L36.5537 48.832ZM37.4502 49.7826L42.7658 49.4913L42.564 55.2051L37.4502 49.7826ZM44.3468 48.428C44.4157 48.4559 44.4856 48.4841 44.5559 48.5115C44.5148 49.1413 44.3801 49.7854 44.0478 50.2529C43.8989 50.4628 43.7267 50.6122 43.5437 50.7724C43.5066 50.8052 43.4689 50.842 43.4305 50.8753L43.4972 49.0051C43.5124 48.7261 43.9178 48.5017 44.3468 48.428ZM43.2037 57.2677C43.4642 57.1734 43.7248 57.0923 43.9897 57.0487C44.1416 57.0245 44.2522 57.0193 44.3376 57.0842C44.4341 57.1569 44.4683 57.2922 44.4807 57.3927C44.5195 57.7099 44.3917 58.1517 44.1908 58.3991C44.0392 58.5862 43.8629 58.7188 43.677 58.8594C43.4906 59.001 43.297 59.1472 43.1293 59.3526L43.2037 57.2677ZM42.9652 69.2554C42.8569 69.1075 42.7868 68.9295 42.7971 68.7297L42.9523 64.3779C43.0649 64.7857 43.1872 65.1888 43.3365 65.5703C43.3768 65.6744 43.4188 65.7771 43.4608 65.8798C43.6006 66.2205 43.7455 66.5731 43.8325 66.9532C43.9594 67.5056 43.9391 68.0625 43.7756 68.4802C43.6011 68.9248 43.2891 69.1652 42.9652 69.2554ZM44.6805 65.5727L44.2807 63.1505C44.1751 62.5134 44.055 61.7913 44.1185 61.074C44.1844 60.3077 44.4813 59.6328 44.8732 59.3531C44.924 59.3161 44.9364 59.2452 44.8998 59.1936C44.8625 59.1437 44.791 59.13 44.7412 59.1674C44.202 59.5512 43.95 60.394 43.8923 61.054C43.8274 61.799 43.9487 62.5368 44.0567 63.1868L44.6055 66.5142L44.4212 68.8227C44.3991 69.2715 44.0137 69.6156 43.5656 69.5916C43.4043 69.5828 43.2646 69.5154 43.1419 69.4245C43.4848 69.2954 43.8057 69.0303 43.9887 68.562C44.2342 67.9335 44.1359 67.2516 44.0553 66.9012C43.9636 66.503 43.8159 66.1416 43.6727 65.793C43.6303 65.6913 43.5893 65.589 43.5486 65.4858C43.3036 64.8606 43.1265 64.1859 42.9834 63.4913L43.1141 59.7977C43.1707 59.6926 43.2311 59.5891 43.3055 59.4988C43.4564 59.3136 43.6309 59.1824 43.8156 59.0424C44.0036 58.8993 44.1989 58.7517 44.3678 58.5434C44.607 58.2497 44.7531 57.7437 44.7064 57.3658C44.6809 57.158 44.601 56.9988 44.4739 56.9029C44.3177 56.7822 44.1302 56.7953 43.9516 56.8239C43.7031 56.8644 43.4567 56.9372 43.2112 57.0212L43.2425 56.126L43.3424 56.0319L43.2498 55.9337L43.2599 55.646C43.7075 55.915 44.3012 56.0347 44.7905 56.0505C45.0112 56.0573 45.2291 56.0468 45.4436 56.0261L44.6805 65.5727ZM45.6206 53.8297L45.4641 55.7958C45.2457 55.8181 45.0242 55.8294 44.7991 55.8229C44.1871 55.802 43.6311 55.6292 43.2705 55.3705L43.2856 54.9525C43.4631 54.8996 43.6419 54.833 43.8207 54.7503C44.4023 54.479 44.9967 54.176 45.5852 53.8501C45.5964 53.8438 45.6084 53.8356 45.6206 53.8297ZM45.6414 53.5691C45.5905 53.5984 45.5405 53.6335 45.4887 53.6624C44.9045 53.9858 44.3153 54.2865 43.7367 54.5558C43.5923 54.6232 43.4427 54.682 43.2928 54.7309L43.3466 53.2222C43.3855 53.2173 43.4285 53.213 43.4569 53.2071C44.1245 53.0716 44.7813 52.7754 45.4061 52.3274C45.4569 52.2905 45.4693 52.2196 45.4323 52.1688C45.3957 52.1171 45.3244 52.1057 45.2737 52.1426C44.6749 52.5718 44.0483 52.8552 43.4125 52.9842C43.3899 52.9891 43.3758 52.9867 43.3558 52.9905L43.4195 51.1973C43.5069 51.1101 43.5996 51.0283 43.695 50.9454C43.8793 50.7846 44.0705 50.6178 44.2347 50.386C44.5821 49.8974 44.7317 49.2486 44.7819 48.6018C45.0421 48.7038 45.3035 48.8031 45.5655 48.9036C45.373 49.7683 45.0668 50.5306 44.648 51.0858C44.5782 51.1779 44.3613 51.4969 44.5087 51.7171C44.5287 51.748 44.5613 51.7828 44.6125 51.8036C44.675 51.8288 44.7654 51.8307 44.8922 51.7692C45.2314 51.6038 45.5476 51.3369 45.844 51.0305L45.6414 53.5691ZM45.7771 48.9838C45.8524 49.0121 45.9261 49.0419 46.0014 49.0702L45.8732 50.6714C45.549 51.0598 45.1811 51.3741 44.7929 51.5642C44.7226 51.5986 44.7 51.5927 44.7 51.5927C44.6595 51.5319 44.7169 51.374 44.8299 51.2234C45.2616 50.6496 45.5785 49.8688 45.7771 48.9838ZM67.5042 34.4778C66.9232 35.5628 66.3469 36.6442 65.773 37.7224C64.2838 40.5215 62.7427 43.4167 61.1599 46.1952C59.8587 48.476 57.4989 49.9174 54.9974 49.9554C50.9697 50.0181 47.2736 48.5316 43.6992 47.0954L42.7305 46.7068C42.0588 46.4394 41.2122 46.1165 40.2423 45.7469C34.4529 43.5415 22.4026 38.9531 20.957 35.1664C20.0734 33.3045 19.7698 31.7196 20.0536 30.4525C20.8327 26.9768 21.8311 23.6212 22.8891 20.0674C23.2115 18.9863 23.5339 17.8997 23.852 16.8049C23.9181 16.58 24.149 16.4434 24.3787 16.4951C24.7563 16.5806 25.0941 16.6598 25.4237 16.7595C26.3013 17.0245 27.1601 17.2103 28.0087 17.3432C27.8393 17.9417 27.6583 18.5768 27.4605 19.2669C27.1411 20.3861 26.7938 21.6014 26.4461 22.8361L24.6689 29.5298C24.5837 29.8934 24.5047 30.2389 24.4339 30.5639C24.1909 31.6848 24.47 33.0515 25.2495 34.6023C26.2077 36.9553 31.2776 39.4109 36.848 41.6643C38.1874 42.2061 39.5557 42.7358 40.902 43.25C41.6612 43.5398 42.3246 43.793 42.8505 44.0025L43.609 44.3072C46.4729 45.4592 49.4351 46.6499 52.7075 46.6688C55.1517 46.6836 56.7866 45.9295 57.7082 44.3672C58.8582 42.4147 60.2647 39.6375 61.6235 36.9516L62.9055 34.4288C63.3633 33.5359 63.7978 32.7083 64.2003 31.9655C65.0443 32.5173 66.0583 33.1292 67.3388 33.8837C67.5447 34.005 67.6178 34.2667 67.5042 34.4778Z" fill="black"/>
<path d="M29.2936 35.9447L29.5167 35.613C28.1272 34.6799 27.7804 33.7033 28.3925 32.4476C28.9235 31.3576 34.5414 32.2332 42.0581 35.2739C49.5589 38.3083 54.2929 41.6399 53.8513 42.7314C53.3351 44.0075 52.241 44.3795 50.3042 43.9387L50.2141 44.3275C51.5588 44.6339 53.4369 44.8177 54.2201 42.8817C54.9241 41.1414 48.5561 37.4731 42.2065 34.9044C35.9463 32.372 28.8516 30.5887 28.0317 32.2724C27.3362 33.7048 27.7482 34.9062 29.2936 35.9447Z" fill="black"/>
</g>
</g>
<defs>
<clipPath id="clip0_514_436">
<rect width="79" height="79" rx="39.5" fill="white"/>
</clipPath>
<clipPath id="clip1_514_436">
<rect width="53.81" height="53.81" fill="white" transform="translate(25.0547 4.87378) rotate(22.025)"/>
</clipPath>
</defs>
</svg>
