<svg width="20" height="14" viewBox="0 0 20 14" fill="none" xmlns="http://www.w3.org/2000/svg">
<path d="M19.3433 0.523333C19.3333 0.513333 19.3233 0.503333 19.31 0.493333C18.96 0.186667 18.5 0 18 0H2C1.5 0 1.04 0.186667 0.69 0.493333C0.68 0.503333 0.666667 0.513333 0.656667 0.523333C0.253333 0.886667 0 1.41333 0 2V12C0 13.1033 0.896667 14 2 14H18C19.1033 14 20 13.1033 20 12V2C20 1.41333 19.7467 0.886667 19.3433 0.523333ZM17.3567 1.33333L10 6.93L2.64333 1.33333H17.3567ZM18 12.6667H2C1.63333 12.6667 1.33333 12.3667 1.33333 12V2.01L9.59667 8.3C9.71667 8.39 9.85667 8.43667 10 8.43667C10.1433 8.43667 10.2833 8.39 10.4033 8.3L18.6667 2.01V12C18.6667 12.3667 18.3667 12.6667 18 12.6667Z" fill="#181A26"/>
</svg>
