<svg width="80" height="80" viewBox="0 0 80 80" fill="none" xmlns="http://www.w3.org/2000/svg">
<circle cx="40" cy="40" r="40" fill="#ECAC61"/>
<path d="M48.3416 51.1065C48.1265 50.9974 47.8671 51.086 47.7601 51.2996L45.3689 56.0754C45.2616 56.2896 45.3484 56.5499 45.5619 56.657C45.5822 56.6667 45.6021 56.6754 45.622 56.6819C45.8225 56.7476 46.0457 56.6585 46.1428 56.4637L48.534 51.6878C48.6429 51.4734 48.5552 51.2128 48.3416 51.1065Z" fill="#181A26"/>
<path d="M35.7656 44.8673C35.5376 44.7927 35.2932 44.9165 35.2186 45.1445L33.8774 49.241C33.8028 49.4689 33.9266 49.7133 34.1545 49.788C34.3825 49.8626 34.6269 49.7387 34.7015 49.5108L36.0427 45.4143C36.1175 45.1864 35.9935 44.942 35.7656 44.8673Z" fill="#181A26"/>
<path d="M54.5347 46.3365C55.7724 45.8846 56.8058 44.9088 57.2466 43.5625C57.8649 41.674 57.1281 39.6792 55.5913 38.5796C56.3776 38.18 57.0125 37.4815 57.3081 36.5787C57.878 34.8381 56.975 32.976 55.2924 32.3076C55.9627 31.8898 56.5082 31.2469 56.7766 30.4269C57.3216 28.7622 56.5659 26.9688 55.02 26.2558C54.8227 26.1662 54.5923 26.1847 54.4115 26.3066C54.2406 26.4235 53.4076 26.7987 49.9091 26.7999C50.8377 23.7528 49.4077 20.7436 46.5261 19.5872C47.5327 17.4432 48.9678 15.3606 50.9451 14.3142C53.4804 12.9731 56.9025 13.6198 59.4404 14.5735C59.9674 14.7718 60.2381 13.9404 59.7123 13.7433C56.9369 12.6997 53.3089 12.0894 50.5499 13.5354C47.5017 15.133 45.643 18.8774 44.6345 21.9992C44.4616 22.5345 45.2916 22.807 45.4648 22.271C45.6606 21.6637 45.9011 21.024 46.1719 20.3798C48.6825 21.3731 49.9163 24.0119 49.0481 26.6635C48.173 29.3364 45.1626 30.7584 42.3365 29.8331C39.511 28.908 37.9231 25.9805 38.7982 23.3077C39.442 21.3412 41.2578 19.9896 43.424 19.8636C43.6635 19.8496 43.8453 19.6439 43.8317 19.4053C43.8177 19.1657 43.6115 18.9853 43.3733 18.9975C40.8492 19.1449 38.7304 20.7301 37.9748 23.0381C36.9509 26.1654 38.7858 29.5838 42.0664 30.6579C43.5579 31.1462 45.0936 31.0617 46.423 30.536C46.4969 30.639 46.5941 30.7262 46.7242 30.7687C46.7242 30.7687 46.9686 30.9064 47.0535 30.9341L47.0569 30.9353L54.7154 33.401C55.8763 33.7811 56.51 35.0328 56.1299 36.1937C55.7501 37.3539 54.4983 37.9876 53.3381 37.6077L37.7206 32.4945C37.3955 32.3881 37.0448 32.5658 36.9383 32.8909C36.8319 33.216 37.0098 33.566 37.335 33.6725L52.9524 38.7857L54.0209 39.1355C55.6999 39.6852 56.619 41.498 56.0693 43.177C55.5196 44.856 53.7061 45.7749 52.0271 45.2252L43.7252 42.5072C43.4001 42.4007 43.0503 42.5779 42.9438 42.9031C42.8374 43.2282 43.0146 43.578 43.3398 43.6844L51.6417 46.4025C52.0927 46.5502 52.5485 46.6001 52.9995 46.6023C53.033 46.6527 53.0663 46.7037 53.1155 46.7433C54.5973 47.9507 55.3542 49.0624 55.1395 49.7181C55.0122 50.1069 54.4871 50.4215 53.6683 50.6354C53.5843 50.6375 53.5042 50.6552 53.4267 50.6905C53.2734 50.4273 53.157 50.1232 53.0312 49.7713C52.7457 48.9768 52.4211 48.0771 51.3137 47.7145C50.2069 47.3522 49.4139 47.8853 48.7109 48.3591C48.023 48.8235 47.4296 49.2241 46.5809 48.9463C45.7328 48.6686 45.4907 47.9937 45.2089 47.2088C44.9236 46.4159 44.6004 45.5166 43.4929 45.154C42.3848 44.7912 41.5907 45.3254 40.8895 45.7984C40.2173 46.252 39.6354 46.645 38.8176 46.4046C38.8021 46.3987 38.7873 46.3931 38.7713 46.3864C37.938 46.1052 37.6969 45.4344 37.4181 44.6588C37.1335 43.8638 36.8102 42.9623 35.7007 42.599C34.5912 42.2358 33.798 42.7718 33.0968 43.2448C32.4087 43.7076 31.8128 44.1089 30.9675 43.8321C30.1215 43.5552 29.878 42.8798 29.5967 42.098C29.312 41.3031 28.9888 40.4015 27.8793 40.0383C26.7711 39.6755 25.9782 40.2108 25.2754 40.684C24.6134 41.1296 24.0379 41.5171 23.2435 41.3002C22.0987 40.2623 21.5501 39.3476 21.7352 38.7823C21.932 38.1813 22.4968 37.4886 25.1404 37.4622C25.157 37.4623 25.1704 37.4538 25.1868 37.4524C25.5788 37.7573 26.0175 38.0146 26.5158 38.1777L37.0559 41.6286C37.381 41.735 37.7315 41.558 37.838 41.2329C37.9444 40.9078 37.7665 40.5578 37.4414 40.4513L26.9028 37.001C25.2238 36.4513 24.3049 34.6378 24.8546 32.9588C25.4043 31.2798 27.2176 30.3616 28.8966 30.9113L29.9664 31.2615L31.6502 31.8128C31.9753 31.9192 32.3253 31.7413 32.4315 31.4169C32.538 31.0918 32.361 30.7413 32.0358 30.6348L30.3521 30.0836C29.1912 29.7035 28.5568 28.4515 28.9364 27.292C29.3165 26.1311 30.5685 25.4968 31.7335 25.8782L35.572 27.1046C35.898 27.2083 36.2469 27.0293 36.3506 26.7032C36.4539 26.3786 36.2757 26.0315 35.9534 25.926L35.9492 25.9246L32.1155 24.6998C30.3064 24.1075 28.3514 25.0975 27.7589 26.9072C27.4636 27.8094 27.5624 28.7481 27.9602 29.5354C26.0701 29.5122 24.296 30.6858 23.6778 32.5742C23.2558 33.8631 23.4748 35.1988 24.1348 36.2728C22.0987 36.4459 20.979 37.1183 20.56 38.3982C20.2978 39.1991 20.5707 40.1038 21.3526 41.095L19.1689 58.85C19.1335 59.1431 19.3097 59.422 19.5903 59.5139L43.9539 67.4906C44.2271 67.58 44.5262 67.4696 44.6754 67.2244L54.0534 51.821C55.289 51.4843 56.0546 50.912 56.3186 50.1057C56.6753 49.0137 56.0719 47.7476 54.5347 46.3365ZM52.9189 31.4927L47.7642 29.805C48.4455 29.3119 49.0183 28.6757 49.435 27.9239C49.533 27.9901 49.6447 28.038 49.7724 28.0389C52.8533 28.0473 54.1347 27.784 54.7557 27.5213C55.5572 28.0383 55.9176 29.0718 55.6 30.0416C55.2204 31.2019 54.0177 31.8524 52.9189 31.4927ZM43.8731 66.1584L41.6534 65.4317L45.3459 58.0558C45.4541 57.8412 45.3664 57.5813 45.1529 57.4743C44.9359 57.3684 44.6783 57.4538 44.5713 57.6673L40.822 65.1587L37.9992 64.2345L43.2175 51.2402C43.3063 51.0177 43.1988 50.765 42.9763 50.6762C42.7606 50.5806 42.5024 50.6954 42.4125 50.9168L37.1733 63.9634L34.4046 63.0569L35.551 59.5741C35.6263 59.3463 35.5024 59.1019 35.2747 59.0266L35.274 59.0264C35.0468 58.952 34.8024 59.0759 34.7273 59.3029L33.5805 62.7871L30.6667 61.8331L34.1326 51.2471C34.2072 51.0192 34.0834 50.7748 33.8555 50.7002C33.6275 50.6255 33.3831 50.7494 33.3085 50.9773L29.8422 61.5646L26.8641 60.5896L27.906 56.53C27.9646 56.2976 27.8301 56.0489 27.5936 56.0026C27.3617 55.9425 27.1256 56.0827 27.0656 56.3147L26.0379 60.3191L23.4 59.4555L25.5486 45.8654C25.5845 45.6285 25.4232 45.4082 25.1875 45.369C24.9509 45.3324 24.729 45.494 24.6911 45.7301L22.5645 59.1812L20.4597 58.4921L22.4564 42.2528C22.4768 42.2716 22.4931 42.2891 22.5137 42.3072C22.559 42.347 22.6108 42.3807 22.6661 42.4064C22.6967 42.4217 22.7332 42.4374 22.7613 42.4466C23.7791 42.7798 24.5949 42.5149 25.2555 42.1522L24.8997 44.4123C24.8665 44.625 24.993 44.8263 25.1922 44.8916C25.2141 44.8987 25.2372 44.9048 25.2604 44.9078C25.4966 44.9457 25.7184 44.7842 25.7559 44.5471L26.1427 42.0994C26.167 41.9421 26.3156 41.6248 26.2007 41.5311C26.8602 41.0862 26.9883 41.0493 27.4948 41.2151C28.0061 41.3825 28.16 41.755 28.4326 42.5172C28.7125 43.2939 29.0943 44.3245 30.2248 44.8576C30.0845 44.8996 29.9657 45.0054 29.9262 45.1585L27.7416 53.6782C27.6845 53.9013 27.8112 54.1277 28.0254 54.1978C28.035 54.2009 28.0446 54.2041 28.053 54.2061C28.2852 54.2654 28.5211 54.1259 28.5811 53.894L30.7659 45.3735C30.7965 45.2547 30.7683 45.1348 30.7068 45.0381C32.0617 45.4226 33.058 44.7636 33.7922 44.2689C34.4605 43.8178 34.8049 43.6085 35.3162 43.7759C35.8275 43.9433 35.9814 44.3157 36.254 45.0757C36.5536 45.9081 36.9623 47.0438 38.3 47.5318C38.3243 47.5435 38.3484 47.5529 38.3745 47.5614C38.4402 47.5829 38.5041 47.5995 38.568 47.6161L35.3062 57.5372C35.2268 57.7795 35.3464 58.0369 35.5737 58.1113L35.5743 58.1115C35.8016 58.1859 36.0505 58.0507 36.1296 57.809L39.4504 47.7091C40.3384 47.6609 41.0356 47.1929 41.5835 46.8221C42.2532 46.3714 42.598 46.163 43.1079 46.3299C43.6172 46.4967 43.7713 46.8684 44.0455 47.6281C44.3512 48.4838 44.7715 49.6558 46.1959 50.1222C47.6202 50.5885 48.6523 49.892 49.4067 49.3819C50.0743 48.9328 50.4185 48.7242 50.9284 48.8911C51.4384 49.0581 51.5932 49.4301 51.8664 50.1903C52.0253 50.631 52.2442 51.2309 52.6516 51.7387L43.8731 66.1584Z" fill="#181A26"/>
<path d="M45.3623 24.2196C46.1593 24.2229 46.9657 23.9102 47.2975 23.1466C47.5216 22.6311 46.6903 22.3627 46.4673 22.8748C46.285 23.2925 45.6311 23.3687 45.2401 23.3407C44.5858 23.2932 44.0482 22.9421 43.7233 22.3765C43.4431 21.8899 42.6629 22.2824 42.9438 22.7715C43.4516 23.6555 44.3278 24.2159 45.3623 24.2196Z" fill="#181A26"/>
<path d="M53.8365 44.3264C55.1526 43.4682 55.4419 41.7676 54.3883 40.567C54.0161 40.1436 53.3628 40.7247 53.7338 41.147C54.3869 41.8905 54.2917 42.9916 53.4415 43.5468C52.9749 43.851 53.3653 44.6336 53.8365 44.3264Z" fill="#181A26"/>
<path d="M54.6813 36.6068C55.2657 35.9099 55.3508 34.9253 54.9459 34.1205C54.6931 33.6172 53.9133 34.0128 54.1663 34.5155C54.4435 35.067 54.3442 35.6575 53.9529 36.1235C53.5917 36.5547 54.324 37.0331 54.6813 36.6068Z" fill="#181A26"/>
<path d="M51.6413 44.0428C51.8713 44.1181 52.1175 43.9934 52.1928 43.7634C52.2681 43.5334 52.1433 43.2872 51.9133 43.2119L46.8499 41.5579C46.6199 41.4826 46.3737 41.6074 46.2984 41.8374C46.2233 42.0666 46.3479 42.3136 46.5778 42.3888L51.6413 44.0428Z" fill="#181A26"/>
</svg>
