<svg width="79" height="79" viewBox="0 0 79 79" fill="none" xmlns="http://www.w3.org/2000/svg">
<g clip-path="url(#clip0_514_444)">
<circle cx="39.5" cy="39.5" r="39.5" fill="#ECAC61"/>
<g clip-path="url(#clip1_514_444)">
<path d="M62.4226 25.0293C59.1836 25.0652 57.2586 27.9364 55.8363 30.4934L55.659 30.1009C55.6578 30.1079 55.6504 30.1106 55.6484 30.1178C54.4863 27.1807 47.023 27.6475 39.0182 29.8509C39.2581 28.9733 39.6731 28.0907 40.2665 27.1971C40.574 26.7352 40.8173 26.2399 41.0815 25.7026C41.687 24.4714 41.7826 23.1512 41.3663 21.7772C40.099 17.6024 36.2176 15.1496 30.984 15.2163L29.5767 15.2342L30.8602 15.8095C31.0336 15.887 31.1988 15.9572 31.3575 16.025C31.6671 16.1571 31.9498 16.2767 32.2175 16.4213C35.6592 18.2848 37.4711 22.3936 36.4313 25.9785C35.9673 27.578 35.9787 29.1282 36.427 30.6208C35.5001 30.9154 34.5736 31.2237 33.6572 31.5573C33.5948 31.58 33.5324 31.6055 33.4702 31.6291C33.4713 31.6268 33.4723 31.6246 33.4742 31.622C34.8027 29.2063 34.7465 26.9063 33.3052 24.7876C31.85 22.6487 28.2227 21.5257 24.8745 21.9188L23.2644 22.1799L24.8579 22.5279C27.679 23.1439 28.3971 24.9302 28.7281 26.5968C29.0404 28.1632 28.8366 29.8382 28.1055 31.7164C27.8475 32.3809 27.5887 33.2067 27.6373 34.0741C20.4227 37.4949 14.8262 41.761 15.8789 44.6532C15.884 44.6672 15.8924 44.68 15.8977 44.6948L16.1402 45.5578C16.3244 46.2148 16.5084 46.7919 16.7011 47.3212C19.6536 55.4332 26.4776 60.9587 34.044 62.3122C33.4918 62.9609 33.2832 63.5487 33.4672 64.0542C34.1537 65.9404 39.9362 65.781 45.6006 63.7193C49.6541 62.244 53.1199 59.9848 54.5148 58.1274C54.9821 58.3194 55.4917 58.3359 55.9642 58.1639C55.9749 58.16 55.9848 58.1565 55.9947 58.1529L59.995 56.6233C61.03 56.2271 61.5494 55.0635 61.155 54.0287L58.2998 46.5599C58.2515 46.435 58.1357 46.2957 57.9781 46.1492C59.9528 43.3325 63.4191 41.4305 65.3823 38.5566C67.1134 36.0222 68.2543 32.7356 67.4933 29.6627C66.9055 27.2882 65.0553 25 62.4226 25.0293ZM56.9126 33.1462C57.5388 32.0229 58.6174 30.102 59.3458 29.2393C60.5489 27.8139 61.7725 27.2503 62.8847 27.6106C64.2727 28.0613 65.2467 29.8782 65.3535 31.3044C65.4637 32.7991 64.91 34.6686 63.8743 36.3058C62.8345 37.9473 61.6598 39.3382 60.3784 40.4384L60.0623 40.708C59.3888 41.2817 58.7166 41.8772 58.1674 42.5444C58.3799 39.4662 57.9892 36.2754 56.9126 33.1462ZM55.7266 32.4321C55.81 32.6381 55.8862 32.8375 55.9571 33.0323C56.1067 33.4432 56.2331 33.857 56.3584 34.2703C56.4339 36.5362 54.1757 38.4359 51.7805 39.8671L50.7273 36.9732C53.1941 35.3373 54.9825 33.7454 55.7266 32.4321ZM54.18 46.4594L54.078 46.1791C54.1177 46.1861 54.159 46.1896 54.1971 46.2074C54.3196 46.2624 54.4141 46.3611 54.4626 46.4868C54.5608 46.7461 54.4307 47.0383 54.1716 47.1372C54.0516 47.1706 53.9094 47.1814 53.787 47.1264C53.6646 47.0714 53.5701 46.9727 53.5212 46.8462C53.4738 46.721 53.4778 46.5837 53.532 46.4616C53.5516 46.4182 53.5827 46.3836 53.6125 46.3476L53.7148 46.6287L54.18 46.4594ZM33.0403 38.5568C32.6727 37.9228 32.3417 37.2539 32.1716 36.5461C33.1346 36.1537 34.1241 35.7629 35.1777 35.3794C36.3251 34.9618 37.4327 34.5884 38.5095 34.243C38.5497 34.2843 38.5873 34.3264 38.6291 34.367L39.7594 35.5035L39.2455 34.1427C39.2298 34.1019 39.2223 34.0609 39.2073 34.0198C47.7324 31.3711 53.714 31.035 54.2719 32.5678L54.2752 32.5666C53.1798 34.1576 50.7128 36.1408 47.1184 38.1537C46.9739 38.2323 46.8377 38.3107 46.691 38.3911C46.4939 38.4991 46.2835 38.6064 46.0798 38.7141C45.7173 38.9047 45.3578 39.096 44.9768 39.2868C44.9697 39.2903 44.9618 39.2941 44.9547 39.2977C43.3409 40.1037 41.56 40.9055 39.6267 41.6725C38.9725 41.9311 38.3016 42.1873 37.6129 42.438C37.2578 42.5673 36.9123 42.6818 36.562 42.8037C36.2397 42.9155 35.9134 43.0342 35.5962 43.1395C33.0122 43.9981 30.5932 44.6402 28.4014 45.101C28.3296 45.116 28.254 45.1333 28.183 45.1479C27.8862 45.2094 27.6037 45.2592 27.3155 45.3138C23.638 45.9915 20.7 46.0873 18.8454 45.6817C18.6112 44.0459 22.7117 40.7869 29.7597 37.6092C30.7291 38.3621 31.8533 38.8707 32.7953 39.2314L33.6235 39.548L33.0403 38.5568ZM54.8509 30.4686C55.0154 30.9206 54.9149 31.4756 54.5711 32.1062C53.2359 30.3071 46.3447 31.3149 39.0598 33.5531C38.7926 32.6322 38.7125 31.7166 38.8315 30.7983C47.7388 28.2433 54.0986 28.4015 54.8509 30.4686ZM37.027 26.1498C38.1385 22.3145 36.2279 17.927 32.5793 15.9117C35.1674 16.1843 39.3759 17.3546 40.7736 21.9567C41.1479 23.1923 41.0672 24.3284 40.4963 25.4884C40.2692 25.9489 40.036 26.4256 39.7508 26.8543C38.3806 28.9176 37.89 30.9298 38.2702 32.9666C36.728 30.8212 36.321 28.5829 37.027 26.1498ZM33.9577 32.3777C34.9024 32.0349 35.8174 31.7307 36.7187 31.4426C37.0617 32.2597 37.5452 33.0564 38.1674 33.8324C37.1128 34.1697 36.0535 34.5301 35.0072 34.9109C34.0218 35.2696 33.0485 35.6564 32.0834 36.0505C32.0312 35.6106 32.044 35.1573 32.1681 34.6849C32.3196 34.1039 32.5582 33.4809 32.8811 32.7929C33.2362 32.6534 33.5862 32.513 33.9577 32.3777ZM28.3704 34.6999C28.1395 33.9425 28.2358 33.0922 28.6849 31.9402C29.4586 29.9488 29.6726 28.1611 29.3379 26.4744C29.0509 25.0311 28.453 23.3527 26.4754 22.4148C29.0845 22.4257 31.6778 23.4951 32.7931 25.135C34.1108 27.0725 34.1558 29.0964 32.9314 31.3226C32.2474 32.5656 31.814 33.5843 31.5667 34.5287C31.1979 35.9446 31.6072 37.1843 32.1981 38.3142C30.0295 37.3556 28.8356 36.2208 28.3704 34.6999ZM27.8032 34.9417C28.1024 35.8762 28.6493 36.6246 29.3109 37.2327C23.2085 40.0346 18.3456 43.3189 18.3338 45.5393C17.4688 45.2724 16.8972 44.8783 16.706 44.3531C15.9947 42.4014 20.206 38.539 27.8032 34.9417ZM34.2899 63.7547C34.2285 63.5835 35.0367 62.4618 35.0367 62.4618C35.4026 62.5158 35.4037 62.506 35.7718 62.5405L34.7007 64.1087C34.4846 64.0059 34.3383 63.8879 34.2899 63.7547ZM35.1875 64.275L36.3403 62.5859C36.722 62.6117 37.1047 62.625 37.4883 62.6278L36.2504 64.441C35.8358 64.4067 35.4804 64.3508 35.1875 64.275ZM36.8284 64.4717L38.0884 62.6272C38.4938 62.6183 38.8986 62.6004 39.3044 62.5671L38.0141 64.4562C37.588 64.4772 37.1925 64.4825 36.8284 64.4717ZM38.6419 64.4166L39.9522 62.498C40.3875 62.4485 40.8229 62.3868 41.2568 62.3079L39.9195 64.2672C39.4755 64.331 39.0463 64.382 38.6419 64.4166ZM45.3042 62.8974C43.6273 63.5068 42.0308 63.9101 40.5941 64.1594L41.9158 62.2235L41.8588 62.1847C42.3631 62.0766 42.8655 61.9533 43.3661 61.8046L42.3985 63.2225L42.8076 63.5026L44.137 61.5547C44.2678 61.5099 44.399 61.4714 44.5288 61.4242C44.9242 61.2803 45.3097 61.1223 45.6903 60.9558L44.9533 61.9408L45.351 62.2381L46.6523 60.4996C49.0706 59.288 51.1656 57.6255 52.8846 55.6381L53.4028 56.9927C53.4948 57.2328 53.6316 57.4474 53.801 57.6315C52.6527 59.0798 49.5961 61.3353 45.3042 62.8974ZM50.5478 49.5247L52.5267 54.7008C50.3732 57.3126 47.5734 59.3862 44.2308 60.6028C34.2331 64.2407 23.0082 59.0215 18.3023 48.8922C19.4061 49.6158 20.9556 49.6894 21.826 49.7281L21.8479 49.2333C20.6614 49.1803 18.4527 49.0804 17.749 47.5485L17.734 47.5559C17.6643 47.3774 17.5904 47.2023 17.5246 47.0215C17.4537 46.8267 17.384 46.625 17.3154 46.4135C19.6671 47.2897 24.7117 46.9084 30.5154 45.4979C30.5462 45.4904 30.5769 45.4829 30.6077 45.4754C31.0489 45.3679 31.4918 45.2551 31.9406 45.1355C32.2285 45.0595 32.5163 44.9808 32.8052 44.8999C32.9436 44.8607 33.0817 44.8235 33.2218 44.7837C33.655 44.6595 34.0897 44.5292 34.5248 44.395C34.6318 44.3616 34.7383 44.3294 34.8458 44.2949C35.3053 44.1509 35.765 44.0023 36.2229 43.8486C36.2942 43.8246 36.366 43.7994 36.4372 43.7753C36.9293 43.6083 37.4202 43.438 37.9076 43.2606C37.9092 43.26 37.9117 43.2591 37.9133 43.2585C37.9142 43.2582 37.9158 43.2576 37.9166 43.2573C37.9207 43.2558 37.9248 43.2543 37.929 43.2528C38.4007 43.0811 38.8709 42.9025 39.3388 42.7201C39.4324 42.6833 39.5266 42.648 39.6194 42.6115C40.0371 42.4473 40.4523 42.2786 40.8645 42.1071C41.0183 42.0437 41.1715 41.9786 41.3241 41.9147C41.6748 41.7657 42.024 41.6153 42.3704 41.4622C42.6118 41.3557 42.8487 41.2472 43.0867 41.1391C43.2193 41.0788 43.3515 41.0176 43.4829 40.9568C46.0384 39.7716 48.3631 38.5048 50.3017 37.2538L51.3474 40.1271C50.0823 40.85 48.8162 41.4402 47.8677 41.8823C47.586 42.0136 47.3297 42.133 47.1072 42.24C40.6689 45.3364 33.6697 48.3055 26.1171 49.0794L26.1674 49.573C30.2589 49.1532 34.1836 48.0989 37.9429 46.7306C41.1926 45.5478 44.3189 44.1307 47.3235 42.6862C47.5445 42.5798 47.7983 42.4613 48.0778 42.3317C49.0201 41.8928 50.2644 41.3096 51.5194 40.5969L52.575 43.4973L52.4578 43.7429C51.7701 45.1855 50.2073 48.6378 50.5478 49.5247ZM59.6843 55.8057L55.684 57.3352C55.4206 57.4245 55.0943 57.4335 54.8164 57.3094C54.5386 57.1852 54.3261 56.962 54.2188 56.6799L51.3671 49.2209C51.2644 48.7827 52.0953 46.6159 52.9965 44.6554L53.4348 45.8594C53.2851 45.9623 53.1555 46.0895 53.0794 46.2587C52.9709 46.5029 52.9634 46.7737 53.059 47.0237C53.1544 47.2729 53.3407 47.4704 53.585 47.5788C53.8239 47.6854 54.0889 47.6951 54.3339 47.6059C54.3396 47.6038 54.3445 47.602 54.3503 47.5999C54.8643 47.4035 55.1235 46.8243 54.9271 46.3103L54.9268 46.3095C54.8314 46.0603 54.6451 45.8629 54.4009 45.7544C54.2406 45.6825 54.0693 45.6694 53.8993 45.6857L53.4742 44.5178C55.3527 45.3494 57.2834 46.5063 57.4843 46.8716L60.3396 54.3404C60.5625 54.9248 60.2684 55.5819 59.6843 55.8057ZM56.9036 45.3936C55.7174 44.6945 54.0799 43.9725 53.1294 43.5729L51.9535 40.3421C54.0717 39.0862 56.1089 37.454 56.6857 35.484C57.5059 38.8396 57.5456 42.2196 56.9036 45.3936ZM66.0684 35.4551C64.9645 38.2247 62.8824 40.4392 60.6586 42.359C59.6863 43.1987 58.7146 43.9889 57.8839 44.9083C57.9618 44.4574 58.0221 44.0017 58.0732 43.5438C58.6184 42.6175 59.5026 41.835 60.3839 41.0852L60.7005 40.8145C62.0187 39.6822 63.2283 38.2544 64.293 36.5713C65.3844 34.8468 65.9661 32.8648 65.8475 31.2679C65.7273 29.6465 64.643 27.6594 63.0378 27.1388C62.1177 26.8408 60.6644 26.9062 58.9674 28.9182C58.2891 29.7217 57.3426 31.3636 56.6959 32.5176C56.5695 32.183 56.4251 31.8297 56.2656 31.4606C56.3029 31.4275 56.3389 31.3911 56.3669 31.3399C57.8646 28.5861 61.13 23.8151 64.7795 26.7432C67.3569 28.8123 67.1707 32.6888 66.0684 35.4551Z" fill="black"/>
<path d="M22.7572 49.7502C23.5722 49.7467 24.3929 49.7152 25.195 49.6559L25.1582 49.1611C24.3672 49.2201 23.5587 49.2518 22.7548 49.255L22.7572 49.7502Z" fill="black"/>
</g>
</g>
<defs>
<clipPath id="clip0_514_444">
<rect width="79" height="79" rx="39.5" fill="white"/>
</clipPath>
<clipPath id="clip1_514_444">
<rect width="53.81" height="53.81" fill="white" transform="translate(7.42188 21.8247) rotate(-20)"/>
</clipPath>
</defs>
</svg>
