<svg width="60" height="60" viewBox="0 0 60 60" fill="none" xmlns="http://www.w3.org/2000/svg">
<path d="M49.5278 34.7244C45.9313 27.9359 37.3665 23.0791 29.2594 26.7007C29.248 26.7058 29.2371 26.7124 29.2257 26.7176C28.4141 25.3752 27.6012 23.9048 27.2366 22.3346C26.5032 19.239 27.6627 15.355 27.952 13.4404L27.9544 13.4409C28.0137 12.6732 28.547 10.1341 27.9661 5.95005C27.4705 2.35075 24.2951 0.743408 21.3592 0.743408C21.351 0.743408 21.3423 0.743408 21.3341 0.743408C18.4601 0.752197 15.1535 2.38649 14.6841 5.95321C14.3255 8.65485 14.3296 11.1007 14.6962 13.4268C14.6966 13.4291 14.6971 13.4312 14.6974 13.4334V13.4335C15.0879 15.8696 15.9716 18.7402 15.5469 21.6051C15.1645 24.4557 13.1522 26.9916 11.7301 29.5149C9.15762 34.0863 8.00777 39.4807 8.49058 44.7048C8.8398 48.468 10.0468 52.1988 11.9809 55.4932C13.3395 57.8147 15.8479 59.2567 18.5277 59.2567H24.1223C25.9321 59.2567 27.6512 58.6121 29.0149 57.4468C35.6775 60.3188 44.3654 57.3358 47.8613 53.7002C51.6888 49.7199 53.1677 41.5956 49.5278 34.7244ZM16.8007 21.089C16.878 20.1981 16.8548 19.2425 16.7336 18.1754H25.917C25.7941 19.2524 25.7706 20.2083 25.848 21.089H16.8007ZM26.0746 16.9813H25.6132L26.2395 16.0379C26.2287 16.096 26.0944 16.8548 26.0746 16.9813ZM26.5366 14.51L24.8961 16.9813H23.1476L25.1718 13.9361H26.6494C26.6331 14.0197 26.6531 13.9408 26.5366 14.51ZM22.431 16.9813H20.6875L22.7116 13.9361H24.4552L22.431 16.9813ZM19.971 16.9813H18.2229L20.2513 13.9361H21.9952L19.971 16.9813ZM17.5056 16.9813H16.5773C16.5395 16.7442 16.5063 16.5457 16.407 16.0085L17.7857 13.936H19.534L17.5056 16.9813ZM16.2457 15.1738C16.233 15.1106 16.1092 14.4899 16.0012 13.9361H17.0689L16.2457 15.1738ZM15.5741 25.3108C15.8529 24.7442 16.0908 24.1865 16.2937 23.5872L17.1598 22.2832H18.9077L16.8846 25.3222H15.5686C15.5705 25.3184 15.5722 25.3147 15.5741 25.3108ZM19.6246 22.2832H21.3688L19.3499 25.3222H17.6014L19.6246 22.2832ZM22.0852 22.2832H23.8288L21.8099 25.3222H20.0662L22.0852 22.2832ZM24.5452 22.2832H26.0063C26.0257 22.3836 26.0735 22.6087 26.074 22.6108C26.0742 22.6117 26.0745 22.6126 26.0747 22.6134L24.2705 25.3221H22.5264L24.5452 22.2832ZM26.2862 23.3729C26.2867 23.3742 26.2871 23.3756 26.2876 23.377C26.4606 23.9267 26.6768 24.4783 26.927 25.0086C26.9287 25.0124 26.9306 25.016 26.9324 25.0199L26.7307 25.3223H24.9879L26.2862 23.3729ZM15.8678 6.10942C16.2456 3.23774 18.8876 1.94505 21.3382 1.93755H21.3586C23.7761 1.93755 26.3859 3.22673 26.7836 6.11388C27.1058 8.43571 27.1136 10.6575 26.8336 12.742H15.8179C15.5428 10.6758 15.5504 8.50392 15.8678 6.10942ZM27.8249 56.8743C26.7526 57.6452 25.4658 58.0624 24.1223 58.0624H18.5277C16.2705 58.0624 14.157 56.8467 13.0112 54.8893C11.1646 51.7442 10.013 48.1842 9.68004 44.5945C9.21879 39.6098 10.3161 34.4624 12.7704 30.1012C13.4032 28.9793 14.1601 27.8538 14.9256 26.5165H27.7248C27.8661 26.7638 28.0075 27.0126 28.152 27.2523C28.029 27.3198 27.407 27.6908 27.075 27.9123C20.1363 32.5312 17.6392 41.9145 20.73 49.1465C22.1497 52.4654 24.7924 55.2457 27.8249 56.8743ZM47.0006 52.8727C41.7853 58.2966 26.9691 60.7228 21.8303 48.6784C18.9403 41.9341 21.2893 33.0671 27.9247 28.7906C35.226 24.0904 44.592 27.957 48.4724 35.2835C51.843 41.6463 50.5075 49.2243 47.0006 52.8727Z" fill="white"/>
<path d="M32.6832 37.5123C32.3532 38.7441 32.9601 40.1108 34.0948 40.6918C35.2301 41.2732 36.693 40.9669 37.5001 39.9793C38.1169 39.2243 38.2802 38.1703 37.9147 37.2948C37.4412 36.1569 36.303 35.452 35.0698 35.5289C33.9047 35.6067 32.9899 36.3666 32.6832 37.5123ZM33.8365 37.8213C34.0097 37.1753 34.5001 36.7639 35.149 36.7205C35.7567 36.6793 36.4925 36.9848 36.8125 37.7545C37.0073 38.2213 36.9122 38.8117 36.5752 39.2239C36.1315 39.7668 35.2639 39.949 34.6394 39.6289C34.0155 39.3096 33.6552 38.4986 33.8365 37.8213Z" fill="white"/>
<path d="M38.4077 34.6015C39.5445 35.1836 41.0082 34.8749 41.8129 33.8887C42.4292 33.1339 42.5919 32.0802 42.2275 31.2041C41.7541 30.0662 40.6089 29.3563 39.3827 29.4386C38.2177 29.5164 37.3028 30.2761 36.9962 31.4216C36.6653 32.6533 37.2724 34.0203 38.4077 34.6015ZM38.1493 31.7314C38.1493 31.7311 38.1493 31.7311 38.1493 31.7311C38.3225 31.0851 38.8128 30.6734 39.4618 30.6303C40.1268 30.5851 40.8289 30.9522 41.1253 31.6635C41.3194 32.1309 41.2244 32.7218 40.888 33.1337C40.4449 33.6766 39.576 33.8591 38.9521 33.5387C38.3278 33.2191 37.968 32.4084 38.1493 31.7314Z" fill="white"/>
<path d="M33.3439 33.8889C33.9601 33.1341 34.1228 32.0805 33.7585 31.2044C33.285 30.0665 32.1474 29.3566 30.9136 29.4388C29.7487 29.5166 28.8338 30.2764 28.5271 31.4219C28.1971 32.6531 28.8034 34.02 29.9387 34.6016C31.0757 35.1839 32.5394 34.8749 33.3439 33.8889ZM29.6805 31.7315C29.6805 31.7313 29.6805 31.7313 29.6805 31.7313C29.8537 31.0852 30.344 30.6735 30.993 30.6304C31.658 30.5853 32.3601 30.9523 32.6564 31.6636C32.8506 32.131 32.7556 32.722 32.4191 33.1339C31.976 33.677 31.1078 33.8583 30.4833 33.5389C29.8588 33.2189 29.499 32.4081 29.6805 31.7315Z" fill="white"/>
<path d="M11.5909 42.6328C11.6346 39.0437 12.5827 35.4726 14.3325 32.3058C14.4124 32.1616 14.3599 31.9799 14.2159 31.9003C14.0707 31.8207 13.8894 31.8728 13.81 32.0172C12.0124 35.2696 11.0387 38.9381 10.9938 42.6257C10.9401 47.0282 12.2363 51.4826 14.6438 55.1683C14.7365 55.3092 14.9224 55.3435 15.0573 55.2549C15.1954 55.1648 15.234 54.9797 15.1441 54.8418C12.8007 51.2541 11.5389 46.9184 11.5909 42.6328Z" fill="white"/>
<path d="M14.6142 31.2275C14.7562 31.3175 14.9397 31.2731 15.0265 31.1368C15.1605 30.9269 15.2982 30.7192 15.4393 30.514C15.5326 30.3782 15.4983 30.1921 15.3623 30.0988C15.2265 30.0058 15.041 30.0397 14.9471 30.1758C14.8025 30.3863 14.6614 30.5997 14.5238 30.8148C14.4347 30.954 14.4754 31.1385 14.6142 31.2275Z" fill="white"/>
<path d="M14.5298 37.2984C14.5817 37.1419 14.4966 36.9731 14.3398 36.9214C14.1835 36.8683 14.015 36.9547 13.9631 37.1113C12.0996 42.7616 12.7643 49.2108 15.7416 54.3628C15.8238 54.5053 16.0057 54.5545 16.1491 54.4721C16.292 54.3896 16.341 54.2068 16.2581 54.0643C13.3648 49.057 12.7187 42.7895 14.5298 37.2984Z" fill="white"/>
<path d="M47.5793 41.0221C47.4166 41.0498 47.307 41.2037 47.3344 41.3664C48.9076 50.6671 39.495 57.7732 31.0699 53.9556C30.9218 53.8882 30.7429 53.9539 30.6752 54.1043C30.607 54.2548 30.6735 54.4314 30.8239 54.4996C39.6233 58.4851 49.585 51.0937 47.9234 41.2668C47.8959 41.1038 47.7356 40.9964 47.5793 41.0221Z" fill="white"/>
<path d="M46.999 39.9321C47.0467 40.0894 47.2127 40.1786 47.3715 40.131C47.5295 40.083 47.6182 39.9161 47.5704 39.7585C47.4841 39.4753 47.3879 39.1955 47.28 38.9197C47.2204 38.7658 47.0468 38.6906 46.8934 38.7501C46.7394 38.8101 46.6637 38.9833 46.7237 39.1367C46.8259 39.3983 46.9174 39.6637 46.999 39.9321Z" fill="white"/>
<path d="M23.4174 45.6198C23.4869 45.7694 23.6634 45.8347 23.8139 45.7658C23.9632 45.6966 24.0284 45.5191 23.9596 45.3696C22.4396 42.077 23.0681 37.8901 25.4873 35.1881C25.5975 35.0654 25.587 34.8765 25.4646 34.7666C24.7003 34.0842 20.8515 40.0619 23.4174 45.6198Z" fill="white"/>
<path d="M32.4412 52.5488C32.286 52.496 32.1159 52.5799 32.0628 52.7359C32.0097 52.8921 32.0937 53.0616 32.2499 53.1143C36.2268 54.458 41.9733 53.4008 43.8713 49.5254C43.9436 49.3777 43.8824 49.1986 43.7343 49.1261C43.588 49.0543 43.4078 49.1149 43.3349 49.2631C41.5918 52.822 36.1835 53.8134 32.4412 52.5488Z" fill="white"/>
</svg>
