<svg width="60" height="60" viewBox="0 0 60 60" fill="none" xmlns="http://www.w3.org/2000/svg">
<g clip-path="url(#clip0_514_358)">
<path d="M40.698 29.3072C40.0707 24.6234 36.8901 19.947 32.2071 19.0948C27.6333 18.2018 23.0141 20.9395 20.3603 25.5961C17.6841 30.165 17.313 36.7103 19.7332 41.2336C20.9926 43.6779 22.848 45.4472 25.0621 46.354L23.8987 48.6622C23.7382 48.9562 24.0274 49.3293 24.3523 49.2476L25.9065 48.9088C25.5586 50.3737 25.0728 54.0138 27.2148 58.521C27.4394 59.0065 28.1904 58.6448 27.9558 58.1689C25.9149 53.8742 26.4127 50.3657 26.7204 49.057L27.8401 49.9191C28.0821 50.1175 28.4776 49.9457 28.4986 49.6343L28.7543 47.035C31.0844 46.9811 33.4 46.0448 35.4326 44.3004C38.0123 42.0868 39.8301 38.8343 40.5512 35.1421C40.9439 33.1319 40.9751 31.1536 40.698 29.3072ZM39.7947 28.8664L37.7156 28.6904L39.0121 26.1746C39.3537 27.0194 39.6171 27.9218 39.7947 28.8664ZM20.7806 26.5363L22.778 28.6582C22.348 28.7763 21.7585 28.9381 21.1688 29.1005C20.6018 29.2566 20.0346 29.4129 19.6092 29.5312C19.6027 29.5331 19.5968 29.5346 19.5903 29.5365C19.8961 28.4718 20.2984 27.4672 20.7806 26.5363ZM27.7546 48.8177C26.3123 47.6679 26.7675 47.9124 25.0187 48.2625L25.8405 46.6325C26.5153 46.8422 27.2274 46.9724 27.9318 47.0172L27.7546 48.8177ZM34.8983 43.6777C34.2183 44.2613 33.5049 44.7455 32.7707 45.1313L31.1284 43.6463H33.2704C33.4819 43.6463 33.6586 43.4855 33.6788 43.275L33.8863 41.0965L35.9156 42.6993C35.5917 43.0445 35.2537 43.3728 34.8983 43.6777ZM39.7462 34.9847C39.2176 37.6905 38.0723 40.1418 36.4593 42.0834L33.8035 39.9858C33.5624 39.7826 33.1608 39.9544 33.1409 40.2688L32.8974 42.826H30.0631C29.6987 42.8138 29.5096 43.3052 29.788 43.5405L31.9665 45.5103C27.5014 47.4176 22.7037 45.3578 20.4625 40.8579C18.9112 37.8733 18.5196 34.0642 19.3542 30.454C20.0358 30.2622 22.1727 29.6747 23.6523 29.2693C23.9438 29.1988 24.0546 28.8044 23.8425 28.5925L21.1977 25.7828C23.3761 22.0952 26.8528 19.7465 30.4627 19.7465C33.987 19.742 36.9542 21.9534 38.5806 25.221L36.7055 28.8597C36.5686 29.1075 36.7528 29.4406 37.0356 29.4563L39.9276 29.7011C40.1473 31.3782 40.1012 33.1673 39.7462 34.9847Z" fill="white"/>
<path d="M59.2584 8.34373C58.2358 5.12448 56.1463 2.49256 53.3994 1.23491C51.3909 0.292367 49.009 0.162289 46.9044 0.802953C42.0482 2.26147 38.5697 7.08901 37.5624 12.2335C36.821 15.9217 37.2611 19.6216 38.8015 22.6517C40.0476 25.103 41.8933 26.8822 44.1024 27.8012L42.9264 30.1029C42.7644 30.3961 43.0514 30.7707 43.3769 30.6907L44.8059 30.3873C44.4484 31.206 43.8763 32.6314 43.3833 34.38C42.0913 38.9622 42.4054 42.0485 42.8963 43.8306C44.5114 49.694 40.5787 58.9332 40.5387 59.0259C40.3218 59.5103 41.0855 59.8438 41.2921 59.3507C41.3023 59.3269 42.3263 56.9376 43.1282 53.8355C44.2123 49.6413 44.4004 46.2019 43.6873 43.6127C42.3026 38.5858 44.8939 32.2019 45.6743 30.4569L46.8611 31.3812C47.102 31.5808 47.4985 31.4113 47.5211 31.0999L47.791 28.5012C50.3282 28.4533 52.8297 27.3261 54.854 25.4655C57.1587 23.3578 58.9264 20.2862 59.6525 16.6738C60.2447 13.7271 60.0585 10.8446 59.2584 8.34373ZM51.2341 1.38561C51.6621 1.47162 52.0771 1.59069 52.4784 1.7394L49.9217 4.20561L47.7701 1.42428C48.9125 1.17397 50.0819 1.1537 51.2341 1.38561ZM46.9124 1.6562L49.5526 5.0694C49.6936 5.26018 49.9946 5.28221 50.1619 5.11358L53.294 2.09237C55.6396 3.25838 57.4266 5.50651 58.3878 8.30741L54.6027 12.5748L53.4746 6.9342C53.4178 6.59225 52.9359 6.48643 52.7409 6.77295L49.2907 11.5055L47.6089 5.81764C47.5254 5.49725 47.0659 5.41991 46.8822 5.69495L43.3875 10.5694L41.3711 5.71522C42.8982 3.75327 44.8295 2.32827 46.9124 1.6562ZM40.806 6.49323L42.9128 11.5646C43.0233 11.8561 43.4515 11.9054 43.6251 11.6463L47.0603 6.85475L48.7398 12.5346C48.8232 12.8535 49.279 12.9327 49.4646 12.6599L52.8536 8.01127L53.9602 13.5445C54.0146 13.8683 54.458 13.9895 54.6693 13.7362L58.6681 9.22791C59.118 10.9064 59.284 12.749 59.1157 14.6549L54.7248 19.2005L52.3281 14.0918C52.2044 13.8048 51.773 13.7756 51.6121 14.0436L48.6851 18.5829L46.3042 12.8876C46.198 12.6104 45.7985 12.5483 45.6132 12.7803L41.2916 17.8699L38.3439 12.5204C38.772 10.2674 39.6509 8.19854 40.806 6.49323ZM40.6817 24.1084L44.504 20.9447L47.4619 25.6066C47.5984 25.8347 47.9472 25.8619 48.1171 25.6568L51.6344 21.6326L53.984 25.1489C51.6549 27.1397 48.8021 28.089 45.9807 27.5218C43.9007 27.1037 42.0716 25.9141 40.6817 24.1084ZM46.7814 30.2796L45.7725 29.494C45.6776 29.4199 45.5518 29.3935 45.434 29.4153L44.0485 29.7095L44.879 28.0839C45.5516 28.2971 46.2666 28.432 46.9683 28.4788L46.7814 30.2796ZM54.5965 24.589L52.019 20.7315C51.8792 20.51 51.5363 20.4876 51.3691 20.6894L47.8606 24.7037L44.9474 20.1122C44.8237 19.9066 44.5206 19.8588 44.3396 20.016L40.2048 23.4383C39.9644 23.0727 39.7395 22.6867 39.5328 22.28C38.2773 19.8105 37.7983 16.8626 38.1401 13.8504L40.8603 18.7868C40.9879 19.0344 41.3574 19.0714 41.5322 18.8543L45.8056 13.8213L48.2291 19.6186C48.343 19.9179 48.788 19.9573 48.9523 19.6827L51.9004 15.1108L54.2352 20.0878C54.3466 20.3431 54.7129 20.4047 54.9016 20.1985L58.9393 16.0186C58.3746 19.4185 56.7291 22.5313 54.5965 24.589Z" fill="white"/>
<path d="M28.0486 36.5998L29.2627 34.0316C29.4131 33.7382 29.1256 33.3757 28.8054 33.4554L26.0285 34.0539L23.9612 32.1056C23.7287 31.8717 23.2947 32.0336 23.2718 32.3624L22.9829 35.1884L20.4912 36.5524C20.1969 36.7013 20.2166 37.164 20.5224 37.2874L23.1208 38.4355L23.6481 41.2268C23.6991 41.5523 24.1436 41.6773 24.3567 41.4243L26.2515 39.3079L29.0692 39.6689C29.395 39.7214 29.6507 39.3354 29.476 39.0559L28.0486 36.5998ZM26.1419 38.4664C26.0083 38.4493 25.8742 38.4991 25.7842 38.5997L24.2999 40.2575L23.8868 38.0711C23.8617 37.9384 23.773 37.8266 23.6495 37.772L21.6142 36.8727L23.5661 35.8042C23.6844 35.7394 23.7634 35.6203 23.7771 35.486L24.0034 33.2723L25.6227 34.7985C25.721 34.8911 25.8584 34.9293 25.9904 34.9009L28.1657 34.4322L27.2147 36.4438C27.1569 36.5659 27.163 36.7085 27.2309 36.8252L28.349 38.7491L26.1419 38.4664Z" fill="white"/>
<path d="M32.0849 29.2837C32.2625 29.2848 32.4251 29.1652 32.4768 28.9952L33.1081 26.9624L35.1406 26.3299C35.4585 26.2422 35.5307 25.7846 35.2554 25.6032L33.517 24.3746L33.5436 22.2461C33.5585 21.9167 33.1457 21.7066 32.8881 21.9124L31.1825 23.186L29.1665 22.503C28.8578 22.3871 28.5304 22.7148 28.6464 23.0233L29.3306 25.0391L28.0581 26.7454C27.8524 27.0033 28.0631 27.416 28.3923 27.4008L30.5208 27.373L31.7503 29.1105C31.8278 29.2201 31.9532 29.2837 32.0849 29.2837ZM30.7308 26.5497C30.729 26.5497 30.7272 26.5497 30.7254 26.5499L29.2124 26.5697L30.117 25.3567C30.1976 25.2485 30.22 25.1074 30.1766 24.9797L29.6902 23.5468L31.1232 24.0323C31.2512 24.0757 31.3922 24.0533 31.5002 23.9724L32.7127 23.067L32.6938 24.5802C32.692 24.7152 32.757 24.8423 32.8672 24.9202L34.103 25.7935L32.6582 26.2432C32.5293 26.2833 32.4284 26.3843 32.3883 26.5132L31.9396 27.9583L31.0655 26.7232C30.9887 26.6142 30.8638 26.5497 30.7308 26.5497Z" fill="white"/>
<path d="M38.083 32.616C38.0813 32.616 38.0795 32.616 38.0778 32.616L35.9036 32.6438L34.6482 30.8685C34.4669 30.5936 34.009 30.6657 33.9216 30.9836L33.2761 33.06L31.1997 33.7054C30.8818 33.7929 30.8093 34.2505 31.0846 34.4319L32.8599 35.6875L32.8321 37.8617C32.8173 38.1911 33.2293 38.4014 33.4875 38.1957L35.2302 36.8952L37.2893 37.5934C37.598 37.7096 37.9255 37.3818 37.8095 37.0732L37.1113 35.014L38.4118 33.2714C38.6161 33.0156 38.41 32.6053 38.083 32.616ZM36.3249 34.6963C36.2441 34.8045 36.2219 34.9456 36.2652 35.0733L36.7659 36.5496L35.2895 36.049C35.1617 36.0057 35.0206 36.028 34.9125 36.1087L33.6632 37.041L33.6831 35.4823C33.6849 35.3473 33.6201 35.2202 33.5098 35.1422L32.237 34.2421L33.7257 33.7793C33.8546 33.7393 33.9556 33.6384 33.9955 33.5095L34.4583 32.0208L35.3584 33.2936C35.4353 33.4023 35.5602 33.4669 35.6934 33.4669C35.6951 33.4669 35.6969 33.4669 35.6986 33.4668L37.2573 33.4469L36.3249 34.6963Z" fill="white"/>
<path d="M16.6175 41.7041C18.1754 36.5852 16.5133 32.2624 15.6344 30.4953L16.6819 30.7567C16.9824 30.8415 17.2771 30.526 17.1714 30.2321L16.3653 27.7473C20.9653 25.6759 23.309 19.6647 22.7793 14.5101C22.5181 11.1343 21.1531 7.62818 19.0853 5.13572C18.4723 4.38607 17.7972 3.70321 17.0626 3.10509C14.3983 0.936066 11.3033 0.103566 8.34779 0.760988C4.28431 1.66462 1.3476 5.2379 0.361698 9.78888C-0.125099 12.0459 -0.135294 14.5031 0.422284 17.0191C1.1206 20.1592 2.61428 22.9547 4.68006 25.0414C6.82541 27.266 9.8792 28.7095 12.7093 28.602L12.5669 31.1823C12.5376 31.5158 12.9517 31.7423 13.2169 31.5372L14.6919 30.47C15.3862 31.766 17.4256 36.2318 15.8328 41.4654C13.8281 48.0524 21.3383 58.5359 21.659 58.979C21.9666 59.4153 22.6413 58.9238 22.3236 58.498C22.2474 58.3926 14.7303 47.9053 16.6175 41.7041ZM4.92685 24.1152C4.13279 23.2537 3.43682 22.2759 2.85299 21.2079C3.27814 20.5524 4.8181 18.316 7.41592 16.0315C10.1957 13.5869 14.7868 10.5929 20.9567 10.0772C21.4463 11.3873 21.787 12.8351 21.9294 14.2281C15.8288 15.2052 11.4896 17.8983 8.90689 20.0096C6.76705 21.7588 5.46978 23.3735 4.92685 24.1152ZM1.25443 16.9705C3.30978 11.5356 11.6384 4.76025 18.5773 5.8106C19.3985 6.84407 20.0929 8.01208 20.6392 9.28029C14.3601 9.87384 9.69146 12.9326 6.85224 15.4347C4.55396 17.4601 3.08455 19.4089 2.42666 20.3669C1.92498 19.3034 1.52959 18.1643 1.25443 16.9705ZM17.8569 4.9706C9.13307 5.06927 4.16701 10.2122 1.00283 15.6504C0.713729 13.7124 0.774081 11.8199 1.13467 10.0793C1.32849 9.75923 2.34545 8.15341 4.20428 6.4604C6.08818 4.74454 9.24873 2.58724 13.6305 2.01021C15.1627 2.6047 16.694 3.70978 17.8569 4.9706ZM8.5258 1.56173C9.62326 1.31739 10.7428 1.30052 11.8484 1.49985C6.92537 2.78224 4.39119 4.88798 1.83533 7.73915C3.09744 4.58669 5.46346 2.24282 8.5258 1.56173ZM5.51127 24.7092C5.96889 24.0731 7.26627 22.4054 9.45275 20.623C11.9442 18.5919 16.1233 16.0025 21.9947 15.0481C22.076 16.5315 21.9535 17.9699 21.6509 19.3133C16.5773 20.2664 13.3927 22.3697 11.6069 23.9815C10.1433 25.3025 9.36041 26.5008 9.03685 27.0677C7.79654 26.557 6.52705 25.6978 5.51127 24.7092ZM9.82025 27.356C10.154 26.7992 10.8922 25.7243 12.1925 24.5583C13.8524 23.0695 16.782 21.1372 21.4231 20.1936C20.3203 23.9504 17.7571 26.819 14.3133 27.585C12.8295 27.9147 11.303 27.83 9.82025 27.356ZM13.5339 28.5458C14.2352 28.4669 14.9437 28.3019 15.6049 28.062L16.1628 29.7817C14.3797 29.3049 14.8973 29.3464 13.4334 30.3678L13.5339 28.5458Z" fill="white"/>
</g>
<defs>
<clipPath id="clip0_514_358">
<rect width="60" height="60" fill="white"/>
</clipPath>
</defs>
</svg>
