<svg width="60" height="60" viewBox="0 0 60 60" fill="none" xmlns="http://www.w3.org/2000/svg">
<path d="M49.4128 2.34326C45.3275 2.34326 41.7828 4.6728 40.0183 8.07065C36.2826 7.61826 32.0955 7.41948 28.5997 7.41948C18.742 7.41948 8.77468 8.80114 7.90906 11.446C7.80233 11.5331 7.72791 11.6585 7.72399 11.8073C7.71518 12.1099 7.55459 19.2454 11.4479 23.3453C13.1429 25.1314 15.355 26.0969 18.0233 26.2183V27.9153C18.0233 31.9702 21.6983 35.3338 26.4846 35.9507C27.1583 38.1441 27.1084 45.6742 26.9762 49.8828C25.5123 49.3962 24.3314 48.3729 23.7409 46.7699C23.7801 46.5594 23.8261 46.3499 23.8809 46.1393C24.2217 45.9738 24.5478 45.7849 24.8376 45.543C25.6876 44.834 26.5571 43.5405 25.3801 42.7385C25.3488 42.717 25.3184 42.7101 25.2871 42.7003C25.1656 42.5114 24.8464 42.435 24.6819 42.6837C24.0425 43.6531 23.5989 44.6147 23.3091 45.5792C23.1416 45.6615 23.0045 45.7222 22.934 45.7457C21.8794 46.106 20.7739 46.2882 19.6889 46.5388C19.3599 46.4527 12.9471 44.834 7.64076 47.0235C2.27568 49.2356 0.224239 54.4293 0.139048 54.6496L0 55.0119L0.375037 55.1098C0.539544 55.1529 2.94938 55.7689 6.00744 55.7679C8.02167 55.7679 10.316 55.5015 12.433 54.6271C17.2683 52.6325 19.4069 48.226 19.8446 47.2145C20.8846 46.9805 22.0381 46.8169 23.0888 46.4634C22.5982 48.8762 23.0133 51.3301 23.8006 53.9916C22.182 54.3588 21.3859 54.8817 21.3859 55.5848C21.3859 57.22 26.0548 57.6568 28.8122 57.6568C31.5697 57.6568 36.2376 57.22 36.2376 55.5848C36.2376 55.5534 36.2278 55.5241 36.2229 55.4937C37.5193 55.1392 38.4467 54.5713 38.5162 54.5272L38.7678 54.3676L38.6484 54.0944C38.5818 53.9417 36.9661 50.3303 34.0099 49.2493C32.8554 48.8282 31.6862 48.8615 30.6776 49.0623C30.614 44.8047 30.6668 38.1921 31.1741 35.9458C35.9448 35.3171 39.6021 31.9604 39.6021 27.9143V26.2173C42.7277 26.0763 44.9026 24.8063 46.4213 23.076C47.3712 23.3571 48.3729 23.5157 49.4128 23.5157C55.2508 23.5157 60 18.7665 60 12.9295C60 7.09242 55.2508 2.34326 49.4128 2.34326ZM25.0716 43.375C25.6974 43.8587 25.0002 44.5403 24.2266 45.0534C24.444 44.4952 24.7279 43.9361 25.0716 43.375ZM7.90515 47.6649C12.0208 45.966 16.9912 46.6965 18.8116 47.0559L1.01544 54.396C1.66367 53.0604 3.76408 49.3727 7.90515 47.6649ZM1.2622 54.5948L4.65418 53.1955L4.19689 54.9884C2.94448 54.8925 1.90456 54.7211 1.2622 54.5948ZM4.47988 55.008L4.97634 53.0633L7.13941 52.1712L6.49705 55.054C5.7881 55.0687 5.11049 55.0491 4.47988 55.008ZM6.78395 55.0452L7.45275 52.042L10.0526 50.9698L9.43859 54.7681C8.53967 54.9307 7.64468 55.0149 6.78395 55.0452ZM12.2342 53.9573C12.2127 53.9661 12.1921 53.9779 12.1706 53.9867C11.3784 54.3138 10.5549 54.5478 9.72745 54.7142L10.3532 50.8454L13.1302 49.6997L12.2342 53.9573ZM12.5476 53.8144L13.4406 49.5724L16.0355 48.5022L15.4392 51.9627C14.6235 52.6609 13.6629 53.3061 12.5476 53.8144ZM15.7711 51.666L16.3381 48.3758L19.0613 47.2527C18.6392 48.1252 17.5974 49.9925 15.7711 51.666ZM28.5997 8.35364C32.874 8.35364 36.5666 8.58963 39.609 8.9539C39.512 9.19184 39.4229 9.43371 39.3426 9.67949C36.1494 9.30152 32.4666 9.10176 28.8573 9.10176C19.8407 9.10176 10.2925 10.317 9.38277 12.575C8.99207 12.3145 8.77664 12.059 8.77664 11.821C8.77566 10.4031 15.8348 8.35364 28.5997 8.35364ZM38.993 14.7156C36.0251 15.0387 32.5224 15.2404 28.6085 15.2404C18.7998 15.2404 12.3439 14.0379 9.86063 12.8433C10.1387 11.306 17.851 9.63151 28.8573 9.63151C32.7907 9.63151 36.2934 9.84791 39.1987 10.1936C38.9646 11.068 38.8276 11.9816 38.8276 12.9295C38.8266 13.5395 38.8922 14.1329 38.993 14.7156ZM8.74237 13.2996C10.9838 14.8291 16.6446 15.7271 22.8567 16.0639C23.1925 16.0825 23.5314 16.1002 23.8711 16.1148C23.9632 16.1188 24.0542 16.1227 24.1463 16.1266C25.6122 16.1893 27.1064 16.2226 28.5997 16.2226C29.5613 16.2226 30.5758 16.2069 31.6186 16.1765C31.6833 16.1746 31.7469 16.1726 31.8115 16.1707C32.1719 16.1589 32.5361 16.1462 32.9014 16.1305C35.8371 16.012 38.7061 15.7721 41.2374 15.4147C41.3324 15.401 41.4264 15.3883 41.5204 15.3736C41.9463 15.3109 42.3605 15.2453 42.764 15.1768C42.8355 15.164 42.9089 15.1533 42.9804 15.1405C43.2144 15.0994 43.4416 15.0573 43.6668 15.0132C43.7099 15.0054 43.752 14.9966 43.7941 14.9878C46.011 14.553 47.804 14.0076 48.8772 13.3496C48.8429 13.8519 48.7802 14.4619 48.6804 15.1268C46.624 16.5173 39.186 17.7844 28.8592 17.7844C18.3523 17.7844 10.8281 16.4732 8.9294 15.0534C8.83638 14.3993 8.77371 13.7931 8.74237 13.2996ZM49.0691 17.9695L49.0926 20.0141C49.0936 20.018 49.119 20.4243 48.8879 20.6476C48.7548 20.7759 48.5491 20.8229 48.2926 20.7915C48.1761 20.7769 48.0791 20.7651 47.9802 20.7514C48.4463 19.8417 48.8018 18.8948 49.0691 17.9695ZM48.9242 11.8817L44.6793 7.69268C44.6764 7.69072 44.3748 7.42437 44.3816 7.10221C44.3846 6.91518 44.4923 6.73501 44.7028 6.56855C45.5283 5.91443 45.778 5.71663 46.6886 5.41798C47.0431 5.30145 47.473 5.23193 47.8715 5.23193C48.2642 5.23193 48.6265 5.30047 48.8537 5.4591C49.0094 5.56779 49.0887 5.71076 49.0946 5.89485C49.122 6.68017 49.0152 10.6538 48.98 11.8866C48.9624 11.8817 48.9438 11.8798 48.9252 11.8759C48.9271 11.8778 48.9252 11.8798 48.9242 11.8817ZM48.2583 21.0677C48.322 21.0755 48.3846 21.0794 48.4424 21.0794C48.7068 21.0794 48.9203 21.0021 49.0799 20.8483C49.4089 20.5321 49.3717 20.0141 49.3697 20.0023L49.3345 16.956C49.4001 16.674 49.4559 16.3988 49.5068 16.1286C49.4686 17.6816 49.4324 19.4628 49.45 19.9739C49.4588 20.2432 49.5832 20.4694 49.8094 20.627C50.0875 20.8219 50.5095 20.9032 50.957 20.9032C51.3898 20.9032 51.8471 20.8268 52.2202 20.7044C53.1788 20.3891 53.4599 20.1678 54.2912 19.5078C54.5693 19.2865 54.7133 19.0358 54.7191 18.7616C54.727 18.3053 54.3402 17.9695 54.3314 17.9616L49.8466 13.5346C49.8564 13.4005 49.8642 13.2732 49.8711 13.1527L49.9915 13.282C50.1413 13.4436 53.689 17.2419 54.3656 17.8813C54.5213 18.0282 54.7093 18.1036 54.916 18.1036C54.9669 18.1036 55.0188 18.0997 55.0716 18.0899C55.7307 17.9744 56.4749 17.144 56.8401 16.4213C57.2964 15.5156 57.3395 15.1572 57.4668 14.0957C57.5089 13.7393 57.4345 13.4573 57.2425 13.2595C56.9272 12.9344 56.4239 12.9716 56.4092 12.9745L49.8769 13.0519C49.8818 12.9491 49.8867 12.8502 49.8897 12.7591L50.0699 12.764C50.2686 12.7699 54.5321 12.8952 56.0176 12.8952C56.1703 12.8952 56.2937 12.8942 56.3808 12.8913C56.6443 12.8825 56.8656 12.7601 57.0212 12.5388C57.409 11.9885 57.3542 10.8682 57.1055 10.0937C56.796 9.12722 56.5757 8.84325 55.9226 8.00015C55.7032 7.71814 55.4545 7.57321 55.1823 7.56832C55.1774 7.56832 55.1725 7.56832 55.1676 7.56832C54.7221 7.56832 54.395 7.95217 54.3882 7.96098L49.8936 12.6112C49.8975 12.4634 49.9004 12.3282 49.9014 12.2196C49.9014 12.2166 49.8995 12.2127 49.8995 12.2098C50.5947 11.5468 53.737 8.54263 54.3118 7.92083C54.4929 7.72499 54.5634 7.47725 54.5155 7.20601C54.3989 6.54211 53.5784 5.79399 52.8645 5.42679C51.9676 4.96362 51.6141 4.92054 50.5624 4.79226C50.2128 4.75016 49.9347 4.82262 49.7399 5.0116C49.4108 5.32789 49.449 5.84589 49.451 5.85764L49.5186 11.7407C49.4314 11.7202 49.3423 11.727 49.26 11.7544C49.2982 10.3806 49.3971 6.66353 49.3697 5.88702C49.3609 5.61773 49.2365 5.39154 49.0103 5.23388C48.462 4.84906 47.3574 4.90781 46.6005 5.15653C45.6419 5.47085 45.3608 5.69313 44.5285 6.3541C44.2504 6.57442 44.1065 6.8251 44.1006 7.10026C44.0928 7.55657 44.4795 7.89243 44.4884 7.90027L48.7988 12.1559C48.7528 12.2176 48.6764 12.2803 48.6059 12.342C47.7981 11.4744 45.0485 8.52892 44.4609 7.97175C44.268 7.78864 44.0232 7.71716 43.7559 7.76318C43.0969 7.87775 42.3517 8.70714 41.9865 9.42979C41.5263 10.3375 41.4832 10.6949 41.3549 11.7554C41.3118 12.1118 41.3862 12.3929 41.5772 12.5917C41.8288 12.8531 42.2039 12.8805 42.3488 12.8805C42.384 12.8805 42.4066 12.8795 42.4085 12.8786L47.8284 12.8237C47.66 12.9021 47.4671 12.9804 47.2664 13.0578C45.6047 13.0127 43.0626 12.951 42.4379 12.9735C42.1735 12.9824 41.9522 13.1048 41.7965 13.3261C41.6134 13.5865 41.538 13.9782 41.5272 14.3963C41.2589 14.4365 40.9769 14.4737 40.6959 14.5119C40.5999 13.9978 40.5304 13.4749 40.5304 12.9334C40.5304 8.03834 44.5119 4.0559 49.4069 4.0559C54.302 4.0559 58.2844 8.03834 58.2844 12.9334C58.2844 17.8285 54.302 21.8109 49.4069 21.8109C48.7548 21.8109 48.1271 21.7169 47.5151 21.5808C47.6277 21.3957 47.7364 21.2087 47.8382 21.0187C47.9724 21.0315 48.1036 21.0491 48.2583 21.0677ZM49.8427 13.9204L54.1434 18.1653C54.1463 18.1673 54.4479 18.4336 54.441 18.7558C54.4381 18.9428 54.3304 19.123 54.1199 19.2894C53.2944 19.9426 53.0457 20.1404 52.135 20.44C51.43 20.6701 50.4282 20.7191 49.969 20.3989C49.8133 20.2892 49.734 20.1472 49.7281 19.9631C49.7007 19.168 49.8104 15.0984 49.8427 13.9204ZM49.9357 5.2094C50.0415 5.10757 50.1923 5.05665 50.3812 5.05665C50.4282 5.05665 50.4792 5.05959 50.5301 5.06644C51.571 5.19374 51.8863 5.23193 52.7402 5.67257C53.4031 6.01431 54.1463 6.69878 54.2442 7.25399C54.2765 7.442 54.2325 7.59867 54.1081 7.73184C53.5715 8.31251 50.6525 11.1062 49.8015 11.9189C49.8006 11.918 49.8006 11.918 49.7996 11.917L49.7301 5.84491C49.7301 5.84001 49.7026 5.43364 49.9357 5.2094ZM50.4087 13.3212L56.422 13.2497C56.4278 13.2507 56.8215 13.2213 57.0428 13.4524C57.173 13.5875 57.222 13.7922 57.1897 14.0614C57.0634 15.1151 57.0252 15.4323 56.5904 16.295C56.2506 16.9677 55.572 17.7198 55.0227 17.8157C54.8376 17.85 54.6868 17.803 54.5556 17.6796C53.9808 17.1352 51.2067 14.1741 50.4087 13.3212ZM50.392 12.4947L54.5948 8.14507C54.5977 8.14213 54.8562 7.84445 55.1686 7.84445C55.1715 7.84445 55.1745 7.84445 55.1774 7.84445C55.3615 7.84739 55.5387 7.95706 55.7032 8.16955C56.3515 9.0058 56.5463 9.25745 56.8421 10.1779C57.0722 10.8976 57.1182 11.918 56.7951 12.3782C56.6883 12.53 56.5493 12.6073 56.3711 12.6132C55.5838 12.6416 51.5543 12.528 50.392 12.4947ZM48.3915 12.5104C48.3788 12.5192 48.3631 12.527 48.3504 12.5358L42.4007 12.5966C42.3997 12.5956 42.0022 12.624 41.7809 12.3929C41.6516 12.2577 41.6026 12.0531 41.6359 11.7838C41.7632 10.7321 41.8014 10.4149 42.2381 9.55023C42.5789 8.8785 43.2585 8.12744 43.8078 8.03246C43.846 8.02659 43.8822 8.02267 43.9175 8.02267C44.0536 8.02267 44.1711 8.07065 44.2739 8.16955C44.8448 8.71105 47.569 11.6281 48.3915 12.5104ZM46.529 13.3124C45.3315 13.6942 43.7393 14.0487 41.8083 14.3484C41.822 14.0007 41.8856 13.6854 42.0286 13.4818C42.1353 13.33 42.2744 13.2526 42.4536 13.2467C42.5378 13.2438 42.6592 13.2428 42.81 13.2428C43.6002 13.2428 45.1914 13.2781 46.529 13.3124ZM23.596 47.9185C24.3598 49.2522 25.5358 50.1159 26.9537 50.5507C26.9106 51.7228 26.8646 52.5355 26.8323 52.7362C26.6501 53.3042 26.1977 53.4286 25.3448 53.6166C25.0423 53.6831 24.7348 53.7556 24.4802 53.8437C23.8623 51.7629 23.4687 49.8211 23.596 47.9185ZM28.8122 56.6785C24.8827 56.6785 22.5561 55.9539 22.3583 55.6249C22.417 55.5064 22.9282 55.1334 24.6476 54.8122C24.9512 54.7054 25.2597 54.6379 25.5564 54.5723C26.422 54.3813 27.4031 54.1649 27.7645 53.0359C27.8036 52.9135 27.8565 52.1693 27.9055 51.051C28.4431 52.0821 29.9501 54.5772 32.3227 55.4447C32.9768 55.6837 33.6358 55.7767 34.2674 55.7767C34.5377 55.7767 34.802 55.7581 35.0606 55.7277C34.3976 56.137 32.2062 56.6785 28.8122 56.6785ZM29.7082 49.3159C28.8436 49.5959 28.2002 49.9416 27.9417 50.0924C28.0827 46.0022 28.1307 38.8139 27.5148 36.0388C27.6969 36.0466 27.8781 36.0613 28.0621 36.0613H29.5603C29.7611 36.0613 29.9579 36.0466 30.1557 36.0368C29.6769 38.6954 29.6357 45.1621 29.7082 49.3159ZM32.5616 54.7936C30.4876 54.0366 29.1021 51.807 28.5704 50.816L37.7348 54.1649C36.8515 54.6173 34.6395 55.5544 32.5616 54.7936ZM37.7612 53.878L36.2415 53.3228L37.0337 52.6961C37.3558 53.1602 37.5967 53.5725 37.7612 53.878ZM36.8691 52.4719L35.935 53.2112L34.899 52.8332L36.2464 51.7081C36.4745 51.9627 36.6841 52.2182 36.8691 52.4719ZM36.0603 51.5015L34.5984 52.7225L33.3244 52.2574L35.0821 50.6368C35.4385 50.8993 35.7656 51.1901 36.0603 51.5015ZM33.77 49.9014C34.1567 50.0424 34.5102 50.2481 34.849 50.4743L33.0316 52.1497L31.6666 51.6503L33.7327 49.8907C33.7445 49.8956 33.7572 49.8965 33.77 49.9014ZM33.4057 49.8055L31.367 51.5416L30.0969 51.0775L31.6803 49.642C32.2404 49.6038 32.8231 49.6478 33.4057 49.8055ZM31.223 49.6821L29.8022 50.9698L28.5958 50.5291C29.1148 50.2638 30.0832 49.8427 31.223 49.6821ZM39.2976 25.2469C39.277 25.2469 39.2574 25.2489 39.2369 25.2518L39.1057 25.2528C38.8383 25.2558 38.6219 25.4741 38.6219 25.7424V27.9133C38.6219 31.8654 34.5572 35.0801 29.5603 35.0801H28.0621C23.0652 35.0801 19.0015 31.8654 19.0015 27.9133V25.8727C20.4106 25.9892 22.0909 26.091 23.641 26.091C24.2746 26.091 24.8866 26.0734 25.4506 26.0332L25.4105 25.48C23.3776 25.623 20.6848 25.4604 18.6735 25.2861C18.6245 25.2685 18.5736 25.2538 18.5178 25.2528L18.3876 25.2518C18.367 25.2489 18.3464 25.2469 18.3269 25.2469C18.2182 25.244 18.1163 25.2323 18.0096 25.2264C17.6257 25.1901 17.284 25.1549 16.9863 25.1236C15.0622 24.8347 13.4387 24.018 12.1578 22.6687C10.2092 20.6163 9.35927 17.7149 8.98717 15.4284C11.6389 17.096 20.3695 18.0615 28.8622 18.0615C37.2393 18.0615 45.8475 17.1215 48.6245 15.496C47.9685 19.4148 45.8857 25.0971 39.2976 25.2469ZM49.4128 22.5443C48.6069 22.5443 47.8265 22.4366 47.0793 22.2476C47.1782 22.1086 47.2713 21.9666 47.3633 21.8236C48.0243 21.9783 48.7048 22.0841 49.4128 22.0841C54.4606 22.0841 58.5684 17.9773 58.5684 12.9295C58.5684 7.88166 54.4616 3.77486 49.4128 3.77486C44.364 3.77486 40.2582 7.88166 40.2582 12.9295C40.2582 13.4837 40.3277 14.0184 40.4256 14.5452C40.2719 14.5657 40.125 14.5873 39.9674 14.6059C39.8675 14.0595 39.798 13.5043 39.798 12.9295C39.798 7.62805 44.1104 3.31464 49.4118 3.31464C54.7133 3.31464 59.0267 7.62805 59.0267 12.9295C59.0267 18.2309 54.7142 22.5443 49.4128 22.5443Z" fill="#181A26"/>
<path d="M13.6482 15.3795C13.6276 15.4 13.6071 15.4206 13.5875 15.4402C13.2712 15.7565 13.7618 16.2471 14.0781 15.9308C14.0986 15.9102 14.1192 15.8896 14.1388 15.8701C14.4551 15.5538 13.9645 15.0632 13.6482 15.3795Z" fill="#181A26"/>
<path d="M15.9738 16.0737C15.9533 16.0737 15.9327 16.0737 15.9131 16.0737C15.4666 16.0737 15.4656 16.768 15.9131 16.768C15.9337 16.768 15.9543 16.768 15.9738 16.768C16.4204 16.768 16.4213 16.0737 15.9738 16.0737Z" fill="#181A26"/>
<path d="M19.83 16.3792C19.8095 16.3792 19.7889 16.3792 19.7693 16.3792C19.3228 16.3792 19.3218 17.0734 19.7693 17.0734C19.7899 17.0734 19.8105 17.0734 19.83 17.0734C20.2766 17.0734 20.2775 16.3792 19.83 16.3792Z" fill="#181A26"/>
<path d="M24.5595 16.9265C24.539 16.9265 24.5184 16.9265 24.4988 16.9265C24.0523 16.9265 24.0513 17.6208 24.4988 17.6208C24.5194 17.6208 24.54 17.6208 24.5595 17.6208C25.0061 17.6208 25.007 16.9265 24.5595 16.9265Z" fill="#181A26"/>
<path d="M35.4365 17.0333C35.457 17.0127 35.4776 16.9922 35.4972 16.9726C35.8135 16.6563 35.3229 16.1657 35.0066 16.482C34.986 16.5026 34.9655 16.5231 34.9459 16.5427C34.6296 16.859 35.1202 17.3496 35.4365 17.0333Z" fill="#181A26"/>
<path d="M40.2092 16.5839C40.2297 16.5839 40.2503 16.5839 40.2699 16.5839C40.7164 16.5839 40.7174 15.8896 40.2699 15.8896C40.2493 15.8896 40.2287 15.8896 40.2092 15.8896C39.7626 15.8896 39.7626 16.5839 40.2092 16.5839Z" fill="#181A26"/>
<path d="M30.7492 17.145C30.7698 17.1245 30.7903 17.1039 30.8099 17.0843C31.1262 16.768 30.6356 16.2765 30.3193 16.5937C30.2988 16.6143 30.2782 16.6349 30.2586 16.6545C29.9423 16.9707 30.4329 17.4613 30.7492 17.145Z" fill="#181A26"/>
<path d="M9.83716 14.4503C9.8166 14.4708 9.79604 14.4914 9.77645 14.511C9.46017 14.8273 9.95075 15.3179 10.267 15.0016C10.2876 14.981 10.3082 14.9604 10.3277 14.9409C10.644 14.6246 10.1534 14.134 9.83716 14.4503Z" fill="#181A26"/>
<path d="M43.3154 16.349C43.3359 16.3284 43.3565 16.3079 43.3761 16.2883C43.6924 15.972 43.2018 15.4814 42.8855 15.7977C42.8649 15.8183 42.8444 15.8388 42.8248 15.8584C42.5085 16.1747 42.9991 16.6653 43.3154 16.349Z" fill="#181A26"/>
<path d="M46.957 15.5528C46.9775 15.5323 46.9981 15.5117 47.0177 15.4921C47.334 15.1758 46.8434 14.6853 46.5271 15.0015C46.5065 15.0221 46.486 15.0427 46.4664 15.0623C46.1501 15.3785 46.6407 15.8691 46.957 15.5528Z" fill="#181A26"/>
</svg>
