<svg width="60" height="60" viewBox="0 0 60 60" fill="none" xmlns="http://www.w3.org/2000/svg">
<path d="M29.9675 27.223C29.969 26.9792 29.9174 26.7202 29.8301 26.4518V26.4399H29.8261C29.3186 24.9022 27.4752 23.0072 25.5881 21.1733C25.3308 20.9232 25.1028 20.7016 24.9217 20.5189C23.8146 19.399 23.813 18.8494 23.7947 14.5685C23.7923 13.9745 23.7892 13.3113 23.7836 12.5679C23.7693 10.8508 23.7709 10.1391 23.7725 9.10662L23.7741 6.0957C24.114 5.90191 24.3459 5.53974 24.3459 5.12119V4.32457C24.3459 3.89649 24.1037 3.52876 23.751 3.33814V1.70521C23.751 0.748958 22.5843 0 21.0951 0H19.8363C18.3471 0 17.1804 0.748958 17.1804 1.70521V3.3572C16.8476 3.55338 16.622 3.91078 16.622 4.32457V5.12119C16.622 5.60328 16.9286 6.0131 17.3567 6.17274L17.3583 9.10662C17.3599 10.1391 17.3615 10.8508 17.3472 12.5679C17.3408 13.3113 17.3384 13.9745 17.3361 14.5685C17.3186 18.8494 17.3162 19.399 16.209 20.5189C16.028 20.7016 15.8008 20.9224 15.5435 21.1725C13.6564 23.0072 11.8122 24.903 11.3047 26.4407H11.3031V26.4446C11.2141 26.7163 11.1617 26.9776 11.1625 27.2238C11.1871 31.2791 11.1998 35.4845 11.2006 40.0935C11.1959 40.0935 11.1919 40.0935 11.1871 40.0935C7.14213 40.0935 2.78896 40.9067 2.78896 42.693C2.78896 42.7525 2.80564 42.8073 2.81517 42.8645C2.79134 43.0583 2.76831 43.2497 2.75401 43.4713L2.17026 52.3849C2.15675 52.5883 2.13372 52.7987 2.11148 53.0108C2.05827 53.5048 2.00267 54.0155 2.05033 54.5135C2.43712 58.5775 7.02617 60 11.6025 60C12.0322 60 12.4619 59.9873 12.8884 59.9627C14.3768 59.8785 16.4195 59.5981 18.0937 58.7864H26.1536L26.2386 58.7404C26.8612 58.4028 29.9659 56.646 29.9611 55.1925C29.9168 43.9089 29.9184 35.2828 29.9675 27.223ZM29.1851 52.547H26.0233V52.5462V30.2887H29.1844C29.1552 36.8331 29.1552 43.9065 29.1851 52.547ZM29.0636 29.5223H26.0233V27.2055H29.0636V29.5223ZM25.0544 21.7222C26.2751 22.9087 28.3742 24.9523 29.0088 26.4399H25.9256L24.4547 21.1344C24.6265 21.3052 24.8256 21.4998 25.0544 21.7222ZM21.0054 53.3126H25.5857V55.1052H21.0276C21.1078 54.5127 21.0737 53.9099 21.0054 53.3126ZM20.9055 52.547C20.9015 52.5168 20.8976 52.4858 20.8928 52.4556C20.8507 52.1641 20.8094 51.8758 20.7784 51.5947L19.8015 42.6501L19.7849 42.6517C19.7388 41.5342 17.8263 40.7725 15.3006 40.3873V30.2887H25.5851V52.547H20.9055ZM15.3012 29.5223V27.2055H25.5857V29.5223H15.3012ZM17.946 1.70441C17.946 1.26123 18.7545 0.764842 19.8363 0.764842H21.0951C22.1769 0.764842 22.9854 1.26123 22.9854 1.70441V3.19756H17.946V1.70441ZM17.3942 4.32378C17.3942 4.1284 17.5531 3.96955 17.7477 3.96955H23.2207C23.4153 3.96955 23.5741 4.1284 23.5741 4.32378V5.12039C23.5741 5.31498 23.4153 5.47382 23.2207 5.47382H17.7477C17.5531 5.47382 17.3942 5.31498 17.3942 5.12039V4.32378ZM19.629 6.24661H20.1405L19.3312 9.3584H18.8197L19.629 6.24661ZM18.3672 9.3584H18.1241C18.1241 9.275 18.1241 9.1924 18.1233 9.10504L18.1217 6.2474H19.1763L18.3672 9.3584ZM20.5934 6.24661H21.1049L20.2955 9.3584H19.7841L20.5934 6.24661ZM21.5568 6.24581H22.0683L21.2589 9.3576H20.7475L21.5568 6.24581ZM18.0366 17.8995H20.8394V17.4611H18.0604C18.0922 16.713 18.0969 15.7837 18.1017 14.5701C18.1041 13.9768 18.1072 13.3144 18.1128 12.5726C18.1239 11.255 18.1255 10.5275 18.1247 9.79522H22.0419V9.35681H21.7115L22.5208 6.24502H23.0084L23.0068 9.10265C23.0053 10.1367 23.0037 10.8508 23.018 12.5718C23.0243 13.3144 23.0267 13.9768 23.0291 14.5693C23.0442 18.1545 23.0505 19.3212 23.79 20.3696L25.4721 26.4383H15.4299L17.3003 20.4244C17.7665 19.7874 17.9573 19.1155 18.0366 17.8995ZM16.0772 21.7206C16.2734 21.5307 16.4433 21.3632 16.5982 21.2099L14.9724 26.4399H12.1211C12.7557 24.9523 14.8559 22.9079 16.0772 21.7206ZM12.0689 27.2055H14.863V29.5223H12.0689V27.2055ZM14.8628 30.2887V40.3246C13.9455 40.2031 12.963 40.1276 11.9663 40.1022C11.9663 36.6394 11.9583 33.4029 11.9448 30.2887H14.8628ZM11.1873 40.8647C15.9686 40.8647 19.0192 41.9472 19.0192 42.6922C19.0192 42.8327 18.9104 42.9852 18.7023 43.1401C18.2155 42.0075 14.6176 41.4 11.2151 41.4C7.89128 41.4 4.38873 41.9813 3.77241 43.0631C3.68902 42.9844 3.62469 42.9066 3.59212 42.8304C3.5953 42.8089 3.5953 42.7819 3.59927 42.7605L3.57544 42.7565C3.57147 42.7351 3.56035 42.7128 3.56035 42.6922C3.56095 41.9289 6.46227 40.8647 11.1873 40.8647ZM18.3161 43.3689C17.1573 43.9598 14.623 44.5189 11.1871 44.5189C7.683 44.5197 5.18515 43.9335 4.12723 43.3196C4.34088 42.6739 6.99361 41.8368 11.2157 41.8368C15.5459 41.8368 18.2272 42.7176 18.3161 43.3689ZM3.50456 43.8287C4.9024 44.8263 8.13094 45.2917 11.1871 45.2917C14.476 45.2917 17.7872 44.7611 19.1445 43.7406L19.3097 45.252C18.5409 45.9437 15.5506 46.5815 11.3785 46.5815C7.15007 46.5815 4.13041 45.9271 3.41322 45.2242L3.50456 43.8287ZM2.82728 54.4865C3.34353 54.1815 4.52137 53.7979 6.20196 53.5064C6.60066 53.8717 7.12485 54.0909 7.68081 54.0909C7.85078 54.0909 8.02312 54.0711 8.19468 54.0298L10.4074 53.4961C10.575 53.4556 10.7283 53.3896 10.8752 53.3134C11.0571 53.8304 11.428 54.2816 11.9546 54.546L13.9878 55.569C14.2967 55.7247 14.6311 55.8025 14.9679 55.8025C15.2006 55.8025 15.4349 55.7652 15.6628 55.6897C16.2204 55.5047 16.6731 55.1163 16.9352 54.5945L17.8898 52.6963C18.4331 51.6153 17.9963 50.2929 16.9153 49.7489L14.8821 48.7259C14.3595 48.4638 13.7654 48.4209 13.2078 48.6052C12.6495 48.7903 12.1976 49.1786 11.9355 49.7004L11.8108 49.9482L11.5296 48.7815C11.2461 47.6053 10.0571 46.877 8.88168 47.1621L6.66896 47.6958C5.49271 47.9794 4.76599 49.1675 5.04953 50.3438L5.54751 52.4096C5.6317 52.7598 5.80008 53.0672 6.02087 53.3229C4.56664 53.581 3.4301 53.9162 2.81775 54.2577C2.80345 53.8852 2.83602 53.4865 2.87891 53.0934C2.90273 52.8702 2.92656 52.6494 2.94086 52.4358L3.39674 45.4783C4.50628 46.3154 7.98738 46.7999 11.3787 46.7999C14.7431 46.7999 18.1988 46.3234 19.3369 45.499L20.012 51.6789C20.0438 51.9688 20.0867 52.2658 20.1296 52.5652C20.2106 53.1267 20.2868 53.7002 20.2971 54.2553C19.7515 53.9527 18.7913 53.6541 17.5682 53.4111C17.5713 53.4818 17.5515 53.5532 17.5197 53.6192C18.8993 53.8964 19.8571 54.2299 20.2995 54.4992C20.2955 54.6795 20.286 54.859 20.2606 55.0329C20.2566 55.0599 20.2479 55.0829 20.2431 55.1099C19.2345 55.6778 16.0154 56.4998 11.5543 56.4998C7.22175 56.4998 4.06231 55.7239 2.95992 55.1592C2.90273 54.9447 2.8525 54.7239 2.82728 54.4865ZM10.5488 51.8949C10.7791 50.2604 10.463 48.5536 9.06198 47.5783C9.17396 47.5568 9.28595 47.5386 9.39635 47.5386C10.189 47.5386 10.9109 48.0802 11.1047 48.884L11.5074 50.5527L10.9816 51.5979C10.7759 52.0069 10.7116 52.4501 10.7688 52.8734C10.6266 52.9576 10.4757 53.0291 10.3073 53.0704L8.09302 53.6049C7.63951 53.7145 7.16695 53.639 6.76586 53.3936C6.36398 53.1482 6.08203 52.7622 5.97322 52.3087L5.47524 50.2429C5.24809 49.3009 5.82946 48.3495 6.77142 48.1223L8.77446 47.6386C10.2462 48.5345 10.5631 50.2342 10.3375 51.8369C10.3182 51.9743 10.5287 52.0339 10.5488 51.8949ZM11.9696 50.6075L12.327 49.8974C12.5367 49.4804 12.8989 49.1683 13.346 49.0206C13.5295 48.9602 13.7169 48.93 13.9036 48.93C14.1728 48.93 14.4405 48.9928 14.6867 49.1167L16.5277 50.0428C17.0646 51.6948 16.2132 53.1863 14.9917 54.2696C14.8861 54.3634 15.0417 54.5174 15.1466 54.4245C16.3768 53.3332 17.2203 51.8274 16.7851 50.181C17.5999 50.6368 17.924 51.6566 17.5007 52.4985L16.546 54.3967C16.3363 54.8137 15.9741 55.1258 15.527 55.2735C15.0806 55.4221 14.6041 55.3879 14.1863 55.1767L12.1531 54.1537C11.2882 53.7184 10.9379 52.6597 11.3732 51.794L11.9657 50.6162C11.9681 50.617 11.9712 50.6162 11.9736 50.617L11.9696 50.6075ZM12.8439 59.1931C11.3674 59.278 4.40998 59.4432 3.03914 55.4348C4.4767 56.1027 7.86011 56.719 11.5541 56.719C15.356 56.719 18.8221 56.067 20.1826 55.376C19.463 58.3599 15.3187 59.0533 12.8439 59.1931ZM25.9582 58.0208H19.3312C20.0253 57.4696 20.5717 56.7683 20.8561 55.8716H28.8492C28.2482 56.5832 26.9716 57.4609 25.9582 58.0208ZM26.0233 55.1052V53.3126H29.1875C29.1899 53.9035 29.1923 54.5 29.1947 55.1052H26.0233Z" fill="#181A26"/>
<path d="M31.0323 27.223C31.0307 26.9792 31.0823 26.7202 31.1697 26.4518V26.4399H31.1737C31.6812 24.9022 33.5246 23.0072 35.4117 21.1733C35.669 20.9232 35.8969 20.7016 36.078 20.5189C37.1852 19.399 37.1868 18.8494 37.205 14.5685C37.2074 13.9745 37.2106 13.3113 37.2162 12.5679C37.2305 10.8508 37.2289 10.1391 37.2273 9.10662L37.2257 6.0957C36.8858 5.90191 36.6538 5.53974 36.6538 5.12119V4.32457C36.6538 3.89649 36.8961 3.52876 37.2487 3.33814V1.70521C37.2487 0.748958 38.4154 0 39.9046 0H41.1635C42.6527 0 43.8194 0.748958 43.8194 1.70521V3.3572C44.1522 3.55338 44.3777 3.91078 44.3777 4.32457V5.12119C44.3777 5.60328 44.0711 6.0131 43.6431 6.17274L43.6415 9.10662C43.6399 10.1391 43.6383 10.8508 43.6526 12.5679C43.6589 13.3113 43.6613 13.9745 43.6637 14.5685C43.6812 18.8494 43.6836 19.399 44.7907 20.5189C44.9718 20.7016 45.1989 20.9224 45.4563 21.1725C47.3434 23.0072 49.1876 24.903 49.6951 26.4407H49.6967V26.4446C49.7856 26.7163 49.838 26.9776 49.8372 27.2238C49.8126 31.2791 49.7999 35.4845 49.7991 40.0935C49.8039 40.0935 49.8079 40.0935 49.8126 40.0935C53.8576 40.0935 58.2108 40.9067 58.2108 42.693C58.2108 42.7525 58.1941 42.8073 58.1846 42.8645C58.2084 43.0583 58.2314 43.2497 58.2457 43.4713L58.8295 52.3849C58.843 52.5883 58.866 52.7987 58.8883 53.0108C58.9415 53.5048 58.9971 54.0155 58.9494 54.5135C58.5626 58.5775 53.9736 60 49.3972 60C48.9676 60 48.5379 59.9873 48.1114 59.9627C46.623 59.8785 44.5802 59.5981 42.906 58.7864H34.8462L34.7612 58.7404C34.1385 58.4028 31.0339 56.646 31.0386 55.1925C31.0829 43.9089 31.0813 35.2828 31.0323 27.223ZM31.8146 52.547H34.9764V52.5462V30.2887H31.8154C31.8446 36.8331 31.8446 43.9065 31.8146 52.547ZM31.9361 29.5223H34.9764V27.2055H31.9361V29.5223ZM35.9454 21.7222C34.7247 22.9087 32.6255 24.9523 31.9909 26.4399H35.0741L36.545 21.1344C36.3733 21.3052 36.1741 21.4998 35.9454 21.7222ZM39.9944 53.3126H35.4141V55.1052H39.9721C39.8919 54.5127 39.9261 53.9099 39.9944 53.3126ZM40.0942 52.547C40.0982 52.5168 40.1022 52.4858 40.107 52.4556C40.149 52.1641 40.1903 51.8758 40.2213 51.5947L41.1982 42.6501L41.2149 42.6517C41.261 41.5342 43.1735 40.7725 45.6991 40.3873V30.2887H35.4146V52.547H40.0942ZM45.6985 29.5223V27.2055H35.4141V29.5223H45.6985ZM43.0537 1.70441C43.0537 1.26123 42.2452 0.764842 41.1635 0.764842H39.9046C38.8229 0.764842 38.0144 1.26123 38.0144 1.70441V3.19756H43.0537V1.70441ZM43.6055 4.32378C43.6055 4.1284 43.4467 3.96955 43.2521 3.96955H37.7791C37.5845 3.96955 37.4256 4.1284 37.4256 4.32378V5.12039C37.4256 5.31498 37.5845 5.47382 37.7791 5.47382H43.2521C43.4467 5.47382 43.6055 5.31498 43.6055 5.12039V4.32378ZM41.3708 6.24661H40.8593L41.6686 9.3584H42.1801L41.3708 6.24661ZM42.6326 9.3584H42.8756C42.8756 9.275 42.8756 9.1924 42.8764 9.10504L42.878 6.2474H41.8235L42.6326 9.3584ZM40.4064 6.24661H39.8949L40.7042 9.3584H41.2157L40.4064 6.24661ZM39.443 6.24581H38.9315L39.7408 9.3576H40.2523L39.443 6.24581ZM42.9632 17.8995H40.1604V17.4611H42.9394C42.9076 16.713 42.9028 15.7837 42.8981 14.5701C42.8957 13.9768 42.8925 13.3144 42.8869 12.5726C42.8758 11.255 42.8742 10.5275 42.875 9.79522H38.9579V9.35681H39.2883L38.479 6.24502H37.9913L37.9929 9.10265C37.9945 10.1367 37.9961 10.8508 37.9818 12.5718C37.9754 13.3144 37.9731 13.9768 37.9707 14.5693C37.9556 18.1545 37.9492 19.3212 37.2098 20.3696L35.5276 26.4383H45.5699L43.6994 20.4244C43.2332 19.7874 43.0424 19.1155 42.9632 17.8995ZM44.9226 21.7206C44.7264 21.5307 44.5564 21.3632 44.4015 21.2099L46.0273 26.4399H48.8786C48.244 24.9523 46.1439 22.9079 44.9226 21.7206ZM48.9308 27.2055H46.1367V29.5223H48.9308V27.2055ZM46.1369 30.2887V40.3246C47.0543 40.2031 48.0367 40.1276 49.0335 40.1022C49.0335 36.6394 49.0414 33.4029 49.0549 30.2887H46.1369ZM49.8124 40.8647C45.0312 40.8647 41.9805 41.9472 41.9805 42.6922C41.9805 42.8327 42.0893 42.9852 42.2974 43.1401C42.7843 42.0075 46.3822 41.4 49.7846 41.4C53.1085 41.4 56.611 41.9813 57.2273 43.0631C57.3107 42.9844 57.3751 42.9066 57.4076 42.8304C57.4045 42.8089 57.4045 42.7819 57.4005 42.7605L57.4243 42.7565C57.4283 42.7351 57.4394 42.7128 57.4394 42.6922C57.4388 41.9289 54.5375 40.8647 49.8124 40.8647ZM42.6836 43.3689C43.8424 43.9598 46.3768 44.5189 49.8126 44.5189C53.3168 44.5197 55.8146 43.9335 56.8725 43.3196C56.6589 42.6739 54.0061 41.8368 49.784 41.8368C45.4539 41.8368 42.7726 42.7176 42.6836 43.3689ZM57.4952 43.8287C56.0974 44.8263 52.8688 45.2917 49.8126 45.2917C46.5237 45.2917 43.2126 44.7611 41.8552 43.7406L41.69 45.252C42.4589 45.9437 45.4491 46.5815 49.6212 46.5815C53.8497 46.5815 56.8693 45.9271 57.5865 45.2242L57.4952 43.8287ZM58.1725 54.4865C57.6562 54.1815 56.4784 53.7979 54.7978 53.5064C54.3991 53.8717 53.8749 54.0909 53.3189 54.0909C53.149 54.0909 52.9766 54.0711 52.8051 54.0298L50.5924 53.4961C50.4248 53.4556 50.2715 53.3896 50.1246 53.3134C49.9427 53.8304 49.5718 54.2816 49.0452 54.546L47.012 55.569C46.703 55.7247 46.3687 55.8025 46.0319 55.8025C45.7992 55.8025 45.5649 55.7652 45.3369 55.6897C44.7794 55.5047 44.3267 55.1163 44.0646 54.5945L43.1099 52.6963C42.5667 51.6153 43.0035 50.2929 44.0844 49.7489L46.1177 48.7259C46.6403 48.4638 47.2344 48.4209 47.7919 48.6052C48.3503 48.7903 48.8022 49.1786 49.0643 49.7004L49.189 49.9482L49.4701 48.7815C49.7537 47.6053 50.9426 46.877 52.1181 47.1621L54.3308 47.6958C55.507 47.9794 56.2338 49.1675 55.9502 50.3438L55.4522 52.4096C55.3681 52.7598 55.1997 53.0672 54.9789 53.3229C56.4331 53.581 57.5697 53.9162 58.182 54.2577C58.1963 53.8852 58.1637 53.4865 58.1208 53.0934C58.097 52.8702 58.0732 52.6494 58.0589 52.4358L57.603 45.4783C56.4935 46.3154 53.0124 46.7999 49.621 46.7999C46.2567 46.7999 42.801 46.3234 41.6628 45.499L40.9877 51.6789C40.956 51.9688 40.9131 52.2658 40.8702 52.5652C40.7892 53.1267 40.7129 53.7002 40.7026 54.2553C41.2483 53.9527 42.2085 53.6541 43.4316 53.4111C43.4284 53.4818 43.4483 53.5532 43.48 53.6192C42.1005 53.8964 41.1426 54.2299 40.7002 54.4992C40.7042 54.6795 40.7137 54.859 40.7392 55.0329C40.7431 55.0599 40.7519 55.0829 40.7566 55.1099C41.7653 55.6778 44.9843 56.4998 49.4455 56.4998C53.778 56.4998 56.9374 55.7239 58.0398 55.1592C58.097 54.9447 58.1473 54.7239 58.1725 54.4865ZM50.451 51.8949C50.2207 50.2604 50.5368 48.5536 51.9378 47.5783C51.8258 47.5568 51.7138 47.5386 51.6034 47.5386C50.8108 47.5386 50.0888 48.0802 49.895 48.884L49.4923 50.5527L50.0181 51.5979C50.2238 52.0069 50.2882 52.4501 50.231 52.8734C50.3731 52.9576 50.5241 53.0291 50.6924 53.0704L52.9067 53.6049C53.3602 53.7145 53.8328 53.639 54.2339 53.3936C54.6358 53.1482 54.9177 52.7622 55.0265 52.3087L55.5245 50.2429C55.7517 49.3009 55.1703 48.3495 54.2283 48.1223L52.2253 47.6386C50.7536 48.5345 50.4367 50.2342 50.6622 51.8369C50.6815 51.9743 50.471 52.0339 50.451 51.8949ZM49.0301 50.6075L48.6727 49.8974C48.463 49.4804 48.1009 49.1683 47.6537 49.0206C47.4702 48.9602 47.2828 48.93 47.0962 48.93C46.8269 48.93 46.5593 48.9928 46.3131 49.1167L44.472 50.0428C43.9351 51.6948 44.7865 53.1863 46.0081 54.2696C46.1137 54.3634 45.958 54.5174 45.8532 54.4245C44.6229 53.3332 43.7795 51.8274 44.2147 50.181C43.3998 50.6368 43.0758 51.6566 43.4991 52.4985L44.4538 54.3967C44.6634 54.8137 45.0256 55.1258 45.4728 55.2735C45.9191 55.4221 46.3957 55.3879 46.8134 55.1767L48.8466 54.1537C49.7116 53.7184 50.0618 52.6597 49.6266 51.794L49.0341 50.6162C49.0317 50.617 49.0285 50.6162 49.0261 50.617L49.0301 50.6075ZM48.1559 59.1931C49.6323 59.278 56.5898 59.4432 57.9606 55.4348C56.5231 56.1027 53.1396 56.719 49.4457 56.719C45.6437 56.719 42.1777 56.067 40.8172 55.376C41.5368 58.3599 45.681 59.0533 48.1559 59.1931ZM35.0416 58.0208H41.6686C40.9744 57.4696 40.428 56.7683 40.1437 55.8716H32.1506C32.7516 56.5832 34.0281 57.4609 35.0416 58.0208ZM34.9764 55.1052V53.3126H31.8122C31.8098 53.9035 31.8075 54.5 31.8051 55.1052H34.9764Z" fill="#181A26"/>
</svg>
