<svg width="60" height="60" viewBox="0 0 60 60" fill="none" xmlns="http://www.w3.org/2000/svg">
<g clip-path="url(#clip0_514_320)">
<path d="M37.7617 43.9797C35.5839 43.3123 32.2926 42.3051 31.5962 39.81C31.3361 38.8817 31.3394 32.2935 31.4062 27.8469C35.5598 27.8026 39.4186 27.5941 42.408 27.2463C47.9842 26.5974 47.9842 25.7754 47.9842 25.38L47.9753 25.285L47.9842 23.0203C47.9842 23.009 47.9842 22.9985 47.9842 22.9881V22.9865C47.9842 22.5911 47.9842 21.7691 42.408 21.1202C39.0266 20.7273 34.534 20.5107 29.7581 20.5107C24.9814 20.5107 20.4897 20.7273 17.1082 21.1202C11.5313 21.7691 11.5312 22.5911 11.5312 22.9865V25.38C11.5312 25.7754 11.5313 26.5974 17.1082 27.2463C20.0976 27.5941 23.9557 27.8026 28.1093 27.8469C28.1761 32.2935 28.1793 38.8817 27.9193 39.81C27.2228 42.3043 23.9324 43.3123 21.7545 43.9789C20.2256 44.4475 19.3835 44.7051 19.3835 45.3701C19.3811 45.4313 19.3746 45.5964 19.472 45.7445C19.5558 45.9224 19.6725 45.9804 19.6677 45.9756C20.6121 46.676 25.5595 46.9956 29.7573 46.9956C33.9544 46.9956 38.9018 46.6768 39.8123 45.9989C39.9661 45.9071 40.1312 45.6938 40.1312 45.3725C40.1328 44.7067 39.2906 44.4483 37.7617 43.9797ZM29.7581 21.3167C39.9452 21.3167 46.3321 22.278 47.13 22.9816C47.1139 22.9969 47.0986 23.0122 47.0777 23.0275C47.0487 23.0484 47.0165 23.0702 46.9778 23.0919C46.9335 23.1169 46.8804 23.141 46.824 23.166C46.7749 23.1877 46.7234 23.2095 46.6646 23.2312C46.5962 23.257 46.5181 23.2827 46.4368 23.3085C46.3675 23.3302 46.2983 23.3528 46.2202 23.3745C46.1276 23.4003 46.0246 23.4268 45.9199 23.4526C45.8321 23.4744 45.7436 23.4969 45.647 23.5186C45.531 23.5452 45.403 23.571 45.2742 23.5975C45.1679 23.6193 45.0633 23.641 44.9489 23.6619C44.8088 23.6885 44.6567 23.7143 44.5045 23.74C44.3805 23.761 44.259 23.7819 44.1269 23.8028C43.9659 23.8286 43.792 23.8528 43.6197 23.8777C43.4764 23.8986 43.3355 23.9196 43.1833 23.9397C43.0006 23.9639 42.8041 23.988 42.6101 24.0114C42.4499 24.0307 42.2937 24.0508 42.1254 24.0693C41.9193 24.0927 41.6995 24.1152 41.4821 24.137C41.3058 24.1555 41.1343 24.174 40.9508 24.1909C40.7237 24.2126 40.483 24.2328 40.2447 24.2537C40.0515 24.2706 39.8639 24.2875 39.6642 24.3036C39.4154 24.3229 39.153 24.3415 38.8929 24.36C38.6852 24.3745 38.4839 24.3898 38.2697 24.4034C38 24.4212 37.715 24.4365 37.4349 24.4518C37.2126 24.4646 36.9961 24.4775 36.7666 24.4896C36.4727 24.5041 36.1644 24.517 35.8593 24.5299C35.6266 24.5395 35.4019 24.5508 35.1628 24.5596C34.8255 24.5725 34.472 24.5822 34.1218 24.5918C33.9004 24.5983 33.6871 24.6063 33.4616 24.612C33.0478 24.6224 32.6171 24.6289 32.1871 24.6353C32.01 24.6377 31.8401 24.6426 31.6598 24.645C31.0415 24.6522 30.4087 24.6563 29.7589 24.6563C29.1108 24.6563 28.4788 24.6522 27.8621 24.645C27.6262 24.6418 27.4032 24.6361 27.1721 24.6329C26.8018 24.6265 26.4266 24.6216 26.0683 24.6128C25.7318 24.6047 25.4105 24.5935 25.0853 24.583C24.8526 24.5757 24.6135 24.5693 24.3864 24.5612C23.9307 24.5443 23.4912 24.525 23.058 24.5041C22.9815 24.5001 22.9002 24.4976 22.8245 24.4936C16.6904 24.1885 12.9539 23.5138 12.3774 22.9856C13.1455 22.2836 19.5421 21.3167 29.7581 21.3167ZM12.3372 23.8737C12.367 23.8882 12.4064 23.9019 12.4386 23.9156C12.4845 23.9349 12.5312 23.9534 12.5827 23.9727C12.6431 23.9953 12.7091 24.0178 12.7768 24.0403C12.8347 24.0597 12.8927 24.0798 12.9563 24.0991C13.0296 24.1217 13.1117 24.145 13.193 24.1676C13.226 24.1764 13.2542 24.1861 13.288 24.1949L12.3372 25.3342V23.8737ZM12.7236 25.5862L13.7807 24.3181C13.8347 24.3302 13.8862 24.3431 13.9434 24.3551C14.0561 24.3801 14.1817 24.4043 14.3049 24.4292C14.3878 24.4461 14.4643 24.4622 14.552 24.4791L13.4378 25.8148C13.1439 25.7375 12.9015 25.661 12.7236 25.5862ZM13.9321 25.934L15.0713 24.5693C15.1502 24.5822 15.2235 24.5959 15.3056 24.6088C15.4835 24.6369 15.6792 24.6651 15.874 24.6925L14.7098 26.0877C14.4272 26.037 14.1664 25.9855 13.9321 25.934ZM15.2291 26.1787L16.4078 24.7657C16.634 24.7955 16.8603 24.8245 17.1091 24.8535C17.1477 24.8583 17.1904 24.8616 17.229 24.8664L16.0342 26.2979C15.7524 26.2584 15.4795 26.219 15.2291 26.1787ZM16.5704 26.3671L17.7757 24.9235C21.0718 25.2714 25.2849 25.463 29.7589 25.463C34.5348 25.463 39.0274 25.2464 42.4088 24.8527C42.7486 24.8132 43.0666 24.773 43.3661 24.7319C43.47 24.7174 43.5601 24.7029 43.66 24.6893C43.8475 24.6627 44.0368 24.6353 44.2082 24.6088C44.3137 24.5918 44.4063 24.5749 44.5053 24.558C44.6543 24.5331 44.8056 24.5081 44.9417 24.4823C45.0391 24.4638 45.1261 24.4461 45.2178 24.4276C45.3386 24.4034 45.461 24.3793 45.5713 24.3551C45.6599 24.3358 45.7388 24.3165 45.8209 24.2972C45.9191 24.2738 46.0181 24.2513 46.1075 24.2279C46.1856 24.2078 46.2548 24.1877 46.3265 24.1676C46.4054 24.145 46.4851 24.1233 46.5567 24.1007C46.6236 24.0798 46.684 24.0597 46.7443 24.0387C46.8079 24.017 46.8715 23.9953 46.9287 23.9735C46.9835 23.9526 47.0334 23.9325 47.0825 23.9123C47.1123 23.9003 47.1485 23.8874 47.1767 23.8753L47.171 25.3406L47.1718 25.3478C46.568 26.0539 40.1328 27.0506 29.7589 27.0506C24.0684 27.0523 19.5759 26.7511 16.5704 26.3671ZM29.7581 46.1905C24.8824 46.1905 21.2175 45.8008 20.2498 45.3806C20.5259 45.1986 21.3294 44.9523 21.9904 44.7494C24.3357 44.0312 27.879 42.9459 28.6946 40.0274C29.0496 38.7569 28.9466 30.0738 28.9144 27.8566H30.5995C30.5673 30.0738 30.4642 38.7569 30.8193 40.0266C31.6348 42.9451 35.1789 44.0312 37.5242 44.7494C38.1908 44.9539 39.0024 45.2018 39.2721 45.3846C38.4638 45.7831 34.7434 46.1905 29.7581 46.1905Z" fill="white"/>
<path d="M16.6448 30.8717H4.48446C4.34437 30.8717 4.21072 30.8999 4.08915 30.9514C3.98851 29.309 3.88868 27.6658 3.78885 26.0233C3.84762 26.0338 3.90237 26.058 3.96436 26.058C3.97966 26.058 3.99495 26.058 4.01025 26.0572C4.57141 26.0314 5.00698 25.5548 4.98202 24.9936L4.44179 12.8453C4.41764 12.2842 3.93055 11.8405 3.37824 11.8727C2.81708 11.8985 2.38151 12.3751 2.40647 12.9363L2.40728 12.9629C2.31469 12.9451 1.3236 12.9701 0.929097 12.9629L0 12.9516V48.093C0 48.093 1.52005 48.1317 2.0635 48.1292C2.99984 48.1244 3.05781 47.4055 3.07713 47.1623C3.23574 45.2147 3.28485 40.8978 3.31705 38.0404C3.32752 37.1194 3.33637 36.2885 3.34684 35.8239H13.3173C13.368 36.2748 13.4622 37.1242 13.5653 38.0646C13.8728 40.8647 14.3374 45.0964 14.6168 47.3088C14.6458 47.5391 14.8502 47.9924 15.2125 48.0471C15.4903 48.089 15.76 48.0817 16.0185 48.0753L16.6915 48.0705V32.9006C17.231 32.8764 17.6657 32.4369 17.6657 31.8902C17.6633 31.329 17.206 30.8717 16.6448 30.8717ZM3.39756 12.3284C3.40642 12.3284 3.41447 12.3284 3.42252 12.3284C3.72122 12.3284 3.97161 12.5643 3.98449 12.8654L4.52472 25.0137C4.53921 25.3237 4.29848 25.5862 3.98851 25.6007C3.9072 25.6039 3.82991 25.5902 3.75986 25.5644C3.66566 24.0106 2.86055 12.9162 2.86055 12.9162C2.84687 12.6062 3.0876 12.3429 3.39756 12.3284ZM15.884 47.2726C15.727 47.2758 15.5773 47.2766 15.4364 47.2638C15.4243 47.2428 15.4154 47.2203 15.413 47.2082C15.1345 45.0014 14.6707 40.7738 14.3632 37.9768C14.1015 35.5945 14.0781 35.3932 14.0645 35.3328L13.9936 35.0188H2.59165C2.59165 35.0188 2.42982 45.1777 2.27282 47.0971C2.26316 47.2154 2.24787 47.2678 2.2527 47.2766C2.23498 47.2815 0.835704 47.2766 0.8035 47.2774V13.7656L0.912189 13.7672C1.32521 13.7752 1.73582 13.7825 2.14562 13.7648C2.19312 13.7631 2.22452 13.7639 2.23982 13.7615C2.24465 13.7849 2.25109 13.8243 2.25431 13.8855C2.35253 15.7026 2.46364 17.5198 2.57394 19.3361L2.67216 20.9504C2.90081 24.7311 3.4193 33.3635 3.4193 33.3635H15.884V47.2726ZM16.6448 32.453H4.48446C4.37094 32.453 4.27111 32.4111 4.18255 32.3523C4.17771 32.3161 4.16966 32.2791 4.16725 32.2428C4.15115 31.9852 4.13585 31.7276 4.12055 31.4707C4.21958 31.3854 4.34437 31.3282 4.48446 31.3282H16.6448C16.9548 31.3282 17.2068 31.5802 17.2068 31.8902C17.2068 32.2002 16.9548 32.453 16.6448 32.453Z" fill="white"/>
<path d="M59.0709 12.9628C58.6764 12.9708 58.2819 12.9781 57.889 12.9604C57.7771 12.9563 57.6837 12.974 57.5912 12.9926L57.5936 12.9362C57.6185 12.375 57.183 11.8984 56.6218 11.8727C56.0349 11.8388 55.5832 12.2841 55.5583 12.8452L55.018 24.9935C54.9931 25.5547 55.4286 26.0313 55.9898 26.0571C56.0059 26.0579 56.0204 26.0579 56.0357 26.0579C56.0977 26.0579 56.1524 26.0345 56.2112 26.0233C56.1114 27.6657 56.0123 29.3089 55.9109 30.9513C55.7893 30.8998 55.6557 30.8716 55.5156 30.8716H43.3544C42.7932 30.8716 42.3359 31.3289 42.3359 31.8909C42.3359 32.4368 42.7699 32.8764 43.3101 32.9013V48.0704L43.9832 48.0752C44.2416 48.0825 44.5105 48.0897 44.7891 48.047C45.1514 47.9923 45.3559 47.539 45.3849 47.3088C45.6643 45.0955 46.1288 40.8647 46.4364 38.0645C46.5402 37.1193 46.6336 36.2667 46.6835 35.8239H56.6548C56.6653 36.2884 56.6741 37.1201 56.6846 38.0403C56.7168 40.8969 56.7659 45.2147 56.9245 47.1614C56.943 47.4046 56.9905 48.1034 57.9535 48.0849C58.4333 48.076 60.0009 48.0929 60.0009 48.0929V12.9507L59.0709 12.9628ZM56.0357 25.6014C56.0276 25.6014 56.0188 25.6014 56.0107 25.6014C55.7008 25.5869 55.46 25.3244 55.4745 25.0145L56.0147 12.8662C56.0284 12.557 56.2659 12.3179 56.6017 12.3292C56.9116 12.3436 57.1524 12.6061 57.1379 12.9161L57.121 13.2921C57.0227 13.433 56.3336 24.0089 56.2386 25.5619C56.1758 25.5861 56.1073 25.6014 56.0357 25.6014ZM43.3544 32.4529C43.0444 32.4529 42.7924 32.2009 42.7924 31.8909C42.7924 31.5809 43.0444 31.3289 43.3544 31.3289H55.5148C55.6549 31.3289 55.7797 31.3853 55.8787 31.4714C55.8626 31.7283 55.8473 31.9859 55.832 32.2427C55.8296 32.279 55.8215 32.3168 55.8167 32.353C55.7281 32.411 55.6283 32.4529 55.5156 32.4529H43.3544ZM59.1957 47.2774C59.1635 47.2766 57.8399 47.2838 57.8182 47.2838C57.7852 47.2838 57.7651 47.283 57.7586 47.2846C57.7506 47.2637 57.7361 47.2113 57.7264 47.0962C57.5702 45.1768 57.5219 40.8759 57.4897 38.0307C57.472 36.4293 57.4607 35.018 57.4607 35.018H46.0056L45.9348 35.3319C45.9203 35.3923 45.8977 35.5936 45.6361 37.9759C45.3285 40.7737 44.8648 45.0013 44.587 47.2041C44.5838 47.2186 44.5741 47.2411 44.5629 47.2629C44.422 47.2766 44.273 47.2749 44.1152 47.2717V33.3634H56.6524C56.6524 33.3634 57.0976 24.7311 57.3271 20.9503L57.4253 19.336C57.5364 17.5197 57.6467 15.7026 57.7449 13.8854C57.749 13.8226 57.7546 13.784 57.753 13.7663C57.7731 13.7647 59.1957 13.7663 59.1957 13.7663V47.2774Z" fill="white"/>
</g>
<defs>
<clipPath id="clip0_514_320">
<rect width="60" height="60" fill="white"/>
</clipPath>
</defs>
</svg>
