<svg width="60" height="60" viewBox="0 0 60 60" fill="none" xmlns="http://www.w3.org/2000/svg">
<path d="M58.3935 33.6568L58.309 33.552C58.3081 33.5512 58.2412 33.4781 58.2632 33.4385C61.6989 27.422 57.734 22.6637 57.6944 22.6161L57.3968 22.2675L54.5844 24.9134C52.2027 12.728 41.4569 3.5144 28.6033 3.5144H28.495C21.4201 3.54258 14.7802 6.32499 9.79829 11.3474C5.34204 15.8406 2.69435 21.6467 2.20479 27.8851C1.05573 28.9637 0.412958 29.7113 0.390065 29.7386L0.140001 30.0353L2.2224 32.2621C2.35096 33.7695 2.60366 35.2505 2.97788 36.6937C1.81561 36.7087 0.836482 36.7201 0.695601 36.7219L0 36.7756L0.338995 37.4113C1.40265 39.4118 3.06241 41.12 5.28921 42.5394C6.51576 44.8146 8.06281 46.9322 9.94974 48.8042C14.9466 53.7606 21.5654 56.4858 28.5998 56.4858H28.7098C39.5304 56.4417 48.8083 49.8714 52.8771 40.5354C55 42.7278 57.2224 45.0471 57.2224 45.0471L57.6389 44.731C62.4438 40.818 58.434 33.7281 58.3935 33.6568ZM10.419 11.9629C15.2372 7.106 21.6579 4.41604 28.4985 4.38787C28.5337 4.38787 28.5681 4.38787 28.6033 4.38787C41.2219 4.38787 51.743 13.5733 53.8281 25.6248L52.3744 26.9923C50.7666 15.2842 40.7076 6.23429 28.5646 6.23429C16.9392 6.23429 7.22369 14.5304 5.00481 25.5121C4.33562 26.0246 3.73247 26.523 3.198 26.9887C3.8575 21.3262 6.3423 16.074 10.419 11.9629ZM32.8526 20.1243C32.8526 20.1243 26.2726 19.4639 22.799 19.5564C23.8239 18.3034 27.898 13.9484 35.3753 13.8586C35.3929 13.8665 35.4114 13.8727 35.429 13.8806C32.3868 19.4877 32.8526 20.1243 32.8526 20.1243ZM21.8146 19.3785L20.9033 19.3935C18.2203 19.4384 15.7065 19.9931 13.4172 20.8208C14.1321 19.6259 14.9845 18.5042 15.99 17.4898C19.2576 14.1958 23.6108 12.3723 28.2502 12.3538C28.274 12.3538 28.2986 12.3538 28.3224 12.3538C30.0825 12.3538 31.7758 12.6321 33.3774 13.1216C26.4346 13.9458 22.5789 18.4056 21.8146 19.3785ZM36.2135 14.2733C40.4937 16.4755 43.741 20.4017 45.0406 25.1379C41.7097 22.8644 37.7421 21.3984 35.3938 20.5337C34.6726 20.2687 33.9304 19.9957 33.6609 19.8531C33.7199 19.2323 34.766 16.9518 36.2135 14.2733ZM36.4513 13.8331C36.4874 13.767 36.5208 13.7036 36.5569 13.6376L36.9021 13.0116L36.1871 12.9904C35.6474 12.9746 35.1226 12.9816 34.6128 13.008C32.6545 12.2675 30.5369 11.8537 28.3224 11.8537H28.2485C23.4761 11.8731 18.997 13.7494 15.6361 17.1376C14.4562 18.3272 13.4841 19.662 12.696 21.0893C9.95942 22.1688 7.57325 23.6226 5.64758 25.0305C8.04344 14.5709 17.3891 6.73266 28.5646 6.73266C40.5764 6.73266 50.5086 15.7772 51.9279 27.4123L49.5682 29.6329C48.6269 28.0762 47.2472 26.7352 45.6843 25.5861C44.463 20.4563 41.029 16.1884 36.4513 13.8331ZM28.7063 55.6123C28.6711 55.6123 28.6359 55.6123 28.5998 55.6123C21.7978 55.6123 15.3974 52.9761 10.5661 48.1834C9.10357 46.7332 7.85501 45.1281 6.80192 43.4181C7.55652 43.8126 8.36482 44.1789 9.22596 44.5179C13.6056 50.456 20.6365 54.3241 28.5654 54.3241C38.8683 54.3241 47.6557 47.8013 51.0721 38.6766C51.4313 39.0438 51.817 39.4409 52.2185 39.8538C48.361 49.0595 39.2971 55.57 28.7063 55.6123ZM38.8577 44.9309L49.9847 37.5724C50.1907 37.7794 50.4311 38.0241 50.6864 38.2839C47.4004 47.3338 38.7362 53.8249 28.5654 53.8249C21.0802 53.8249 14.4122 50.3055 10.0977 44.8428C12.4072 45.6705 15.062 46.3176 18.0689 46.7746C21.2079 47.2527 24.2052 47.4315 26.5297 47.4861C27.1196 47.546 27.714 47.5873 28.3198 47.5873H28.3929C28.9934 47.5847 29.5842 47.5424 30.168 47.4782C30.4973 47.4676 30.7517 47.457 30.8997 47.45C30.9815 47.5116 31.0758 47.5768 31.1805 47.649C32.6668 48.6704 34.9385 48.924 36.8272 48.924C38.6094 48.924 40.0525 48.6977 40.1732 48.6783L40.7728 48.5814L38.8577 44.9309ZM56.7699 41.7152L59.0565 40.4869C58.8928 41.6694 58.4164 42.8335 57.3827 43.7959C56.2327 42.6248 52.222 38.5859 50.351 36.7025L50.0991 36.448L37.7174 44.6368L39.4256 47.8938C38.0555 48.0478 34.6744 48.3023 32.4608 47.354L32.3446 47.3012C32.3252 47.2765 32.2988 47.2545 32.2644 47.236C29.6009 45.8413 28.0961 43.5854 27.213 40.7608C27.1179 40.4552 26.6354 40.5855 26.7313 40.8937C27.4534 43.2042 28.5945 45.1563 30.389 46.595C26.6855 46.7218 7.25626 46.927 1.44932 37.5865C3.19448 37.5654 7.32671 37.5126 7.32671 37.5126L8.3164 37.4994L1.31548 30.0133C2.4575 28.7665 7.31086 23.8207 14.1498 21.4935C15.4159 25.5562 15.9354 29.7104 15.7391 33.9703C15.7241 34.2917 16.2234 34.2908 16.2383 33.9703C16.4373 29.662 15.909 25.4505 14.6252 21.3412C16.5826 20.7186 18.6861 20.3039 20.9165 20.2669L22.084 20.2476C22.1007 20.2502 22.1069 20.2643 22.1254 20.2643C26.3492 20.1102 30.5122 20.4862 34.6638 21.1968C34.7985 21.247 34.9341 21.2971 35.09 21.3544C38.6693 22.6716 46.1192 25.4126 48.9096 30.2405C49.0725 30.5213 49.2715 30.6675 49.5039 30.6763C49.6888 30.6737 49.835 30.5962 49.9257 30.4976L57.3017 23.5574C57.6063 24.0091 58.0977 24.8561 58.4323 25.9876L56.7813 25.0349L56.5321 25.4672L58.6013 26.6603C58.6674 26.9711 58.7228 27.2934 58.7545 27.6359L56.7769 26.4939L56.5277 26.9262L58.7862 28.2303C58.7924 28.5129 58.7845 28.8035 58.7598 29.1028L56.7716 27.9547L56.5224 28.387L58.6964 29.6417C58.6586 29.9023 58.6066 30.1683 58.5406 30.4395L56.7655 29.4154L56.5163 29.8478L58.3988 30.9343C58.1954 31.6008 57.9119 32.292 57.5042 33.0061C57.2656 33.4253 57.4126 33.8726 57.6627 34.1411C57.7587 34.3163 58.0959 34.9653 58.4235 35.8695L56.5154 36.8953L56.7514 37.3347L58.5855 36.3485C58.6647 36.596 58.7404 36.854 58.8091 37.126L56.5207 38.3552L56.7566 38.7946L58.9218 37.6314C58.9773 37.9 59.0231 38.1747 59.0574 38.4565L56.5268 39.816L56.7628 40.2554L59.1058 38.9962C59.1243 39.2921 59.127 39.5906 59.112 39.8908L56.5339 41.2759L56.7699 41.7152ZM3.21209 33.3214L6.32645 36.6523C5.67223 36.6602 4.77411 36.6717 3.88656 36.6831C3.59159 35.5825 3.36178 34.4616 3.21209 33.3214Z" fill="white"/>
<path d="M15.6143 35.4864C15.4162 37.3091 15.0789 39.1009 14.6035 40.8708C14.5198 41.1816 15.0015 41.3136 15.0851 41.0037C15.5729 39.1899 15.9119 37.354 16.1144 35.4864C16.1479 35.1677 15.6486 35.1695 15.6143 35.4864Z" fill="white"/>
<path d="M10.2997 26.7554C9.44472 26.7554 8.75 27.451 8.75 28.3051C8.75 29.16 9.44472 29.8548 10.2997 29.8548C11.1547 29.8548 11.8494 29.1592 11.8494 28.3051C11.8485 27.451 11.1538 26.7554 10.2997 26.7554ZM10.2997 29.3555C9.72032 29.3555 9.24925 28.8844 9.24925 28.3051C9.24925 27.7257 9.72032 27.2555 10.2997 27.2555C10.8791 27.2555 11.3501 27.7266 11.3501 28.3051C11.3501 28.8836 10.8791 29.3555 10.2997 29.3555Z" fill="white"/>
<path d="M23.5746 25.7657C23.5746 24.4494 22.5039 23.3787 21.1875 23.3787V23.8779C22.2291 23.8779 23.0762 24.725 23.0762 25.7657C23.0762 26.8065 22.2291 27.6535 21.1875 27.6535V28.1528C22.2291 28.1528 23.0762 28.9998 23.0762 30.0415C23.0762 31.0822 22.2291 31.9293 21.1875 31.9293V32.4285C22.2291 32.4285 23.0762 33.2756 23.0762 34.3163C23.0762 35.358 22.2291 36.205 21.1875 36.205V36.7043C22.2291 36.7043 23.0762 37.5513 23.0762 38.5921C23.0762 39.6328 22.2291 40.4799 21.1875 40.4799V40.9791C22.5039 40.9791 23.5746 39.9084 23.5746 38.5921C23.5746 37.6508 23.0225 36.8425 22.23 36.4542C23.0234 36.0659 23.5746 35.2576 23.5746 34.3163C23.5746 33.3751 23.0225 32.5676 22.23 32.1785C23.0234 31.7902 23.5746 30.9818 23.5746 30.0406C23.5746 29.0993 23.0225 28.291 22.23 27.9027C23.0225 27.5153 23.5746 26.707 23.5746 25.7657Z" fill="white"/>
<path d="M27.2777 27.9256C27.2777 26.6093 26.207 25.5386 24.8906 25.5386V26.0378C25.9323 26.0378 26.7793 26.8849 26.7793 27.9256C26.7793 28.9664 25.9323 29.8134 24.8906 29.8134V30.3127C25.9323 30.3127 26.7793 31.1597 26.7793 32.2014C26.7793 33.2421 25.9323 34.0892 24.8906 34.0892V34.5884C25.9323 34.5884 26.7793 35.4355 26.7793 36.4762C26.7793 37.5179 25.9323 38.3649 24.8906 38.3649V38.8642C26.207 38.8642 27.2777 37.7926 27.2777 36.4762C27.2777 35.535 26.7256 34.7276 25.9331 34.3384C26.7265 33.9501 27.2777 33.1418 27.2777 32.2005C27.2777 31.2592 26.7256 30.4509 25.9331 30.0626C26.7256 29.6752 27.2777 28.8669 27.2777 27.9256Z" fill="white"/>
<path d="M30.8714 30.0415C30.8714 28.7251 29.8007 27.6536 28.4844 27.6536V28.1528C29.526 28.1528 30.3731 28.9999 30.3731 30.0415C30.3731 31.0823 29.526 31.9293 28.4844 31.9293V32.4286C29.526 32.4286 30.3731 33.2756 30.3731 34.3164C30.3731 35.358 29.526 36.2051 28.4844 36.2051V36.7043C29.8007 36.7043 30.8714 35.6327 30.8714 34.3164C30.8714 33.3751 30.3194 32.5677 29.5269 32.1785C30.3194 31.7911 30.8714 30.9828 30.8714 30.0415Z" fill="white"/>
</svg>
