<svg width="108" height="95" viewBox="0 0 108 95" fill="none" xmlns="http://www.w3.org/2000/svg">
<g clip-path="url(#clip0_700_1561)">
<path d="M83.6733 10.3594L108 10.3348L96.4375 25.9812C99.73 32.4403 101.586 39.7541 101.586 47.4999C101.586 73.7333 80.2879 94.9998 54.0122 94.9998C42.7922 94.9998 32.4777 91.1213 24.3426 84.633H0L11.5697 68.9794C8.28738 62.529 6.43859 55.2296 6.43859 47.4997C6.43859 38.915 8.71842 30.8638 12.7089 23.9135C12.7959 23.7584 12.8873 23.602 12.9774 23.4469C13.0571 23.3107 13.1399 23.1745 13.2226 23.0398C21.5449 9.23512 36.6975 0 54.0122 0C65.2295 0 75.5412 3.87569 83.6733 10.3594ZM12.7089 23.9137C12.8772 23.6211 13.0483 23.3298 13.2226 23.04C13.1397 23.1749 13.0571 23.3109 12.9774 23.4471C12.8875 23.6022 12.7961 23.7586 12.7089 23.9137Z" fill="black"/>
<path d="M9.7258 47.4998C9.7258 39.7223 11.7356 32.4141 15.2662 26.0636C15.4361 25.7433 15.6145 25.4233 15.8017 25.1074C15.9772 24.8088 16.16 24.5149 16.3472 24.2293C24.1556 11.6531 38.1054 3.28003 54.0127 3.28003C64.8585 3.28003 74.7927 7.17172 82.4911 13.6322L101.507 13.612L92.5633 25.7144C96.2172 32.1445 98.3026 39.5787 98.3026 47.4996C98.3026 71.9218 78.473 91.7194 54.0129 91.7194C43.1657 91.7194 33.2284 87.8248 25.5272 81.3614H6.48828L15.4431 69.2487C11.8022 62.8275 9.7258 55.4065 9.7258 47.4998Z" fill="white"/>
<path d="M89.3972 68.229C83.8801 77.583 71.8154 80.6966 62.4499 75.1865C53.0842 69.6779 49.4361 56.5236 57.7801 45.1179C58.6218 43.9674 78.7184 16.9067 78.7184 16.9067H95.0436L78.3425 39.5021C79.7413 39.9425 81.1112 40.5453 82.4289 41.3219C91.7944 46.8307 94.9159 58.878 89.3972 68.229ZM79.0071 58.4044C79.0071 54.7996 76.0787 51.8771 72.4683 51.8771C68.858 51.8771 65.9296 54.7994 65.9296 58.4044C65.9296 62.0107 68.858 64.933 72.4683 64.933C76.0787 64.9328 79.0071 62.0105 79.0071 58.4044Z" fill="black"/>
<path d="M90.4115 28.624L83.3125 38.2288C83.5375 38.3505 83.758 38.4764 83.9802 38.6054C89.567 41.893 93.25 47.1754 94.6517 53.0102C94.8941 51.2079 95.0204 49.3692 95.0204 47.5001C95.0202 40.6916 93.3557 34.2717 90.4115 28.624Z" fill="#179D33"/>
<path d="M13.3247 42.3623C13.1113 44.0446 13.0039 45.76 13.0039 47.5C13.0039 54.2938 14.6596 60.7007 17.5939 66.3398L24.5927 56.87C24.3693 56.7498 24.15 56.6236 23.9295 56.4947C18.4283 53.2593 14.7745 48.0898 13.3247 42.3623Z" fill="#179D33"/>
<path d="M18.6216 26.768C24.1372 17.4155 36.2034 14.3019 45.5704 19.8105C54.9361 25.3205 58.584 38.4749 50.2402 49.8791C49.3972 51.0309 29.3019 78.0916 29.3019 78.0916H12.9766L29.6774 55.4963C28.2786 55.0558 26.9088 54.4501 25.591 53.6764C16.2257 48.1678 13.1044 36.1205 18.6216 26.768ZM29.013 36.5928C29.013 40.1976 31.9399 43.1199 35.5518 43.1199C39.1622 43.1199 42.0891 40.1976 42.0891 36.5928C42.0891 32.9865 39.1622 30.0641 35.5518 30.0641C31.9399 30.0641 29.013 32.9867 29.013 36.5928Z" fill="black"/>
<path d="M54.0127 6.55615C62.5686 6.55615 70.5106 9.17138 77.0856 13.6441C76.8679 13.9324 70.3538 22.6387 64.7017 30.2207C62.5772 33.0706 60.0306 36.5174 58.1093 39.1096C59.0859 30.6366 55.0662 21.5984 47.2345 16.991C41.6897 13.7295 35.3308 13.0602 29.5742 14.6177C36.399 9.55241 44.8562 6.55615 54.0127 6.55615Z" fill="#179D33"/>
<path d="M54.029 88.4365C45.4745 88.4365 37.5311 85.8213 30.959 81.3456C31.1736 81.0587 37.6891 72.3525 43.3414 64.7704C45.4644 61.922 48.0634 58.3708 49.9845 55.7788C49.008 64.2519 52.9769 73.3942 60.8071 77.9988C66.3519 81.2616 72.7107 81.9324 78.4687 80.3749C71.6443 85.4402 63.1871 88.4365 54.029 88.4365Z" fill="#179D33"/>
</g>
<defs>
<clipPath id="clip0_700_1561">
<rect width="108" height="95" fill="white"/>
</clipPath>
</defs>
</svg>
