<svg width="18" height="18" viewBox="0 0 18 18" fill="none" xmlns="http://www.w3.org/2000/svg">
<g opacity="0.5">
<path d="M16.8747 5.0625C16.8747 6.26456 16.4067 7.39462 15.5567 8.24456L7.45109 16.4464C6.79184 17.1056 5.92615 17.4352 5.06103 17.4352C4.19703 17.4352 3.33303 17.1062 2.67546 16.4486C1.35978 15.1324 1.35978 12.9915 2.67546 11.6758L8.53109 5.85337C9.41028 4.97981 10.8075 4.95113 11.6473 5.78981C12.0574 6.19987 12.2734 6.75337 12.256 7.34906C12.2385 7.93181 11.9983 8.48419 11.5793 8.90325L6.02234 14.4602C5.8024 14.6801 5.4469 14.6801 5.22696 14.4602C5.00703 14.2403 5.00703 13.8847 5.22696 13.6648L10.7839 8.10787C10.9993 7.89244 11.1231 7.61119 11.1315 7.31587C11.14 7.0335 11.0404 6.77362 10.852 6.58519C10.4498 6.18469 9.76465 6.21338 9.32478 6.651L3.46971 12.4723C2.5939 13.3487 2.5939 14.7763 3.47084 15.6532C4.34834 16.5302 5.7754 16.5302 6.6529 15.6532L14.7585 7.45144C15.3987 6.81131 15.7497 5.96419 15.7497 5.0625C15.7497 4.16081 15.3987 3.31369 14.7613 2.67637C14.1235 2.0385 13.2763 1.6875 12.3747 1.6875C11.473 1.6875 10.6258 2.0385 9.98796 2.67637L2.08371 10.5244C1.86265 10.7432 1.50715 10.7421 1.28834 10.521C1.06953 10.3005 1.07065 9.945 1.29115 9.72563L9.19428 1.87931C10.0425 1.0305 11.1726 0.5625 12.3747 0.5625C13.5767 0.5625 14.7068 1.0305 15.5567 1.881C16.4067 2.73038 16.8747 3.86044 16.8747 5.0625Z" fill="#212121"/>
</g>
</svg>
