<svg width="20" height="20" viewBox="0 0 20 20" fill="none" xmlns="http://www.w3.org/2000/svg">
<path d="M2.26494 18.5716C2.09936 18.5716 1.9375 18.5225 1.79982 18.4305C1.66214 18.3386 1.55483 18.2078 1.49146 18.0549C1.42809 17.9019 1.41152 17.7336 1.44383 17.5712C1.47614 17.4088 1.55588 17.2596 1.67298 17.1426L17.1416 1.67391C17.2986 1.51691 17.5116 1.42871 17.7336 1.42871C17.9556 1.42871 18.1686 1.51691 18.3256 1.67391C18.4825 1.83091 18.5707 2.04384 18.5707 2.26587C18.5707 2.4879 18.4825 2.70083 18.3256 2.85783L2.8569 18.3265C2.77923 18.4043 2.68696 18.466 2.58537 18.5081C2.48378 18.5501 2.37489 18.5717 2.26494 18.5716Z" fill="#DCDDDE"/>
<path d="M17.7335 18.5716C17.6236 18.5717 17.5147 18.5501 17.4131 18.5081C17.3115 18.466 17.2192 18.4043 17.1416 18.3265L1.67293 2.85783C1.51593 2.70083 1.42773 2.4879 1.42773 2.26587C1.42773 2.04384 1.51593 1.83091 1.67293 1.67391C1.82993 1.51691 2.04286 1.42871 2.26489 1.42871C2.48692 1.42871 2.69986 1.51691 2.85685 1.67391L18.3255 17.1426C18.4426 17.2596 18.5223 17.4088 18.5547 17.5712C18.587 17.7336 18.5704 17.9019 18.507 18.0549C18.4437 18.2078 18.3363 18.3386 18.1987 18.4305C18.061 18.5225 17.8991 18.5716 17.7335 18.5716Z" fill="#DCDDDE"/>
</svg>
