<svg width="18" height="18" viewBox="0 0 18 18" fill="none" xmlns="http://www.w3.org/2000/svg">
<g clip-path="url(#clip0_700_1705)">
<path d="M15.1875 2.69995H2.8125C1.26164 2.69995 0 3.96159 0 5.51245V13.6335C0 15.1844 1.26164 16.446 2.8125 16.446H7.875C8.26337 16.446 8.57812 16.1313 8.57812 15.7429C8.57812 15.3546 8.26337 15.0398 7.875 15.0398H2.8125C2.03714 15.0398 1.40625 14.4089 1.40625 13.6335V5.71062L7.51479 9.509C7.97292 9.79382 8.48639 9.93623 9 9.93623C9.51361 9.93623 10.0271 9.79382 10.4852 9.509L16.5938 5.71062V8.18433C16.5938 8.57269 16.9085 8.88745 17.2969 8.88745C17.6852 8.88745 18 8.57269 18 8.18433V5.51245C18 3.96159 16.7384 2.69995 15.1875 2.69995ZM9.74254 8.31479C9.28455 8.59961 8.71545 8.59961 8.25746 8.31479L1.95735 4.3972C2.19452 4.21497 2.49101 4.1062 2.8125 4.1062H15.1875C15.509 4.1062 15.8056 4.21497 16.0426 4.3972L9.74254 8.31479ZM14.3996 10.4891L10.5393 14.3408C10.4573 14.4226 10.3968 14.5234 10.3631 14.6343L9.52254 17.4019C9.44797 17.6473 9.51292 17.9137 9.692 18.0973C9.82617 18.2348 10.0084 18.3093 10.1953 18.3093C10.2579 18.3093 10.321 18.3009 10.383 18.2838L13.2209 17.4977C13.3378 17.4653 13.4442 17.4034 13.5299 17.3177L17.3822 13.4727C18.2046 12.6503 18.2046 11.3121 17.3822 10.4897C16.5597 9.66721 15.2216 9.66721 14.3996 10.4891ZM12.6674 16.1918L11.2396 16.5874L11.6575 15.2117L14.2622 12.6128L15.2567 13.6073L12.6674 16.1918ZM16.3883 12.4779L16.2521 12.6139L15.2577 11.6195L15.3934 11.4839C15.6675 11.2098 16.1136 11.2098 16.3878 11.4839C16.662 11.7582 16.662 12.2042 16.3883 12.4779Z" fill="black"/>
</g>
<defs>
<clipPath id="clip0_700_1705">
<rect width="18" height="18" fill="white"/>
</clipPath>
</defs>
</svg>
