<svg width="18" height="18" viewBox="0 0 18 18" fill="none" xmlns="http://www.w3.org/2000/svg">
<g clip-path="url(#clip0_700_1701)">
<path d="M16.2271 12.9701C15.2996 12.0758 14.5226 11.5596 13.7817 11.3455C12.7609 11.0504 11.8152 11.3188 10.9714 12.1429C10.9701 12.1442 10.9689 12.1454 10.9676 12.1467L10.0689 13.0386C9.51071 12.7251 8.42565 12.035 7.23889 10.8482L7.15148 10.7608C5.97251 9.58184 5.27809 8.49068 4.96214 7.93024L5.85331 7.03233C5.85461 7.03104 5.85578 7.02974 5.85707 7.02857C6.68118 6.18462 6.94953 5.23911 6.65447 4.21824C6.44033 3.47739 5.92413 2.70036 5.02985 1.77288C4.57305 1.29935 3.95944 1.02542 3.30186 1.00169C2.64428 0.978081 2.01264 1.20687 1.52277 1.64655L1.5037 1.66367C1.49488 1.67159 1.48632 1.67976 1.47789 1.68819C0.503069 2.66301 -0.00794791 4.02771 9.34599e-05 5.63482C0.0137119 8.36474 1.51408 11.4867 4.01365 13.9863C4.01573 13.9885 4.01793 13.9906 4.02001 13.9927C4.48978 14.4618 5.02323 14.9261 5.60571 15.3727C5.89676 15.5958 6.31349 15.5408 6.5367 15.2497C6.75991 14.9587 6.70479 14.5418 6.41374 14.3187C5.87471 13.9054 5.38315 13.4776 4.95268 13.0472C4.95073 13.0451 4.94853 13.043 4.94658 13.0411C2.69253 10.7844 1.34002 8.0139 1.32809 5.62807C1.32199 4.39048 1.69423 3.35742 2.40499 2.6394L2.41004 2.63474C2.89279 2.20154 3.62351 2.22787 4.0737 2.69479C5.793 4.47777 5.66849 5.31939 4.90884 6.0985L3.67786 7.33868C3.48487 7.53323 3.43104 7.82635 3.54258 8.07668C3.57384 8.14684 4.32973 9.8175 6.21258 11.7002L6.3 11.7875C8.18246 13.6701 9.85312 14.426 9.92329 14.4574C10.1736 14.5688 10.4667 14.5151 10.6613 14.322L11.9012 13.0913C12.6803 12.3315 13.5221 12.2068 15.3052 13.9261C15.7721 14.3763 15.7984 15.1072 15.3652 15.5898L15.3606 15.595C14.6484 16.2999 13.6263 16.6719 12.4021 16.6719C12.392 16.6719 12.3819 16.6719 12.3719 16.6717C11.3933 16.6669 10.2601 16.3987 9.09503 15.8961C8.7582 15.7507 8.36754 15.9061 8.22228 16.2428C8.07701 16.5797 8.23226 16.9703 8.56896 17.1156C9.91577 17.6965 11.193 17.994 12.3651 17.9999C12.3776 18 12.39 18 12.4025 18C13.9934 18 15.3445 17.4894 16.3118 16.5221C16.3202 16.5136 16.3284 16.5051 16.3363 16.4961L16.3535 16.4771C16.7931 15.9873 17.022 15.3556 16.9983 14.6981C16.9745 14.0405 16.7006 13.4268 16.2271 12.9701Z" fill="black"/>
</g>
<defs>
<clipPath id="clip0_700_1701">
<rect width="18" height="18" fill="white"/>
</clipPath>
</defs>
</svg>
