<svg width="18" height="18" viewBox="0 0 18 18" fill="none" xmlns="http://www.w3.org/2000/svg">
<path d="M9 9C9.77876 9 10.54 8.76907 11.1876 8.33641C11.8351 7.90376 12.3398 7.2888 12.6378 6.56932C12.9358 5.84983 13.0138 5.05813 12.8618 4.29433C12.7099 3.53053 12.3349 2.82894 11.7842 2.27827C11.2336 1.7276 10.532 1.35259 9.76817 1.20066C9.00437 1.04873 8.21267 1.12671 7.49318 1.42473C6.7737 1.72275 6.15875 2.22743 5.72609 2.87494C5.29343 3.52246 5.0625 4.28374 5.0625 5.0625C5.06369 6.10643 5.47892 7.10725 6.21708 7.84542C6.95525 8.58359 7.95608 8.99881 9 9ZM9 2.25C9.55626 2.25 10.1 2.41495 10.5625 2.72399C11.0251 3.03303 11.3855 3.47229 11.5984 3.9862C11.8113 4.50012 11.867 5.06562 11.7585 5.61119C11.6499 6.15676 11.3821 6.6579 10.9887 7.05124C10.5954 7.44457 10.0943 7.71244 9.54869 7.82096C9.00312 7.92948 8.43762 7.87378 7.9237 7.66091C7.40979 7.44804 6.97053 7.08756 6.66149 6.62504C6.35245 6.16253 6.1875 5.61876 6.1875 5.0625C6.18839 4.31685 6.485 3.602 7.01225 3.07475C7.5395 2.5475 8.25435 2.25089 9 2.25Z" fill="white"/>
<path d="M15.9865 14.6981C15.5029 13.2292 14.5658 11.9516 13.3102 11.049C12.0545 10.1464 10.5449 9.66533 8.99854 9.67495C7.45216 9.66533 5.94258 10.1464 4.68692 11.049C3.43126 11.9516 2.49423 13.2292 2.0106 14.6981C1.9297 14.9446 1.90908 15.2069 1.95048 15.463C1.99188 15.7192 2.09409 15.9617 2.24854 16.1701C2.40658 16.3878 2.61375 16.5651 2.85323 16.6875C3.0927 16.81 3.35769 16.8742 3.62666 16.8749H14.3704C14.6394 16.8742 14.9044 16.81 15.1439 16.6875C15.3833 16.5651 15.5905 16.3878 15.7485 16.1701C15.903 15.9617 16.0052 15.7192 16.0466 15.463C16.088 15.2069 16.0674 14.9446 15.9865 14.6981ZM14.839 15.5092C14.7854 15.5834 14.715 15.6439 14.6335 15.6857C14.5521 15.7276 14.462 15.7496 14.3704 15.7499H3.62666C3.53512 15.7496 3.44496 15.7276 3.36353 15.6857C3.28211 15.6439 3.21172 15.5834 3.1581 15.5092C3.10875 15.4441 3.07586 15.3681 3.06224 15.2876C3.04863 15.2071 3.05469 15.1245 3.07992 15.0468C3.49841 13.8089 4.29453 12.7334 5.35623 11.9715C6.41794 11.2097 7.6918 10.8 8.99854 10.8C10.3053 10.8 11.5791 11.2097 12.6408 11.9715C13.7026 12.7334 14.4987 13.8089 14.9172 15.0468C14.9424 15.1245 14.9485 15.2071 14.9348 15.2876C14.9212 15.3681 14.8883 15.4441 14.839 15.5092Z" fill="white"/>
</svg>
