<svg width="303" height="248" viewBox="0 0 303 248" fill="none" xmlns="http://www.w3.org/2000/svg">
<g clip-path="url(#clip0_700_1245)">
<path d="M297.704 4.02637C296.401 3.24654 294.652 3.65502 293.871 4.95475L286.762 16.6151C285.981 17.9149 286.39 19.6231 287.693 20.4401C288.995 21.2199 290.707 20.8114 291.526 19.5117L298.634 7.85128C299.453 6.55155 299.043 4.84334 297.704 4.02637Z" fill="white"/>
<path d="M311.4 20.2916C310.693 18.9176 308.981 18.4349 307.641 19.1404C304.068 21.0343 300.086 22.1855 296.067 22.4826C294.541 22.594 293.387 23.9308 293.499 25.4534C293.611 26.8645 294.802 28.09 296.476 28.0157C301.24 27.6443 306.003 26.2703 310.246 24.0422C311.623 23.3367 312.144 21.6285 311.4 20.2916V20.2916Z" fill="white"/>
<path d="M295.585 39.899C299.157 39.4905 302.916 40.3075 305.931 42.2014C307.233 43.0184 308.945 42.647 309.764 41.3102C310.582 40.0104 310.173 38.3022 308.871 37.4853C304.702 34.8858 299.753 33.7717 294.878 34.3659C293.352 34.5516 292.272 35.9256 292.458 37.4481C292.645 39.0078 294.059 40.0847 295.585 39.899V39.899Z" fill="white"/>
<path d="M251.259 176.184C253.381 174.291 255.018 171.914 255.986 169.203C258.665 163.633 259.819 157.208 260.489 150.784C260.712 150.041 260.861 149.299 261.121 148.556C261.159 148.407 261.159 148.222 261.159 148.073C261.568 147.962 261.94 147.813 262.312 147.702C264.285 147.405 266.22 146.811 268.044 145.697C275.97 140.832 277.087 130.026 277.682 124.233C285.87 45.3206 286.54 43.4267 285.349 33.2146C282.818 11.7505 268.713 0.535761 248.394 0.0530058C238.792 -0.169804 229.525 2.02116 220.556 4.17499C214.49 5.62326 206.973 7.40574 201.8 12.8275C196.441 18.472 195.175 26.3817 194.171 32.7318L183.118 102.063C181.927 109.601 180.103 120.965 185.127 129.357C185.388 129.729 185.574 130.323 187.397 132.402C190.896 140.089 198.86 143.543 207.084 145.511C206.861 146.142 206.675 146.773 206.563 147.405C204.182 158.434 201.353 172.137 209.913 179.749C211.774 181.42 214.007 182.535 216.351 183.351V213.542C204.889 214.656 188.477 217.516 188.477 224.906C188.477 225.76 188.774 226.577 189.221 227.319C188.737 230.253 189.779 233.112 193.538 235.563C197.297 238.014 201.949 238.497 206.415 238.905C226.809 240.725 247.835 242.285 267.262 235.972C272.174 234.375 277.124 231.887 277.422 226.688C277.645 226.131 277.757 225.537 277.757 224.943C277.757 216.736 257.474 214.099 246.31 213.282V180.381C249.771 178.153 250.701 176.816 251.259 176.184V176.184ZM212.964 166.158C214.044 159.808 215.607 153.532 217.616 147.405C225.767 148.556 233.954 149.224 242.179 149.447C237.49 172.248 237.601 174.439 235.703 175.85C234.587 176.667 232.689 176.704 230.791 176.593C226.585 176.37 222.38 175.85 218.249 175.033C213.262 173.993 211.848 172.842 212.964 166.158ZM247.873 149.521C250.329 149.521 252.711 149.484 255.167 149.224C253.604 154.683 252.227 160.216 251.148 165.787C250.329 170.131 246.98 173.511 242.7 174.55C243.221 172.879 242.997 173.585 247.873 149.521ZM256.358 142.429C250.217 136.821 245.975 126.349 246.533 118.662C254.72 121.893 260.005 132.551 264.285 141.315C262.052 142.392 259.298 142.503 256.358 142.429ZM248.878 142.354C243.853 142.392 239.499 142.429 235.666 142.317C228.409 135.633 224.762 125.087 226.399 115.357C226.399 115.246 226.399 115.172 226.399 115.06C231.535 115.654 236.448 116.434 241.062 117.325C240.057 125.904 243.779 135.633 248.878 142.354V142.354ZM227.813 141.835C220.966 141.129 216.835 139.978 212.22 138.752C211.699 137.49 203.847 128.466 202.953 113.501C209.057 113.649 215.086 113.983 220.891 114.54C219.328 124.01 222.008 134.11 227.813 141.835V141.835ZM197.334 113.389C197.743 121.373 200.088 129.283 204.07 136.264C191.082 131.66 186.951 125.681 187.397 113.538C190.71 113.426 194.022 113.389 197.334 113.389ZM205.894 16.6524C209.913 12.419 216.537 10.8222 221.896 9.55957C230.53 7.51715 239.499 5.32618 248.319 5.58612C257.921 5.80893 266.108 8.92827 271.43 14.3129C277.161 20.1431 279.171 28.1271 279.841 33.8087C280.734 41.31 279.915 49.0712 279.134 56.6096C271.579 127.5 272.435 131.177 268.602 137.341C264.396 128.837 259.261 119.145 251.11 114.615C251.594 110.418 252.078 106.222 252.562 101.989C255.465 103.14 259.186 104.997 261.233 106.408C262.498 107.299 264.248 106.965 265.104 105.702C265.997 104.44 265.662 102.694 264.396 101.84C261.68 99.9462 256.693 97.4953 253.195 96.2699C253.79 90.8853 254.348 85.5007 254.906 80.1161C257.735 81.453 260.452 82.9755 263.019 84.6837C264.285 85.5378 266.034 85.2407 266.89 83.941C267.746 82.6784 267.448 80.9331 266.146 80.079C263.019 77.9623 259.707 76.1055 256.246 74.5459C255.986 74.4345 255.725 74.3973 255.427 74.3602C255.986 68.9013 256.507 63.4053 257.028 57.9465C259.893 58.6149 262.684 59.8404 265.104 61.5486C265.587 61.8828 266.146 62.0314 266.704 62.0314C269.421 62.0314 270.537 58.5407 268.304 56.9439C264.471 54.3073 259.819 52.6362 257.549 52.3391C258.107 46.1004 258.628 39.8989 259.149 33.6973L267.485 38.5992C268.825 39.379 270.537 38.9334 271.318 37.6336C272.1 36.2968 271.653 34.5886 270.314 33.8087L260.079 27.7929C259.931 27.7186 259.782 27.6815 259.596 27.6443C259.968 22.7796 260.377 17.9521 260.712 13.0874C260.824 11.5649 259.67 10.228 258.107 10.1166C256.618 10.0423 255.241 11.1564 255.13 12.716C252.785 45.8776 249.622 79.4105 245.677 112.498C245.23 112.424 222.938 106.779 187.844 107.856C188.216 105.034 188.625 102.657 189.556 96.8269C190.635 97.0868 187.918 97.0126 211.625 95.8242C213.151 95.75 214.341 94.4131 214.267 92.8906C214.193 91.368 212.89 90.1054 211.327 90.254L190.412 91.368L192.198 80.1161C192.384 80.1533 192.57 80.2275 192.756 80.2275C193.91 80.2275 205 77.1824 220.966 78.3336C222.492 78.445 223.831 77.2939 223.943 75.7713C224.055 74.2488 222.901 72.9119 221.375 72.8005C211.922 72.1321 202.432 72.7262 193.091 74.583L195.436 59.9518C200.907 58.7635 206.675 58.095 212.555 58.0208C214.081 57.9836 215.309 56.721 215.309 55.1985C215.272 53.676 214.044 52.4505 212.518 52.4505C208.499 52.4505 202.246 53.0075 196.404 54.1216L198.674 39.8246C208.722 35.5912 219.738 33.9201 230.567 34.9599C232.093 35.1456 233.47 33.9944 233.619 32.4719C233.768 30.9493 232.652 29.5753 231.126 29.4268C220.519 28.387 209.727 29.7982 199.716 33.4374C200.832 26.6417 202.06 20.7001 205.894 16.6524V16.6524ZM243.481 222.455C245.007 222.455 246.272 221.192 246.272 219.67V218.815C263.206 220.115 270.835 223.346 272.063 224.906C270.276 227.356 256.358 231.478 233.098 231.478C209.801 231.478 195.883 227.356 194.133 224.906C195.25 223.532 201.8 220.561 216.351 219.112V221.155C216.351 222.677 217.616 223.94 219.142 223.94C220.668 223.94 221.933 222.677 221.933 221.155V184.577C229.042 185.58 235.405 184.874 240.69 183.017V219.707C240.69 221.192 241.955 222.455 243.481 222.455Z" fill="white"/>
<ellipse cx="137.232" cy="237.883" rx="119.669" ry="5.65783" fill="white"/>
</g>
<defs>
<clipPath id="clip0_700_1245">
<rect width="303" height="248" fill="white"/>
</clipPath>
</defs>
</svg>
