<svg width="20" height="20" viewBox="0 0 20 20" fill="none" xmlns="http://www.w3.org/2000/svg">
<path d="M19.5297 14.6935C19.3752 14.3417 19.1217 14.0418 18.7819 13.807L15.7902 11.683C15.5134 11.4955 15.2622 11.356 15.0229 11.2585C14.3712 10.9922 13.7029 11.0522 13.2034 11.3597C12.7564 11.566 12.1767 12.196 11.7912 12.5732C10.3707 11.6807 8.37419 9.68575 7.41344 8.19325C7.76819 7.81525 8.38769 7.23325 8.60219 6.81625C8.80019 6.49075 8.90069 6.145 8.90069 5.78725C8.90069 5.51575 8.83844 5.2315 8.71844 4.9525C8.61194 4.69375 8.46719 4.438 8.27669 4.174L6.19394 1.2385C5.96444 0.907 5.65994 0.65125 5.29769 0.48475C4.97594 0.331 4.61144 0.25 4.24469 0.25C1.90469 0.2755 0.195442 2.8645 0.263692 5.086C0.269692 7.38325 1.41344 9.55675 2.81894 11.539C4.34519 13.6503 6.32744 15.6295 8.44694 17.167C10.9264 18.925 14.0382 20.5135 16.9572 19.3517C18.3612 18.7712 19.7262 17.314 19.7359 15.697C19.7367 15.3693 19.6722 15.0482 19.5297 14.6935ZM18.0837 16.3577C17.7499 17.0747 17.0749 17.686 16.3849 17.9665C14.1882 18.895 11.3104 17.3897 9.33119 15.9557C7.33394 14.5075 5.47094 12.6475 4.03469 10.66C2.81819 8.93125 1.77944 7.066 1.76369 5.086C1.77044 4.03 2.11019 3.12025 2.89919 2.38075C3.32969 1.95625 3.76994 1.75 4.24469 1.75C4.38869 1.75 4.52894 1.78075 4.65944 1.843C4.78694 1.90225 4.88294 1.98175 4.96544 2.10025C5.17994 2.43625 7.24769 5.2285 7.33544 5.5345C7.39469 5.6725 7.40069 5.758 7.40069 5.78875C7.40069 5.86675 7.37369 5.95075 7.30844 6.058C7.15244 6.3565 6.51569 6.94825 6.26669 7.225C5.83919 7.6165 5.75744 8.2585 6.07019 8.88325C6.25994 9.23125 6.57044 9.66175 6.99794 10.1672C7.85369 11.173 8.92019 12.2388 9.81644 12.9948C10.3039 13.4073 10.7397 13.7155 11.0832 13.897C11.5842 14.191 12.3282 14.2173 12.7444 13.7388C13.0069 13.492 13.6594 12.7803 13.9399 12.6663C14.2077 12.5035 14.2774 12.5755 14.4544 12.6483C14.7319 12.7113 17.6149 14.842 17.9202 15.037C18.0754 15.1442 18.1287 15.2373 18.1459 15.2755C18.2082 15.4308 18.2359 15.5612 18.2359 15.6985C18.2367 15.9205 18.1857 16.1425 18.0837 16.3577Z" fill="#181A26"/>
</svg>
