<svg width="22" height="22" viewBox="0 0 22 22" fill="none" xmlns="http://www.w3.org/2000/svg">
<path d="M11 1C5.48241 1 1 5.48241 1 11C1 12.7735 1.48639 14.4286 2.29755 15.8735L1.01613 20.448C0.995663 20.5212 0.994738 20.5985 1.01345 20.6722C1.03217 20.7459 1.06987 20.8133 1.12279 20.8679C1.17572 20.9225 1.24202 20.9622 1.31509 20.9831C1.38816 21.0041 1.46544 21.0055 1.53923 20.9873L6.3091 19.8052C7.71071 20.5534 9.30113 21 11 21C16.5176 21 21 16.5176 21 11C21 5.48241 16.5176 1 11 1ZM11 1.86957C16.0476 1.86957 20.1304 5.95238 20.1304 11C20.1304 16.0476 16.0476 20.1304 11 20.1304C9.38175 20.1304 7.86614 19.7085 6.54857 18.9713C6.45221 18.9174 6.33897 18.9023 6.23183 18.9288L2.05469 19.964L3.17476 15.9677C3.19079 15.9113 3.19521 15.8521 3.18777 15.7939C3.18033 15.7357 3.16117 15.6795 3.13145 15.6289C2.33073 14.2711 1.86957 12.6914 1.86957 11C1.86957 5.95238 5.95238 1.86957 11 1.86957ZM7.36634 5.78261C7.08763 5.78261 6.68958 5.8863 6.3626 6.23862C6.1662 6.45024 5.34783 7.24761 5.34783 8.64946C5.34783 10.111 6.36147 11.3721 6.48404 11.5341L6.48488 11.535C6.48488 11.535 6.64045 11.7618 6.86362 12.0521C7.08679 12.3425 7.39887 12.7238 7.79093 13.1365C8.57505 13.9621 9.67751 14.9163 11.0459 15.4998C11.676 15.7682 12.1731 15.9302 12.5498 16.0484C13.2478 16.2676 13.8835 16.2343 14.3611 16.1639C14.7185 16.1112 15.1117 15.9396 15.5007 15.6934C15.8897 15.4473 16.2709 15.1412 16.439 14.6761C16.5595 14.3427 16.6207 14.0346 16.6428 13.7811C16.6539 13.6543 16.6553 13.5424 16.6471 13.4389C16.6388 13.3353 16.6476 13.2559 16.5511 13.0975C16.3487 12.7651 16.1195 12.7565 15.8803 12.6381C15.7474 12.5723 15.369 12.3875 14.9895 12.2067C14.6104 12.0261 14.2821 11.8661 14.08 11.794C13.9523 11.748 13.7963 11.6819 13.5713 11.7074C13.3463 11.7328 13.1241 11.8952 12.9947 12.087C12.8721 12.2687 12.3784 12.8515 12.2279 13.0228C12.2259 13.0215 12.239 13.0276 12.1795 12.9981C11.9934 12.906 11.7657 12.8277 11.4288 12.65C11.092 12.4723 10.6705 12.2098 10.2094 11.8033C9.52306 11.1991 9.04229 10.4396 8.89062 10.1848C8.90084 10.1726 8.88941 10.1873 8.91101 10.1661L8.91185 10.1653C9.06686 10.0126 9.20423 9.83023 9.32031 9.6965C9.48489 9.5069 9.55753 9.33976 9.63621 9.18359C9.79302 8.87236 9.70571 8.52989 9.61498 8.34969C9.61498 8.34969 9.56607 8.2396 9.50628 8.09834C9.4465 7.95707 9.37029 7.77393 9.28889 7.57863C9.1261 7.18804 8.94436 6.74996 8.83628 6.49338C8.70895 6.19115 8.53669 5.97257 8.31148 5.86753C8.08627 5.76249 7.88729 5.79235 7.87925 5.79195C7.71853 5.78454 7.54132 5.78261 7.36634 5.78261ZM7.36634 6.65217C7.53396 6.65217 7.83764 6.66067 7.83764 6.66067C7.83764 6.66067 7.97117 6.66834 7.94378 6.65557C7.94378 6.65557 7.95371 6.63838 8.03465 6.8305C8.14048 7.08174 8.32312 7.52141 8.48641 7.91321C8.56806 8.10911 8.64447 8.29296 8.7055 8.43716C8.76653 8.58136 8.7996 8.66187 8.83798 8.73862L8.83882 8.74032C8.87645 8.81456 8.87312 8.76703 8.86005 8.79297C8.7683 8.97507 8.75585 9.01978 8.66304 9.1267C8.52173 9.2895 8.37759 9.47104 8.30129 9.5462C8.23454 9.61177 8.1141 9.71393 8.03889 9.91389C7.96357 10.1142 7.99873 10.3889 8.11957 10.5941C8.28045 10.8672 8.81061 11.7301 9.63451 12.4555C10.1534 12.9129 10.6368 13.2156 11.0229 13.4193C11.4091 13.623 11.7236 13.742 11.794 13.7768C11.9611 13.8595 12.1438 13.9238 12.3561 13.8983C12.5685 13.8728 12.7516 13.7439 12.8682 13.6121L12.8691 13.6112C13.0242 13.4354 13.4852 12.909 13.7064 12.5846C13.7157 12.5879 13.7127 12.5853 13.7862 12.6118L13.787 12.6126C13.8206 12.6246 14.241 12.8127 14.6158 12.9913C14.9907 13.17 15.3711 13.3556 15.4947 13.4168C15.6731 13.5051 15.7574 13.5626 15.7792 13.5628C15.7807 13.6011 15.7822 13.6425 15.7767 13.7055C15.7614 13.8801 15.7147 14.1218 15.6213 14.3806C15.5755 14.5073 15.337 14.7685 15.0362 14.9589C14.7354 15.1493 14.3693 15.2837 14.2337 15.3037C13.826 15.3637 13.342 15.3857 12.8105 15.2188C12.4419 15.1031 11.9823 14.9533 11.3872 14.6999C10.1804 14.1852 9.1546 13.3094 8.42187 12.5379C8.05551 12.1521 7.76198 11.7931 7.55316 11.5214C7.34472 11.2503 7.25371 11.1092 7.17782 11.0093L7.17697 11.0085C7.04226 10.8303 6.21739 9.68298 6.21739 8.64946C6.21739 7.55565 6.72543 7.12671 7.00034 6.8305C7.14466 6.675 7.30244 6.65217 7.36634 6.65217Z" fill="#181A26" stroke="#181A26" stroke-width="0.5"/>
</svg>
