<svg width="60" height="60" viewBox="0 0 60 60" fill="none" xmlns="http://www.w3.org/2000/svg">
<g clip-path="url(#clip0_1217_2744)">
<path d="M58.6495 10.2778C57.9329 10.0163 57.3322 10.2618 56.943 10.4702L56.6102 10.6542C56.2434 10.8594 55.8968 11.0539 55.5577 11.1284C52.3479 11.829 49.5315 12.7306 46.9448 13.8873C43.3788 15.4832 40.2052 17.6351 37.5132 20.2824C35.6837 22.0808 34.0546 24.1105 32.5855 26.4264C32.5568 26.4468 32.538 26.4777 32.5294 26.5144C31.8634 27.5706 31.2302 28.6862 30.6269 29.8669C30.0506 30.9939 29.4956 32.1325 28.9406 33.2702C28.2783 34.6289 27.617 35.9877 26.9184 37.3262C26.4411 38.2406 25.8095 39.1932 24.9898 40.2383C24.3838 41.0123 23.5896 41.4621 22.6965 41.5397C22.2553 41.579 22.1692 41.528 22.0363 41.1218C21.8332 40.4935 21.6875 39.9311 21.5929 39.4016C21.002 36.1046 19.5641 31.1281 18.507 28.1721C18.5025 28.1001 18.4937 28.0281 18.4756 27.9563C18.2513 27.0643 17.0935 26.5986 15.0341 26.571C13.2298 26.5476 10.9737 26.8591 8.62407 27.4513C4.29342 28.5408 -0.14568 30.5627 0.169025 32.4637C0.0143307 32.7909 -0.0258049 33.2048 0.0153939 33.7741C0.133408 35.4274 0.267371 37.3007 0.535296 39.1315C1.06902 42.7602 2.08543 45.9083 3.64301 48.7556C5.36751 51.9079 7.91811 54.0567 11.2268 55.1422C12.8726 55.6833 14.6067 55.9513 16.4736 55.9513C17.3465 55.9513 18.2502 55.8917 19.1869 55.7748C22.2957 55.3867 25.1684 54.4894 27.7265 53.1062C30.8459 51.421 33.3167 48.8502 35.2826 45.2438C36.8976 42.2828 37.9012 39.1007 38.8709 35.8293C39.0878 35.0978 39.3004 34.3631 39.513 33.6295C40.2264 31.1661 40.9643 28.6197 41.8499 26.1818C43.8594 20.6437 47.3679 16.8715 52.282 14.9715L52.703 14.8078C54.3977 14.1454 55.9978 13.5171 57.7755 13.7978C57.9403 13.8233 58.0966 13.8084 58.2295 13.7924C59.1109 13.684 59.92 12.8505 59.9955 11.9723C60.0561 11.2793 59.516 10.5957 58.6495 10.2778ZM38.3624 33.8111C36.7562 33.9219 35.1741 34.0917 33.6261 34.3304L33.5602 34.34C32.7426 34.4654 31.8974 34.5941 31.0288 34.3932C30.5793 34.2887 30.1397 34.0463 29.8672 33.7765C29.8749 33.7608 29.8826 33.7454 29.8901 33.7297C30.0623 33.377 30.2351 33.0248 30.4076 32.6724C31.8463 32.1453 33.4815 31.7952 35.2106 31.6235C36.1403 32.1121 37.043 32.3603 37.9012 32.3603C38.2117 32.3603 38.5163 32.3242 38.815 32.2588C38.7101 32.6187 38.6043 32.9802 38.5009 33.3374C38.4552 33.4956 38.4084 33.6529 38.3624 33.8111ZM29.7572 34.0008C30.0642 34.2805 30.5112 34.5197 30.9756 34.6279C31.3233 34.7087 31.6645 34.7395 32.0005 34.7395C32.547 34.7395 33.0775 34.6576 33.5974 34.5779L33.6633 34.5683C35.1763 34.3355 36.7214 34.1693 38.2901 34.0588C38.1742 34.4577 38.0583 34.8567 37.9406 35.2551C36.901 35.299 35.8921 35.4024 34.9232 35.5709C34.6851 35.6124 34.449 35.657 34.212 35.7027C33.3199 35.8739 32.3971 36.0515 31.3934 36.0121C30.6223 35.9842 29.7362 35.7843 29.0528 35.4372C29.2888 34.959 29.5235 34.4803 29.7572 34.0008ZM39.0646 31.4048C37.0137 32.1246 34.8722 30.7328 33.4231 29.4174C33.0135 29.0453 32.7634 28.696 32.6536 28.3465C32.7503 28.1796 32.8481 28.0153 32.9462 27.8513C33.0996 28.0687 33.2918 28.2851 33.5304 28.502C34.784 29.6396 36.5318 30.8293 38.3627 30.8293C38.6633 30.8293 38.9663 30.7924 39.2693 30.7227C39.2015 30.95 39.1313 31.1778 39.0646 31.4048ZM31.5667 30.3434C31.7748 29.9365 31.9872 29.5386 32.2025 29.1474C32.454 29.5524 32.7671 29.8384 32.917 29.9745C33.5666 30.5646 34.2098 31.0465 34.8416 31.4189C33.3114 31.5927 31.8628 31.909 30.5591 32.363C30.8908 31.6876 31.2244 31.0133 31.5667 30.3434ZM27.23 38.8984C27.7174 39.5855 28.35 40.0339 28.9247 40.2532C30.0379 40.6774 31.2361 40.5116 32.2929 40.3627L36.5108 39.7724C35.9668 41.3191 35.3504 42.8243 34.5998 44.2694C33.6604 44.5352 32.7041 44.7032 31.7368 44.7686C30.5652 44.8483 27.7148 44.7569 26.5803 42.1755C26.3576 41.6678 26.2202 41.0958 26.0931 40.5342C26.5229 39.9688 26.9004 39.426 27.23 38.8984ZM8.88136 28.4744C11.0652 27.9247 13.1724 27.6249 14.8406 27.6249C14.9012 27.6249 14.9596 27.6249 15.0192 27.6259C16.8915 27.6504 17.4156 28.0693 17.4518 28.2139C17.6038 28.8188 15.0341 30.7198 9.77976 32.0424C7.51729 32.6123 5.34306 32.9079 3.64195 32.8909C1.76966 32.8664 1.24551 32.4475 1.20936 32.3029C1.05732 31.698 3.62706 29.797 8.88136 28.4744ZM14.452 31.6081C14.7491 32.5222 14.9487 33.4751 15.0213 34.429C15.0468 34.765 15.0011 34.9745 14.8873 35.0521C14.8416 35.0818 14.798 35.0903 14.747 35.0765C14.5854 35.0329 14.377 34.7884 14.2037 34.4354C13.8175 33.6497 13.3061 32.9313 12.7187 32.27C13.3202 32.0632 13.9031 31.8418 14.452 31.6081ZM1.06796 33.6989C1.06291 33.6284 1.05892 33.5649 1.05599 33.5043C1.63783 33.7821 2.49556 33.9304 3.62706 33.9455C3.69085 33.9466 3.75358 33.9466 3.81844 33.9466C4.30166 33.9466 4.82129 33.9208 5.36405 33.8748C4.76096 34.0731 4.16504 34.3195 3.57816 34.6143C3.39422 34.7057 3.21135 34.8035 3.02848 34.9003C2.44001 35.2123 1.83292 35.5337 1.21654 35.6775C1.16019 34.9962 1.11288 34.3312 1.06796 33.6989ZM4.4537 48.0249C4.20012 47.5502 3.96383 47.0651 3.74082 46.5712C5.53549 46.4631 7.23634 46.1659 8.73039 45.667C9.05148 45.5585 9.37788 45.4331 9.54055 45.1928C9.6458 45.0323 9.66281 44.8398 9.58626 44.6368C9.4119 44.1732 8.74634 43.6799 8.03719 43.4885C7.12497 43.2429 6.25315 43.345 5.41004 43.4439L5.34944 43.4502C4.45795 43.555 3.55636 43.6371 2.64573 43.698C2.52878 43.3253 2.41821 42.9473 2.31561 42.563C2.92296 42.5308 3.52021 42.4793 4.10125 42.4006C4.34153 42.3676 4.57968 42.3315 4.81997 42.2943C5.71411 42.1582 6.63909 42.0157 7.63743 42.0901C8.85159 42.1784 10.355 42.6983 10.8802 43.5212C11.0418 43.7742 11.1088 44.0507 11.0949 44.4164C11.0428 45.9676 9.72767 47.2594 7.66188 47.7878C6.70634 48.0323 5.60168 48.1038 4.4537 48.0249ZM3.63663 46.344C3.29455 45.5657 2.98675 44.7649 2.7175 43.934C3.61324 43.8731 4.50101 43.7928 5.37894 43.6897L5.43848 43.6823C6.25926 43.5855 7.10769 43.4866 7.97526 43.7206C8.60573 43.8907 9.21388 44.3298 9.36166 44.72C9.41057 44.8518 9.40313 44.9624 9.33934 45.0591C9.22132 45.2367 8.93532 45.344 8.65358 45.4387C7.15368 45.9389 5.44406 46.2403 3.63663 46.344ZM4.58473 48.2761C4.82236 48.292 5.05865 48.3029 5.29096 48.3029C6.1564 48.3029 6.98356 48.2104 7.72248 48.0212C9.89565 47.4651 11.2799 46.0862 11.3352 44.4244C11.3458 44.1671 11.3299 43.778 11.0843 43.3931C10.5166 42.5032 8.92921 41.944 7.6555 41.8504C6.62314 41.776 5.68966 41.9184 4.78382 42.0567C4.54566 42.0928 4.30857 42.1289 4.06829 42.1619C3.47901 42.2422 2.87273 42.294 2.25581 42.3256C1.97938 41.2563 1.75106 40.1453 1.57935 38.9776C1.5557 38.8176 1.53443 38.6571 1.5129 38.4963L6.84216 37.9463C7.92449 37.8358 9.04084 37.7199 10.0892 38.1611C11.231 38.6417 12.1082 39.8388 12.324 41.2114C12.3336 41.271 12.3857 41.3135 12.4431 41.3135C12.4494 41.3135 12.4558 41.3135 12.4622 41.3124C12.5281 41.3028 12.5728 41.2412 12.5632 41.1753C12.2868 39.4114 11.1513 38.3472 10.1827 37.94C9.07806 37.4743 7.87558 37.5987 6.81771 37.7071L1.48074 38.2571C1.3808 37.4751 1.30319 36.6896 1.23753 35.9215C1.23833 35.9212 1.2394 35.9212 1.24019 35.921C1.90044 35.7721 2.53091 35.4372 3.14118 35.114C3.32299 35.0172 3.5048 34.9216 3.6866 34.8291C5.20803 34.0646 6.79325 33.6287 8.39974 33.5341C9.7064 33.4575 12.0454 33.6957 12.963 36.191C13.1682 36.7503 13.2809 37.3839 13.3872 37.9963C13.4978 38.6225 13.6115 39.2711 13.8273 39.8527C14.1165 40.633 14.7502 41.238 15.3328 41.2922C15.3615 41.2943 15.3902 41.2954 15.4179 41.2954C15.7464 41.2954 16.0324 41.1168 16.2312 40.784C16.4651 40.3928 16.5321 39.8601 16.5778 39.3923C16.7809 37.3052 16.7607 35.1927 16.5172 33.112C16.5098 33.0461 16.4449 32.9972 16.3843 33.0057C16.3184 33.0131 16.2706 33.0737 16.278 33.1396C16.5193 35.2022 16.5385 37.2989 16.3375 39.3689C16.2961 39.8112 16.2323 40.3109 16.0239 40.6596C15.8549 40.9456 15.6188 41.0785 15.3552 41.0509C14.8682 41.0062 14.309 40.4544 14.0538 39.7676C13.8454 39.2073 13.7338 38.5704 13.6253 37.9538C13.5158 37.3308 13.4021 36.6865 13.1894 36.107C12.3559 33.8427 10.3714 33.3533 9.08444 33.2896C9.4002 33.2197 9.71757 33.1455 10.0371 33.0652C10.8557 32.8592 11.6781 32.62 12.4718 32.3545C13.0738 33.0206 13.5953 33.7467 13.9879 34.5431C14.0868 34.744 14.3536 35.2214 14.6843 35.3107C14.7204 35.3203 14.7566 35.3256 14.7927 35.3256C14.8725 35.3256 14.9501 35.3011 15.0224 35.2533C15.2807 35.0779 15.2829 34.6887 15.2627 34.4112C15.1877 33.4307 14.9822 32.4512 14.6747 31.5119C16.0497 30.9091 17.1929 30.2334 17.864 29.5368C18.2845 30.7876 18.7396 32.2649 19.164 33.776C18.5487 34.9048 18.107 36.2181 17.9108 37.6359C17.9012 37.7018 17.947 37.7624 18.0139 37.772C18.0192 37.773 18.0256 37.773 18.0309 37.773C18.0905 37.773 18.1415 37.7295 18.15 37.6689C18.3305 36.3728 18.7186 35.1672 19.2581 34.1159C19.5194 35.0584 19.7661 36.0052 19.9835 36.9119C19.8639 37.8469 19.8766 38.845 19.9115 39.7814C19.988 41.8525 20.1092 43.9555 20.2687 46.0319C20.4952 48.9687 20.8888 51.9212 21.9786 54.1842C21.2439 54.366 20.4917 54.5144 19.7235 54.6308C19.5383 54.348 19.3474 53.9915 19.2417 53.5732C19.0492 52.8098 19.1566 51.9635 19.2597 51.1448C19.2852 50.9418 19.3108 50.7387 19.331 50.5367C19.5011 48.9142 19.3724 47.2504 18.961 45.7236C18.676 44.67 18.2975 44.0512 17.8021 43.8343C16.841 43.4186 15.984 44.6551 15.4684 45.393C13.3298 48.4552 10.7505 50.7918 7.93698 52.2636C6.59603 51.2395 5.48606 49.9166 4.58473 48.2761ZM13.8518 54.6877C14.2819 54.2103 14.6524 53.6444 14.9501 52.9935C14.9767 52.9329 14.9511 52.8616 14.8895 52.834C14.8321 52.8042 14.7576 52.8319 14.73 52.8935C14.4246 53.5636 14.0243 54.1678 13.5716 54.6409C12.8843 54.5183 12.2137 54.3554 11.5611 54.1417C12.5784 53.4182 13.4571 52.3234 14.3124 51.2573C15.0152 50.3812 15.7414 49.4743 16.5366 48.7853C16.6302 48.7024 16.6706 48.7077 16.6748 48.7109C16.7025 48.7407 16.7195 48.8204 16.7237 48.9491C16.7578 49.7337 16.7046 50.5354 16.6546 51.3104C16.6142 51.9303 16.5717 52.5735 16.5738 53.2072C16.5752 53.6542 16.6084 54.2629 16.7237 54.8883C15.7267 54.9014 14.772 54.8344 13.8518 54.6877ZM19.0551 54.7289C18.3385 54.8182 17.6445 54.8703 16.9691 54.8878C16.8699 54.3823 16.8157 53.8172 16.8139 53.2064C16.8117 52.5801 16.8543 51.9433 16.8947 51.3256C16.9457 50.5452 16.9988 49.7372 16.9638 48.9398C16.9584 48.793 16.9414 48.6442 16.8511 48.5464C16.782 48.473 16.6278 48.3805 16.3779 48.6038C15.5667 49.3066 14.8342 50.2209 14.125 51.1066C13.241 52.2096 12.3298 53.3427 11.2783 54.0426C10.1253 53.6367 9.08709 53.0987 8.15653 52.4231C10.9623 50.9295 13.5323 48.5865 15.6653 45.5312C16.2799 44.653 16.9975 43.7429 17.7045 44.0555C18.1234 44.2383 18.4679 44.821 18.7284 45.7863C19.1324 47.2844 19.2579 48.9185 19.092 50.5112C19.0697 50.711 19.0452 50.912 19.0197 51.114C18.9134 51.955 18.8049 52.8236 19.007 53.6316C19.109 54.0362 19.2834 54.3854 19.4607 54.6693C19.3254 54.6885 19.1917 54.7118 19.0551 54.7289ZM27.2257 52.1793C25.9919 52.8459 24.6802 53.3935 23.3012 53.8212C23.4328 52.8956 23.7621 52.0483 24.3445 51.5371C25.1822 50.8014 26.1912 51.0683 26.7164 51.2937C27.0689 51.4439 27.4112 51.6533 27.7459 51.8851C27.5744 51.9861 27.4014 52.0844 27.2257 52.1793ZM31.3868 48.9366C31.0495 48.885 30.7135 48.8164 30.3791 48.7237C27.9593 48.0539 25.9881 46.2443 24.9739 43.7607C24.8729 43.5151 24.6645 43.0941 24.3891 43.0324C24.3136 43.0175 24.203 43.0186 24.0914 43.1206C23.8883 43.3088 23.8852 43.6894 23.9 43.9595C23.9851 45.4288 24.2945 46.8822 24.7952 48.1623C24.8197 48.224 24.8899 48.2559 24.9505 48.2304C25.0132 48.207 25.043 48.1368 25.0185 48.0741C24.5273 46.8174 24.2232 45.3906 24.1403 43.9457C24.1201 43.6033 24.1595 43.3864 24.2541 43.2982C24.2955 43.2578 24.3211 43.2642 24.3349 43.2684C24.4508 43.2939 24.6177 43.5289 24.7495 43.8521C25.7925 46.4059 27.8211 48.2665 30.3132 48.9565C30.6045 49.0373 30.8969 49.0987 31.1898 49.1497C30.212 50.1693 29.1416 51.03 27.9718 51.7461C27.5992 51.4829 27.2151 51.2424 26.8132 51.0709C25.8265 50.6488 24.8718 50.753 24.185 51.3537C23.5378 51.9218 23.1829 52.8709 23.0529 53.8916C22.7765 53.974 22.499 54.0543 22.2173 54.1271C21.1275 51.8944 20.7352 48.9475 20.5095 46.0133C20.3511 43.9401 20.2299 41.8403 20.1533 39.7713C20.1268 39.0627 20.1204 38.3528 20.1624 37.6744C20.3157 38.3512 20.4497 38.9965 20.5552 39.5853C20.6584 40.1626 20.8147 40.7707 21.0337 41.4458C21.2848 42.2132 21.7372 42.5766 22.4748 42.597C22.5232 43.5108 22.6136 44.4223 22.7571 45.3265C22.7677 45.3924 22.8337 45.4413 22.8953 45.4264C22.9612 45.4158 23.0059 45.3541 22.9963 45.2893C22.8547 44.3951 22.7645 43.4938 22.7162 42.5898C22.7409 42.5882 22.7627 42.5898 22.7879 42.5877C23.9798 42.4835 25.0281 41.8956 25.8212 40.8866C25.8494 40.8507 25.8755 40.8159 25.9031 40.7803C26.0216 41.2898 26.1556 41.8025 26.3613 42.2709C27.5574 44.9927 30.5301 45.0915 31.7538 45.0086C32.6658 44.9464 33.5671 44.7904 34.4538 44.5517C34.4203 44.6142 34.3903 44.6782 34.3565 44.7407C33.4757 46.3557 32.4896 47.7477 31.3868 48.9366ZM36.6004 39.5167L32.261 40.1235C31.1829 40.2755 30.0687 40.4318 29.0108 40.0278C28.3561 39.7774 27.7873 39.2889 27.3727 38.6643C27.5463 38.3764 27.7076 38.092 27.8541 37.8111C28.2278 37.0953 28.5903 36.3741 28.9483 35.6506C29.6687 36.0151 30.5875 36.2237 31.3849 36.2524C32.4098 36.2907 33.3508 36.1121 34.2566 35.9398C34.4926 35.8952 34.7276 35.8505 34.9647 35.8091C35.8971 35.6483 36.8689 35.547 37.8685 35.5013C37.8656 35.5114 37.8627 35.5215 37.8598 35.5316C37.46 36.8808 37.0517 38.2119 36.6004 39.5167ZM58.1019 12.7497C58.0679 12.7529 57.9754 12.7667 57.9403 12.7593C55.8798 12.4371 54.0713 13.1442 52.3192 13.8289L51.9035 13.9905C46.6938 16.0063 42.9769 19.9869 40.859 25.8238C40.3147 27.3245 39.8301 28.8587 39.3698 30.3881C37.2904 30.9691 35.1765 29.5891 33.7325 28.2787C33.5302 28.0951 33.2952 27.8585 33.1145 27.5722C34.6343 25.0788 36.3298 22.9213 38.2531 21.0309C40.8558 18.4718 43.9253 16.3912 47.3764 14.8463C49.8951 13.7204 52.6445 12.8401 55.7831 12.1554C56.2775 12.047 56.7091 11.8045 57.127 11.5706L57.4406 11.3973C57.7946 11.2092 58.0349 11.1709 58.288 11.2644C58.7143 11.4197 58.962 11.7078 58.9461 11.8843C58.9121 12.2734 58.4942 12.7019 58.1019 12.7497Z" fill="#181A26"/>
<path d="M39.899 20.1348C37.9586 21.8178 36.182 23.9708 34.4682 26.7149C34.4235 26.785 34.4458 26.8775 34.516 26.9222C34.5405 26.9371 34.5692 26.9445 34.5957 26.9445C34.6457 26.9445 34.6957 26.9201 34.7223 26.8754C36.4212 24.1568 38.1787 22.0262 40.0956 20.3623C40.1594 20.307 40.1658 20.2124 40.1116 20.1496C40.0552 20.088 39.9617 20.0795 39.899 20.1348Z" fill="#181A26"/>
<path d="M44.6589 16.7196C43.3884 17.5107 42.3018 18.2474 41.3375 18.9715C41.2715 19.0215 41.2577 19.1161 41.3077 19.182C41.3364 19.2213 41.3821 19.2426 41.4278 19.2426C41.4587 19.2426 41.4916 19.232 41.5182 19.2118C42.4751 18.4941 43.5553 17.7616 44.8184 16.9748C44.8885 16.9312 44.9109 16.8377 44.8662 16.7675C44.8226 16.6962 44.728 16.675 44.6589 16.7196Z" fill="#181A26"/>
<path d="M4.36376 32.4613C4.54982 32.4613 4.76033 32.4539 4.99742 32.4369C6.14461 32.3614 7.62776 32.1062 9.17365 31.7171C9.41712 31.6554 15.1616 30.1946 14.8352 28.8986C14.766 28.6179 14.4652 28.2617 12.6896 28.3744C11.5414 28.451 10.0572 28.7061 8.51234 29.0952C6.08082 29.7076 3.41007 30.6879 2.92738 31.4959C2.82213 31.6735 2.82851 31.8223 2.8519 31.9148C2.9125 32.1583 3.14534 32.4613 4.36376 32.4613ZM9.03968 31.1919C6.73574 31.7716 5.03676 31.9433 4.12427 31.9271C4.71328 31.5536 6.39845 30.8897 8.9238 30.2541C11.3107 29.6532 13.0426 29.431 13.8097 29.4426C13.053 29.9041 11.4428 30.5869 9.03968 31.1919ZM8.64524 29.6226C10.7865 29.0836 12.4068 28.8964 13.3594 28.8964C13.874 28.8964 14.1962 28.9507 14.2993 29.0336C14.2799 29.0793 14.2302 29.1364 14.1539 29.2021C12.9113 28.9499 9.04181 29.9144 8.8515 29.9628C7.42363 30.3222 6.09995 30.7336 5.12288 31.1228C4.24654 31.4715 3.85449 31.715 3.69315 31.8997C3.5241 31.8776 3.41778 31.8444 3.37924 31.8043C3.44729 31.48 5.26641 30.4731 8.64524 29.6226Z" fill="#181A26"/>
<path d="M9.27055 6.04207C11.213 8.25139 11.4108 11.6068 9.72878 13.847C8.31155 15.7331 8.03831 17.9126 8.91651 20.3271C8.94946 20.4196 8.99199 20.5089 9.03452 20.5972L9.80852 22.2855L9.80321 20.5387C9.79683 18.6909 10.6336 17.1886 12.3613 15.9478C12.7195 15.6916 13.0343 15.396 13.3692 15.0824C14.1666 14.3382 14.6067 13.3855 14.679 12.2511C14.897 8.85209 12.7185 6.00061 8.85271 4.62377L7.2356 4.04858L8.76447 5.53706C8.94946 5.71142 9.11851 5.86983 9.27055 6.04207ZM13.9273 12.2033C13.8667 13.1527 13.5159 13.915 12.8227 14.5614C12.5356 14.8304 12.239 15.1079 11.9211 15.3354C10.5379 16.3295 9.6618 17.481 9.27693 18.8259C8.95691 17.1535 9.30563 15.664 10.3306 14.2999C12.0816 11.9662 12.0295 8.56609 10.2859 6.11331C12.0019 7.09889 14.1325 8.9818 13.9273 12.2033Z" fill="#181A26"/>
<path d="M3.96187 12.2872C3.76837 13.4673 3.17936 14.59 2.16082 15.7202C1.66643 16.2699 1.09125 17.0237 1.03171 17.988C0.907313 20.0219 2.40004 21.5742 3.53234 22.5651L4.32973 23.2625L4.11816 22.0164C3.95017 21.0319 3.88 19.9996 4.50835 19.1139C4.91024 18.5472 5.46735 17.9678 6.25837 17.2927C7.91801 15.8786 8.51234 14.1679 8.02858 12.2064C7.54377 10.2341 5.16009 8.2938 2.59992 7.78666L0.642578 7.39966L2.32455 8.47455C4.1256 9.62492 4.17557 10.9869 3.96187 12.2872ZM7.3003 12.3882C7.71494 14.0733 7.21524 15.4906 5.77249 16.7207C4.9315 17.4373 4.33505 18.0592 3.89489 18.6791C3.308 19.5041 3.20381 20.4142 3.26548 21.2743C2.17996 20.1442 1.71853 19.1203 1.78445 18.0348C1.81953 17.4638 2.10979 16.9057 2.72218 16.2252C3.8396 14.9845 4.48815 13.7363 4.7061 12.4105C4.87196 11.4036 4.90917 10.1959 4.09158 9.07525C5.68105 9.82906 6.98665 11.1219 7.3003 12.3882Z" fill="#181A26"/>
</g>
<defs>
<clipPath id="clip0_1217_2744">
<rect width="60" height="60" fill="white"/>
</clipPath>
</defs>
</svg>
