<svg width="629" height="517" viewBox="0 0 629 517" fill="none" xmlns="http://www.w3.org/2000/svg">
<path d="M538.935 89.2674C536.766 87.9663 533.854 88.6478 532.553 90.8164L520.719 110.272C519.418 112.44 520.1 115.29 522.268 116.653C524.437 117.954 527.287 117.273 528.65 115.104L540.484 95.6492C541.847 93.4806 541.166 90.6305 538.935 89.2674Z" fill="white"/>
<path d="M561.737 116.406C560.56 114.113 557.71 113.308 555.479 114.485C549.531 117.645 542.901 119.566 536.21 120.061C533.67 120.247 531.749 122.478 531.935 125.018C532.121 127.372 534.103 129.417 536.891 129.293C544.822 128.673 552.753 126.381 559.816 122.663C562.109 121.486 562.976 118.636 561.737 116.406V116.406Z" fill="white"/>
<path d="M535.407 149.12C541.355 148.439 547.613 149.802 552.631 152.962C554.8 154.325 557.65 153.705 559.013 151.475C560.376 149.306 559.695 146.456 557.526 145.093C550.587 140.756 542.346 138.897 534.23 139.888C531.689 140.198 529.892 142.491 530.202 145.031C530.512 147.633 532.866 149.43 535.407 149.12V149.12Z" fill="white"/>
<path d="M461.611 376.509C465.143 373.349 467.869 369.384 469.48 364.861C473.941 355.567 475.862 344.848 476.977 334.129C477.349 332.89 477.597 331.651 478.03 330.412C478.092 330.164 478.092 329.854 478.092 329.606C478.774 329.42 479.393 329.173 480.013 328.987C483.297 328.491 486.519 327.5 489.555 325.641C502.752 317.524 504.611 299.494 505.602 289.829C519.233 158.166 520.348 155.006 518.366 137.967C514.152 102.155 490.67 83.4434 456.84 82.638C440.855 82.2662 425.427 85.9218 410.495 89.5154C400.396 91.9318 387.88 94.9058 379.268 103.952C370.346 113.37 368.239 126.567 366.566 137.162L348.164 252.839C346.182 265.417 343.146 284.376 351.51 298.379C351.944 298.999 352.254 299.99 355.29 303.46C361.114 316.285 374.373 322.047 388.066 325.331C387.694 326.384 387.384 327.438 387.198 328.491C383.233 346.893 378.524 369.756 392.775 382.457C395.873 385.245 399.59 387.104 403.494 388.467V438.84C384.41 440.699 357.086 445.469 357.086 457.799C357.086 459.224 357.582 460.587 358.326 461.827C357.52 466.721 359.255 471.492 365.513 475.582C371.771 479.671 379.516 480.476 386.951 481.158C420.904 484.194 455.911 486.796 488.254 476.263C496.432 473.599 504.673 469.448 505.168 460.773C505.54 459.844 505.726 458.853 505.726 457.861C505.726 444.168 471.958 439.769 453.371 438.406V383.511C459.133 379.793 460.682 377.563 461.611 376.509V376.509ZM397.855 359.78C399.652 349.185 402.255 338.714 405.6 328.491C419.169 330.412 432.8 331.527 446.493 331.899C438.686 369.942 438.872 373.597 435.712 375.952C433.854 377.315 430.694 377.377 427.534 377.191C420.532 376.819 413.531 375.952 406.654 374.588C398.351 372.854 395.997 370.933 397.855 359.78ZM455.973 332.023C460.062 332.023 464.028 331.961 468.117 331.527C465.515 340.635 463.222 349.867 461.425 359.161C460.062 366.41 454.486 372.048 447.361 373.783C448.228 370.995 447.856 372.172 455.973 332.023ZM470.1 320.189C459.876 310.833 452.813 293.36 453.742 280.535C467.373 285.925 476.172 303.707 483.297 318.33C479.579 320.127 474.994 320.312 470.1 320.189ZM457.646 320.065C449.281 320.127 442.032 320.189 435.65 320.003C423.568 308.85 417.496 291.254 420.223 275.02C420.223 274.835 420.223 274.711 420.223 274.525C428.773 275.516 436.952 276.817 444.634 278.304C442.962 292.617 449.157 308.85 457.646 320.065V320.065ZM422.577 319.197C411.177 318.02 404.299 316.099 396.616 314.055C395.749 311.948 382.675 296.892 381.188 271.923C391.35 272.17 401.387 272.728 411.053 273.657C408.45 289.457 412.911 306.31 422.577 319.197V319.197ZM371.833 271.737C372.514 285.058 376.418 298.255 383.047 309.903C361.424 302.22 354.546 292.245 355.29 271.984C360.804 271.799 366.318 271.737 371.833 271.737ZM386.083 110.334C392.775 103.27 403.803 100.606 412.726 98.4995C427.1 95.0917 442.032 91.4361 456.716 91.8699C472.702 92.2416 486.333 97.4462 495.193 106.43C504.735 116.158 508.08 129.479 509.196 138.959C510.683 151.474 509.32 164.424 508.018 177.001C495.441 295.281 496.866 301.415 490.484 311.7C483.483 297.512 474.932 281.34 461.363 273.781C462.169 266.78 462.974 259.779 463.78 252.715C468.613 254.636 474.808 257.734 478.216 260.088C480.323 261.575 483.235 261.018 484.66 258.911C486.147 256.805 485.589 253.892 483.483 252.467C478.96 249.308 470.657 245.218 464.833 243.174C465.824 234.19 466.754 225.205 467.683 216.221C472.392 218.452 476.915 220.992 481.19 223.842C483.297 225.267 486.209 224.772 487.634 222.603C489.059 220.497 488.563 217.585 486.395 216.159C481.19 212.628 475.676 209.53 469.914 206.928C469.48 206.742 469.046 206.68 468.551 206.618C469.48 197.51 470.347 188.34 471.215 179.232C475.986 180.347 480.633 182.392 484.66 185.242C485.465 185.8 486.395 186.047 487.324 186.047C491.847 186.047 493.706 180.223 489.988 177.559C483.607 173.16 475.862 170.372 472.082 169.876C473.012 159.467 473.879 149.12 474.746 138.773L488.625 146.951C490.856 148.252 493.706 147.509 495.007 145.34C496.308 143.11 495.565 140.26 493.334 138.959L476.295 128.921C476.048 128.797 475.8 128.735 475.49 128.673C476.11 120.557 476.791 112.502 477.349 104.386C477.535 101.845 475.614 99.6147 473.012 99.4288C470.533 99.3049 468.241 101.164 468.055 103.766C464.152 159.095 458.885 215.044 452.317 270.25C451.574 270.126 414.46 260.708 356.033 262.505C356.653 257.796 357.334 253.831 358.883 244.103C360.68 244.537 356.157 244.413 395.625 242.43C398.165 242.306 400.148 240.076 400.024 237.535C399.9 234.995 397.732 232.888 395.129 233.136L360.308 234.995L363.282 216.221C363.592 216.283 363.902 216.407 364.212 216.407C366.132 216.407 384.596 211.327 411.177 213.247C413.717 213.433 415.947 211.513 416.133 208.972C416.319 206.432 414.398 204.201 411.858 204.016C396.121 202.9 380.321 203.892 364.769 206.99L368.673 182.578C377.781 180.595 387.384 179.48 397.174 179.356C399.714 179.294 401.759 177.187 401.759 174.647C401.697 172.107 399.652 170.062 397.112 170.062C390.42 170.062 380.011 170.991 370.284 172.85L374.063 148.996C390.792 141.933 409.132 139.145 427.162 140.879C429.702 141.189 431.995 139.268 432.243 136.728C432.49 134.188 430.632 131.895 428.091 131.647C410.433 129.913 392.465 132.267 375.798 138.339C377.657 127.001 379.701 117.087 386.083 110.334V110.334ZM448.662 453.71C451.202 453.71 453.309 451.603 453.309 449.063V447.638C481.5 449.807 494.202 455.197 496.246 457.799C493.272 461.889 470.1 468.766 431.375 468.766C392.589 468.766 369.416 461.889 366.504 457.799C368.363 455.507 379.268 450.55 403.494 448.134V451.541C403.494 454.082 405.6 456.188 408.141 456.188C410.681 456.188 412.788 454.082 412.788 451.541V390.512C424.622 392.185 435.217 391.008 444.015 387.91V449.125C444.015 451.603 446.121 453.71 448.662 453.71Z" fill="white"/>
<ellipse cx="271.772" cy="479.451" rx="199.233" ry="9.43997" fill="white"/>
</svg>
