<svg width="155" height="180" viewBox="0 0 155 180" fill="none" xmlns="http://www.w3.org/2000/svg">
<path d="M49.8763 53.2141C50.2524 53.262 50.6311 53.286 51.0103 53.2861C53.4623 53.2198 55.8071 52.2669 57.6103 50.6041C58.9734 49.4307 60.0738 47.9832 60.8399 46.356C61.6059 44.7287 62.0204 42.9583 62.0563 41.1601C62.0563 36.0001 58.9963 30.2761 52.1383 29.2501H51.9523C51.3044 29.1565 50.6509 29.1063 49.9963 29.1001C44.7223 29.1001 38.7043 33.3001 37.9423 41.1001C37.4323 46.2361 41.3683 52.0621 49.8763 53.2141ZM52.2043 51.4141C52.3363 51.2701 52.4623 51.1201 52.5883 50.9761L54.2983 50.7181C53.6341 51.035 52.9295 51.2591 52.2043 51.3841V51.4141ZM56.4463 49.2781C56.1915 49.502 55.9252 49.7123 55.6483 49.9081L53.1823 50.2801C53.6679 49.6916 54.1206 49.0767 54.5383 48.4381L57.7063 47.9641C57.321 48.4249 56.8997 48.8542 56.4463 49.2481V49.2781ZM58.9603 35.9521L56.6383 36.3061C56.4816 35.7788 56.2973 35.2601 56.0863 34.7521L57.9763 34.4701C58.3479 34.9231 58.6773 35.4091 58.9603 35.9221V35.9521ZM59.8123 38.0701L57.1003 38.4781C57.0303 37.9429 56.9301 37.412 56.8003 36.8881L59.2423 36.5161C59.4714 37.0086 59.662 37.5181 59.8123 38.0401V38.0701ZM60.1963 40.2001L57.1963 40.6561V40.3381C57.1963 39.8941 57.1963 39.4561 57.1543 39.0241L59.9503 38.6041C60.0707 39.1295 60.1529 39.6629 60.1963 40.2001ZM60.2383 41.1421C60.2344 41.5799 60.2003 42.017 60.1363 42.4501L56.8843 42.9421C57.0043 42.3901 57.0885 41.8309 57.1363 41.2681L60.2443 40.8001C60.2503 40.9321 60.2563 41.0461 60.2563 41.1601L60.2383 41.1421ZM56.7283 43.5421L60.0283 43.0441C59.9129 43.6276 59.7462 44.1998 59.5303 44.7541L56.1643 45.2641C56.3925 44.7186 56.5868 44.1595 56.7463 43.5901L56.7283 43.5421ZM55.8883 45.9421L59.2663 45.4321C58.9737 46.0625 58.6242 46.665 58.2223 47.2321L54.9463 47.7301C55.2975 47.1576 55.618 46.5668 55.9063 45.9601L55.8883 45.9421ZM55.8163 34.1341C55.5825 33.6228 55.3222 33.1242 55.0363 32.6401L55.8703 32.5141C56.473 32.907 57.0251 33.3725 57.5143 33.9001L55.8163 34.1341ZM39.7303 41.2501C40.2223 36.2341 43.9963 30.9001 49.9963 30.9001C50.5257 30.9017 51.0546 30.9337 51.5803 30.9961L51.6523 31.0801L51.7183 31.1521C48.873 31.2006 46.1504 32.3188 44.0923 34.2841C44.0491 34.3257 44.0194 34.3793 44.007 34.438C43.9946 34.4966 44 34.5577 44.0226 34.6132C44.0452 34.6687 44.0839 34.7162 44.1338 34.7495C44.1836 34.7828 44.2423 34.8005 44.3023 34.8001C44.3801 34.7982 44.4547 34.7684 44.5123 34.7161C46.5966 32.7521 49.3713 31.6892 52.2343 31.7581C57.5803 37.7101 55.4683 46.5301 49.6903 51.3661C44.2663 50.4841 39.1963 46.8001 39.7303 41.2501Z" fill="#101010"/>
<path d="M67.0086 61.6201C60.2706 55.0441 50.5986 55.1341 49.9986 55.1401C49.4406 55.1401 28.8546 55.6021 26.8086 78.2821C26.7925 78.4533 26.8264 78.6256 26.9063 78.7779C26.9862 78.9302 27.1086 79.056 27.2586 79.1401C27.6066 79.3441 36.0246 84.0541 49.9746 84.8401C50.7006 84.8821 51.4326 84.9001 52.1646 84.9001C56.8856 84.8884 61.5674 84.0434 65.9946 82.4041C68.3796 81.5636 70.662 80.4566 72.7986 79.1041C72.9203 79.0218 73.0201 78.911 73.0891 78.7813C73.1581 78.6516 73.1943 78.507 73.1946 78.3601C73.2186 71.2801 71.1306 65.6461 67.0086 61.6201ZM71.4126 77.8681C70.9326 78.1621 70.0086 78.6841 68.7426 79.2901L66.5046 79.6321C66.4746 79.0801 66.4386 78.5401 66.3846 78.0121L71.3946 77.2561C71.4006 77.4601 71.4126 77.6581 71.4126 77.8681ZM69.3366 67.9921L63.9786 68.8021C63.7446 68.2741 63.4986 67.7641 63.2406 67.2781L68.5386 66.4741C68.8266 66.9661 69.0966 67.4701 69.3366 67.9921ZM70.1886 70.1041L64.8246 70.9141C64.6386 70.3861 64.4406 69.8701 64.2246 69.3721L69.6246 68.5561C69.7986 69.0601 70.0086 69.6001 70.1886 70.1041ZM70.3686 70.7041C70.5246 71.2141 70.6626 71.7361 70.7826 72.2761L65.4846 73.0741C65.3406 72.5401 65.1906 72.0181 65.0226 71.5081L70.3686 70.7041ZM70.9026 72.8641C71.0106 73.3861 71.1006 73.9141 71.1726 74.4601L65.9766 75.2401C65.8746 74.7061 65.7666 74.1721 65.6406 73.6561L70.9026 72.8641ZM71.3706 76.6681L66.3126 77.4001C66.2526 76.8541 66.1746 76.3201 66.0906 75.7981L71.2386 75.0181C71.2986 75.5641 71.3466 76.1041 71.3706 76.6501V76.6681ZM62.9346 66.7141C62.6466 66.1981 62.3346 65.6941 62.0346 65.2141L67.1406 64.4461C67.5201 64.9193 67.8746 65.4119 68.2026 65.9221L62.9346 66.7141ZM61.6686 64.6621C61.3206 64.1521 60.9606 63.6601 60.5946 63.1921L65.2866 62.4841L65.7606 62.9221C66.0846 63.2401 66.3606 63.5701 66.6846 63.9061L61.6686 64.6621ZM60.1566 62.6521C59.7306 62.1421 59.2986 61.6621 58.8666 61.2121L62.8386 60.6121C63.4841 61.0253 64.1033 61.4781 64.6926 61.9681L60.1566 62.6521ZM58.3566 60.6841C57.8406 60.1721 57.3306 59.7041 56.8266 59.2801L59.4846 58.8781C60.3634 59.2367 61.2174 59.6537 62.0406 60.1261L58.3566 60.6841ZM56.2086 58.7641C55.5666 58.2481 54.9486 57.7981 54.3666 57.4081H54.4386C55.7672 57.6562 57.075 58.0052 58.3506 58.4521L56.2086 58.7641ZM50.0466 83.0401C38.4366 82.3921 30.6426 78.8401 28.6326 77.8441C30.7566 58.0081 47.8326 57.0001 49.8366 56.9401C51.2586 57.5401 62.7606 62.7061 64.5306 77.6341C64.6566 78.7201 64.7286 79.8301 64.7466 80.9281C60.0296 82.5775 55.0371 83.2948 50.0466 83.0401Z" fill="#101010"/>
<path d="M34.7974 70.0621C34.7622 70.0439 34.7235 70.033 34.6839 70.0301C34.6443 70.0272 34.6045 70.0323 34.567 70.0452C34.5294 70.0581 34.4948 70.0785 34.4653 70.1051C34.4359 70.1318 34.4121 70.1641 34.3954 70.2001C33.8521 71.203 33.3771 72.2414 32.9734 73.3081C32.9591 73.3447 32.9522 73.3838 32.9532 73.4231C32.9542 73.4624 32.9631 73.5011 32.9793 73.5369C32.9956 73.5727 33.0188 73.6049 33.0477 73.6316C33.0765 73.6582 33.1105 73.6788 33.1474 73.6921C33.1832 73.6979 33.2197 73.6979 33.2554 73.6921C33.3162 73.6918 33.3755 73.6733 33.4257 73.6391C33.4759 73.6049 33.5148 73.5565 33.5374 73.5001C33.9308 72.4708 34.3918 71.4686 34.9174 70.5001C34.9425 70.4647 34.9594 70.4241 34.9669 70.3813C34.9744 70.3386 34.9724 70.2947 34.9609 70.2528C34.9494 70.2109 34.9288 70.1721 34.9006 70.1391C34.8723 70.1062 34.8371 70.0799 34.7974 70.0621Z" fill="#101010"/>
<path d="M47.5256 60.4201C47.2796 60.4201 41.4956 61.0201 36.7256 66.7081C36.7002 66.7382 36.6811 66.773 36.6694 66.8106C36.6578 66.8482 36.6538 66.8878 36.6577 66.927C36.6616 66.9661 36.6734 67.0041 36.6922 67.0387C36.7111 67.0732 36.7367 67.1036 36.7676 67.1281C36.8203 67.1753 36.8888 67.201 36.9596 67.2001C37.0032 67.2001 37.0463 67.1905 37.0858 67.1718C37.1252 67.1531 37.16 67.1259 37.1876 67.0921C39.794 63.8582 43.4996 61.6967 47.5976 61.0201C47.6371 61.0163 47.6754 61.0048 47.7104 60.9861C47.7454 60.9675 47.7763 60.9421 47.8014 60.9114C47.8265 60.8807 47.8453 60.8453 47.8567 60.8074C47.868 60.7694 47.8717 60.7295 47.8676 60.6901C47.8648 60.6491 47.8535 60.6092 47.8343 60.5729C47.8152 60.5366 47.7887 60.5047 47.7564 60.4793C47.7242 60.4538 47.687 60.4354 47.6473 60.4252C47.6075 60.415 47.5661 60.4133 47.5256 60.4201Z" fill="#101010"/>
<path d="M43.541 35.586C43.4768 35.5398 43.3972 35.5202 43.3189 35.5314C43.2406 35.5426 43.1697 35.5837 43.121 35.646C42.618 36.332 42.214 37.0854 41.921 37.884C41.8964 37.9596 41.9028 38.0419 41.9388 38.1127C41.9748 38.1836 42.0374 38.2373 42.113 38.262H42.203C42.2671 38.2624 42.3297 38.2422 42.3816 38.2044C42.4334 38.1666 42.4717 38.1132 42.491 38.052C42.7657 37.3206 43.1392 36.6302 43.601 36C43.6469 35.9368 43.6663 35.8581 43.655 35.7808C43.6438 35.7035 43.6029 35.6336 43.541 35.586Z" fill="#101010"/>
<path d="M43.0556 41.3101C43.1312 41.3103 43.2041 41.282 43.2597 41.2309C43.3153 41.1797 43.3496 41.1094 43.3556 41.0341C43.7816 34.6021 49.8656 33.4681 50.1236 33.4261C50.2032 33.4126 50.2741 33.368 50.3208 33.3022C50.3675 33.2363 50.3861 33.1546 50.3726 33.0751C50.3591 32.9955 50.3145 32.9246 50.2487 32.8779C50.1828 32.8312 50.1012 32.8126 50.0216 32.8261C49.9976 32.8441 43.2356 34.0861 42.7976 40.9921C42.7923 41.0679 42.816 41.1429 42.8639 41.2019C42.9118 41.261 42.9803 41.2996 43.0556 41.3101Z" fill="#101010"/>
<path d="M73.8763 118.214C74.2524 118.262 74.6311 118.286 75.0103 118.286C77.4623 118.22 79.8071 117.267 81.6103 115.604C82.9734 114.431 84.0738 112.983 84.8399 111.356C85.6059 109.729 86.0204 107.958 86.0563 106.16C86.0563 101 82.9963 95.2761 76.1383 94.2501H75.9523C75.3044 94.1565 74.6509 94.1063 73.9963 94.1001C68.7223 94.1001 62.7043 98.3001 61.9423 106.1C61.4323 111.236 65.3683 117.062 73.8763 118.214ZM76.2043 116.414C76.3363 116.27 76.4623 116.12 76.5883 115.976L78.2983 115.718C77.6341 116.035 76.9295 116.259 76.2043 116.384V116.414ZM80.4463 114.278C80.1915 114.502 79.9252 114.712 79.6483 114.908L77.1823 115.28C77.6679 114.692 78.1206 114.077 78.5383 113.438L81.7063 112.964C81.321 113.425 80.8997 113.854 80.4463 114.248V114.278ZM82.9603 100.952L80.6383 101.306C80.4816 100.779 80.2973 100.26 80.0863 99.7521L81.9763 99.4701C82.3479 99.9231 82.6773 100.409 82.9603 100.922V100.952ZM83.8123 103.07L81.1003 103.478C81.0303 102.943 80.9301 102.412 80.8003 101.888L83.2423 101.516C83.4714 102.009 83.662 102.518 83.8123 103.04V103.07ZM84.1963 105.2L81.1963 105.656V105.338C81.1963 104.894 81.1963 104.456 81.1543 104.024L83.9503 103.604C84.0707 104.129 84.1529 104.663 84.1963 105.2ZM84.2383 106.142C84.2344 106.58 84.2003 107.017 84.1363 107.45L80.8843 107.942C81.0043 107.39 81.0885 106.831 81.1363 106.268L84.2443 105.8C84.2503 105.932 84.2563 106.046 84.2563 106.16L84.2383 106.142ZM80.7283 108.542L84.0283 108.044C83.9129 108.628 83.7462 109.2 83.5303 109.754L80.1643 110.264C80.3925 109.719 80.5868 109.16 80.7463 108.59L80.7283 108.542ZM79.8883 110.942L83.2663 110.432C82.9737 111.063 82.6242 111.665 82.2223 112.232L78.9463 112.73C79.2975 112.158 79.618 111.567 79.9063 110.96L79.8883 110.942ZM79.8163 99.1341C79.5825 98.6228 79.3222 98.1242 79.0363 97.6401L79.8703 97.5141C80.473 97.907 81.0251 98.3725 81.5143 98.9001L79.8163 99.1341ZM63.7303 106.25C64.2223 101.234 67.9963 95.9001 73.9963 95.9001C74.5257 95.9017 75.0546 95.9337 75.5803 95.9961L75.6523 96.0801L75.7183 96.1521C72.873 96.2006 70.1504 97.3188 68.0923 99.2841C68.0491 99.3257 68.0194 99.3793 68.007 99.438C67.9946 99.4966 68 99.5577 68.0226 99.6132C68.0452 99.6687 68.0839 99.7162 68.1338 99.7495C68.1836 99.7828 68.2423 99.8005 68.3023 99.8001C68.3801 99.7982 68.4547 99.7684 68.5123 99.7161C70.5966 97.7521 73.3713 96.6892 76.2343 96.7581C81.5803 102.71 79.4683 111.53 73.6903 116.366C68.2663 115.484 63.1963 111.8 63.7303 106.25Z" fill="#101010"/>
<path d="M91.0086 126.62C84.2706 120.044 74.5986 120.134 73.9986 120.14C73.4406 120.14 52.8546 120.602 50.8086 143.282C50.7925 143.453 50.8264 143.626 50.9063 143.778C50.9862 143.93 51.1086 144.056 51.2586 144.14C51.6066 144.344 60.0246 149.054 73.9746 149.84C74.7006 149.882 75.4326 149.9 76.1646 149.9C80.8856 149.888 85.5674 149.043 89.9946 147.404C92.3796 146.564 94.662 145.457 96.7986 144.104C96.9203 144.022 97.0201 143.911 97.0891 143.781C97.1581 143.652 97.1943 143.507 97.1946 143.36C97.2186 136.28 95.1306 130.646 91.0086 126.62ZM95.4126 142.868C94.9326 143.162 94.0086 143.684 92.7426 144.29L90.5046 144.632C90.4746 144.08 90.4386 143.54 90.3846 143.012L95.3946 142.256C95.4006 142.46 95.4126 142.658 95.4126 142.868ZM93.3366 132.992L87.9786 133.802C87.7446 133.274 87.4986 132.764 87.2406 132.278L92.5386 131.474C92.8266 131.966 93.0966 132.47 93.3366 132.992ZM94.1886 135.104L88.8246 135.914C88.6386 135.386 88.4406 134.87 88.2246 134.372L93.6246 133.556C93.7986 134.06 94.0086 134.6 94.1886 135.104ZM94.3686 135.704C94.5246 136.214 94.6626 136.736 94.7826 137.276L89.4846 138.074C89.3406 137.54 89.1906 137.018 89.0226 136.508L94.3686 135.704ZM94.9026 137.864C95.0106 138.386 95.1006 138.914 95.1726 139.46L89.9766 140.24C89.8746 139.706 89.7666 139.172 89.6406 138.656L94.9026 137.864ZM95.3706 141.668L90.3126 142.4C90.2526 141.854 90.1746 141.32 90.0906 140.798L95.2386 140.018C95.2986 140.564 95.3466 141.104 95.3706 141.65V141.668ZM86.9346 131.714C86.6466 131.198 86.3346 130.694 86.0346 130.214L91.1406 129.446C91.5201 129.919 91.8746 130.412 92.2026 130.922L86.9346 131.714ZM85.6686 129.662C85.3206 129.152 84.9606 128.66 84.5946 128.192L89.2866 127.484L89.7606 127.922C90.0846 128.24 90.3606 128.57 90.6846 128.906L85.6686 129.662ZM84.1566 127.652C83.7306 127.142 83.2986 126.662 82.8666 126.212L86.8386 125.612C87.4841 126.025 88.1033 126.478 88.6926 126.968L84.1566 127.652ZM82.3566 125.684C81.8406 125.172 81.3306 124.704 80.8266 124.28L83.4846 123.878C84.3634 124.237 85.2174 124.654 86.0406 125.126L82.3566 125.684ZM80.2086 123.764C79.5666 123.248 78.9486 122.798 78.3666 122.408H78.4386C79.7672 122.656 81.075 123.005 82.3506 123.452L80.2086 123.764ZM74.0466 148.04C62.4366 147.392 54.6426 143.84 52.6326 142.844C54.7566 123.008 71.8326 122 73.8366 121.94C75.2586 122.54 86.7606 127.706 88.5306 142.634C88.6566 143.72 88.7286 144.83 88.7466 145.928C84.0296 147.577 79.0371 148.295 74.0466 148.04Z" fill="#101010"/>
<path d="M58.7974 135.062C58.7622 135.044 58.7235 135.033 58.6839 135.03C58.6443 135.027 58.6045 135.032 58.567 135.045C58.5294 135.058 58.4948 135.079 58.4653 135.105C58.4359 135.132 58.4121 135.164 58.3954 135.2C57.8521 136.203 57.3771 137.241 56.9734 138.308C56.9591 138.345 56.9522 138.384 56.9532 138.423C56.9542 138.462 56.9631 138.501 56.9793 138.537C56.9956 138.573 57.0188 138.605 57.0477 138.632C57.0765 138.658 57.1105 138.679 57.1474 138.692C57.1832 138.698 57.2197 138.698 57.2554 138.692C57.3162 138.692 57.3755 138.673 57.4257 138.639C57.4759 138.605 57.5148 138.557 57.5374 138.5C57.9308 137.471 58.3918 136.469 58.9174 135.5C58.9425 135.465 58.9594 135.424 58.9669 135.381C58.9744 135.339 58.9724 135.295 58.9609 135.253C58.9494 135.211 58.9288 135.172 58.9006 135.139C58.8723 135.106 58.8371 135.08 58.7974 135.062Z" fill="#101010"/>
<path d="M71.5256 125.42C71.2796 125.42 65.4956 126.02 60.7256 131.708C60.7002 131.738 60.6811 131.773 60.6694 131.811C60.6578 131.848 60.6538 131.888 60.6577 131.927C60.6616 131.966 60.6734 132.004 60.6922 132.039C60.7111 132.073 60.7367 132.104 60.7676 132.128C60.8203 132.175 60.8888 132.201 60.9596 132.2C61.0032 132.2 61.0463 132.19 61.0858 132.172C61.1252 132.153 61.16 132.126 61.1876 132.092C63.794 128.858 67.4996 126.697 71.5976 126.02C71.6371 126.016 71.6754 126.005 71.7104 125.986C71.7454 125.967 71.7763 125.942 71.8014 125.911C71.8265 125.881 71.8453 125.845 71.8567 125.807C71.868 125.769 71.8717 125.73 71.8676 125.69C71.8648 125.649 71.8535 125.609 71.8343 125.573C71.8152 125.537 71.7887 125.505 71.7564 125.479C71.7242 125.454 71.687 125.435 71.6473 125.425C71.6075 125.415 71.5661 125.413 71.5256 125.42Z" fill="#101010"/>
<path d="M67.541 100.586C67.4768 100.54 67.3972 100.52 67.3189 100.531C67.2406 100.543 67.1697 100.584 67.121 100.646C66.618 101.332 66.214 102.085 65.921 102.884C65.8964 102.96 65.9028 103.042 65.9388 103.113C65.9748 103.184 66.0374 103.237 66.113 103.262H66.203C66.2671 103.262 66.3297 103.242 66.3816 103.204C66.4334 103.167 66.4717 103.113 66.491 103.052C66.7657 102.321 67.1392 101.63 67.601 101C67.6469 100.937 67.6663 100.858 67.655 100.781C67.6438 100.704 67.6029 100.634 67.541 100.586Z" fill="#101010"/>
<path d="M67.0556 106.31C67.1312 106.31 67.2041 106.282 67.2597 106.231C67.3153 106.18 67.3496 106.109 67.3556 106.034C67.7816 99.6021 73.8656 98.4681 74.1236 98.4261C74.2032 98.4126 74.2741 98.368 74.3208 98.3022C74.3675 98.2363 74.3861 98.1546 74.3726 98.0751C74.3591 97.9955 74.3145 97.9246 74.2487 97.8779C74.1828 97.8312 74.1012 97.8126 74.0216 97.8261C73.9976 97.8441 67.2356 99.0861 66.7976 105.992C66.7923 106.068 66.816 106.143 66.8639 106.202C66.9118 106.261 66.9803 106.3 67.0556 106.31Z" fill="#101010"/>
<path d="M99.8763 53.2141C100.252 53.262 100.631 53.286 101.01 53.2861C103.462 53.2198 105.807 52.2669 107.61 50.6041C108.973 49.4307 110.074 47.9832 110.84 46.356C111.606 44.7287 112.02 42.9583 112.056 41.1601C112.056 36.0001 108.996 30.2761 102.138 29.2501H101.952C101.304 29.1565 100.651 29.1063 99.9963 29.1001C94.7223 29.1001 88.7043 33.3001 87.9423 41.1001C87.4323 46.2361 91.3683 52.0621 99.8763 53.2141ZM102.204 51.4141C102.336 51.2701 102.462 51.1201 102.588 50.9761L104.298 50.7181C103.634 51.035 102.93 51.2591 102.204 51.3841V51.4141ZM106.446 49.2781C106.192 49.502 105.925 49.7123 105.648 49.9081L103.182 50.2801C103.668 49.6916 104.121 49.0767 104.538 48.4381L107.706 47.9641C107.321 48.4249 106.9 48.8542 106.446 49.2481V49.2781ZM108.96 35.9521L106.638 36.3061C106.482 35.7788 106.297 35.2601 106.086 34.7521L107.976 34.4701C108.348 34.9231 108.677 35.4091 108.96 35.9221V35.9521ZM109.812 38.0701L107.1 38.4781C107.03 37.9429 106.93 37.412 106.8 36.8881L109.242 36.5161C109.471 37.0086 109.662 37.5181 109.812 38.0401V38.0701ZM110.196 40.2001L107.196 40.6561V40.3381C107.196 39.8941 107.196 39.4561 107.154 39.0241L109.95 38.6041C110.071 39.1295 110.153 39.6629 110.196 40.2001ZM110.238 41.1421C110.234 41.5799 110.2 42.017 110.136 42.4501L106.884 42.9421C107.004 42.3901 107.088 41.8309 107.136 41.2681L110.244 40.8001C110.25 40.9321 110.256 41.0461 110.256 41.1601L110.238 41.1421ZM106.728 43.5421L110.028 43.0441C109.913 43.6276 109.746 44.1998 109.53 44.7541L106.164 45.2641C106.392 44.7186 106.587 44.1595 106.746 43.5901L106.728 43.5421ZM105.888 45.9421L109.266 45.4321C108.974 46.0625 108.624 46.665 108.222 47.2321L104.946 47.7301C105.298 47.1576 105.618 46.5668 105.906 45.9601L105.888 45.9421ZM105.816 34.1341C105.583 33.6228 105.322 33.1242 105.036 32.6401L105.87 32.5141C106.473 32.907 107.025 33.3725 107.514 33.9001L105.816 34.1341ZM89.7303 41.2501C90.2223 36.2341 93.9963 30.9001 99.9963 30.9001C100.526 30.9017 101.055 30.9337 101.58 30.9961L101.652 31.0801L101.718 31.1521C98.873 31.2006 96.1504 32.3188 94.0923 34.2841C94.0491 34.3257 94.0194 34.3793 94.007 34.438C93.9946 34.4966 94 34.5577 94.0226 34.6132C94.0452 34.6687 94.0839 34.7162 94.1338 34.7495C94.1836 34.7828 94.2423 34.8005 94.3023 34.8001C94.3801 34.7982 94.4547 34.7684 94.5123 34.7161C96.5966 32.7521 99.3713 31.6892 102.234 31.7581C107.58 37.7101 105.468 46.5301 99.6903 51.3661C94.2663 50.4841 89.1963 46.8001 89.7303 41.2501Z" fill="#101010"/>
<path d="M117.009 61.6201C110.271 55.0441 100.599 55.1341 99.9986 55.1401C99.4406 55.1401 78.8546 55.6021 76.8086 78.2821C76.7925 78.4533 76.8264 78.6256 76.9063 78.7779C76.9862 78.9302 77.1086 79.056 77.2586 79.1401C77.6066 79.3441 86.0246 84.0541 99.9746 84.8401C100.701 84.8821 101.433 84.9001 102.165 84.9001C106.886 84.8884 111.567 84.0434 115.995 82.4041C118.38 81.5636 120.662 80.4566 122.799 79.1041C122.92 79.0218 123.02 78.911 123.089 78.7813C123.158 78.6516 123.194 78.507 123.195 78.3601C123.219 71.2801 121.131 65.6461 117.009 61.6201ZM121.413 77.8681C120.933 78.1621 120.009 78.6841 118.743 79.2901L116.505 79.6321C116.475 79.0801 116.439 78.5401 116.385 78.0121L121.395 77.2561C121.401 77.4601 121.413 77.6581 121.413 77.8681ZM119.337 67.9921L113.979 68.8021C113.745 68.2741 113.499 67.7641 113.241 67.2781L118.539 66.4741C118.827 66.9661 119.097 67.4701 119.337 67.9921ZM120.189 70.1041L114.825 70.9141C114.639 70.3861 114.441 69.8701 114.225 69.3721L119.625 68.5561C119.799 69.0601 120.009 69.6001 120.189 70.1041ZM120.369 70.7041C120.525 71.2141 120.663 71.7361 120.783 72.2761L115.485 73.0741C115.341 72.5401 115.191 72.0181 115.023 71.5081L120.369 70.7041ZM120.903 72.8641C121.011 73.3861 121.101 73.9141 121.173 74.4601L115.977 75.2401C115.875 74.7061 115.767 74.1721 115.641 73.6561L120.903 72.8641ZM121.371 76.6681L116.313 77.4001C116.253 76.8541 116.175 76.3201 116.091 75.7981L121.239 75.0181C121.299 75.5641 121.347 76.1041 121.371 76.6501V76.6681ZM112.935 66.7141C112.647 66.1981 112.335 65.6941 112.035 65.2141L117.141 64.4461C117.52 64.9193 117.875 65.4119 118.203 65.9221L112.935 66.7141ZM111.669 64.6621C111.321 64.1521 110.961 63.6601 110.595 63.1921L115.287 62.4841L115.761 62.9221C116.085 63.2401 116.361 63.5701 116.685 63.9061L111.669 64.6621ZM110.157 62.6521C109.731 62.1421 109.299 61.6621 108.867 61.2121L112.839 60.6121C113.484 61.0253 114.103 61.4781 114.693 61.9681L110.157 62.6521ZM108.357 60.6841C107.841 60.1721 107.331 59.7041 106.827 59.2801L109.485 58.8781C110.363 59.2367 111.217 59.6537 112.041 60.1261L108.357 60.6841ZM106.209 58.7641C105.567 58.2481 104.949 57.7981 104.367 57.4081H104.439C105.767 57.6562 107.075 58.0052 108.351 58.4521L106.209 58.7641ZM100.047 83.0401C88.4366 82.3921 80.6426 78.8401 78.6326 77.8441C80.7566 58.0081 97.8326 57.0001 99.8366 56.9401C101.259 57.5401 112.761 62.7061 114.531 77.6341C114.657 78.7201 114.729 79.8301 114.747 80.9281C110.03 82.5775 105.037 83.2948 100.047 83.0401Z" fill="#101010"/>
<path d="M84.7974 70.0621C84.7622 70.0439 84.7235 70.033 84.6839 70.0301C84.6443 70.0272 84.6045 70.0323 84.567 70.0452C84.5294 70.0581 84.4948 70.0785 84.4653 70.1051C84.4359 70.1318 84.4121 70.1641 84.3954 70.2001C83.8521 71.203 83.3771 72.2414 82.9734 73.3081C82.9591 73.3447 82.9522 73.3838 82.9532 73.4231C82.9542 73.4624 82.9631 73.5011 82.9793 73.5369C82.9956 73.5727 83.0188 73.6049 83.0477 73.6316C83.0765 73.6582 83.1105 73.6788 83.1474 73.6921C83.1832 73.6979 83.2197 73.6979 83.2554 73.6921C83.3162 73.6918 83.3755 73.6733 83.4257 73.6391C83.4759 73.6049 83.5148 73.5565 83.5374 73.5001C83.9308 72.4708 84.3918 71.4686 84.9174 70.5001C84.9425 70.4647 84.9594 70.4241 84.9669 70.3813C84.9744 70.3386 84.9724 70.2947 84.9609 70.2528C84.9494 70.2109 84.9288 70.1721 84.9006 70.1391C84.8723 70.1062 84.8371 70.0799 84.7974 70.0621Z" fill="#101010"/>
<path d="M97.5256 60.4201C97.2796 60.4201 91.4956 61.0201 86.7256 66.7081C86.7002 66.7382 86.6811 66.773 86.6694 66.8106C86.6578 66.8482 86.6538 66.8878 86.6577 66.927C86.6616 66.9661 86.6734 67.0041 86.6922 67.0387C86.7111 67.0732 86.7367 67.1036 86.7676 67.1281C86.8203 67.1753 86.8888 67.201 86.9596 67.2001C87.0032 67.2001 87.0463 67.1905 87.0858 67.1718C87.1252 67.1531 87.16 67.1259 87.1876 67.0921C89.794 63.8582 93.4996 61.6967 97.5976 61.0201C97.6371 61.0163 97.6754 61.0048 97.7104 60.9861C97.7454 60.9675 97.7763 60.9421 97.8014 60.9114C97.8265 60.8807 97.8453 60.8453 97.8567 60.8074C97.868 60.7694 97.8717 60.7295 97.8676 60.6901C97.8648 60.6491 97.8535 60.6092 97.8343 60.5729C97.8152 60.5366 97.7887 60.5047 97.7564 60.4793C97.7242 60.4538 97.687 60.4354 97.6473 60.4252C97.6075 60.415 97.5661 60.4133 97.5256 60.4201Z" fill="#101010"/>
<path d="M93.541 35.586C93.4768 35.5398 93.3972 35.5202 93.3189 35.5314C93.2406 35.5426 93.1697 35.5837 93.121 35.646C92.618 36.332 92.214 37.0854 91.921 37.884C91.8964 37.9596 91.9028 38.0419 91.9388 38.1127C91.9748 38.1836 92.0374 38.2373 92.113 38.262H92.203C92.2671 38.2624 92.3297 38.2422 92.3816 38.2044C92.4334 38.1666 92.4717 38.1132 92.491 38.052C92.7657 37.3206 93.1392 36.6302 93.601 36C93.6469 35.9368 93.6663 35.8581 93.655 35.7808C93.6438 35.7035 93.6029 35.6336 93.541 35.586Z" fill="#101010"/>
<path d="M93.0556 41.3101C93.1312 41.3103 93.2041 41.282 93.2597 41.2309C93.3153 41.1797 93.3496 41.1094 93.3556 41.0341C93.7816 34.6021 99.8656 33.4681 100.124 33.4261C100.203 33.4126 100.274 33.368 100.321 33.3022C100.367 33.2363 100.386 33.1546 100.373 33.0751C100.359 32.9955 100.314 32.9246 100.249 32.8779C100.183 32.8312 100.101 32.8126 100.022 32.8261C99.9976 32.8441 93.2356 34.0861 92.7976 40.9921C92.7923 41.0679 92.816 41.1429 92.8639 41.2019C92.9118 41.261 92.9803 41.2996 93.0556 41.3101Z" fill="#101010"/>
</svg>
