<svg width="36" height="36" viewBox="0 0 36 36" fill="none" xmlns="http://www.w3.org/2000/svg">
<g clip-path="url(#clip0_967_2033)">
<circle cx="18" cy="18" r="18" fill="#ECAC61"/>
<g clip-path="url(#clip1_967_2033)">
<path d="M17.6116 15.6157L16.0264 18.8279L12.4817 19.3429C12.2831 19.3719 12.1181 19.5108 12.056 19.7016C11.9942 19.8925 12.0458 20.1019 12.1893 20.2418L14.7544 22.7421L14.149 26.2728C14.1151 26.4706 14.1964 26.6706 14.3587 26.7885C14.4505 26.8552 14.5594 26.8894 14.6686 26.8894C14.7527 26.8894 14.8368 26.8691 14.9139 26.8287L18.0845 25.1617L21.2551 26.8287C21.3322 26.8691 21.4166 26.8894 21.5004 26.8894C21.61 26.8894 21.7185 26.8555 21.8106 26.7885C21.9729 26.6706 22.0542 26.4706 22.0203 26.2728L21.4149 22.7421L23.98 20.2418C24.1238 20.1019 24.1755 19.8922 24.1133 19.7016C24.0516 19.5108 23.8865 19.3715 23.688 19.3429L20.1423 18.8279L18.557 15.6157C18.4683 15.4357 18.2848 15.3219 18.0841 15.3219C17.8835 15.3219 17.7003 15.436 17.6116 15.6157ZM19.7923 19.3098L23.6116 19.8646L20.8478 22.5582L21.5004 26.3621L18.0845 24.5661L14.6686 26.3621L15.3211 22.5582L12.5574 19.8646L16.3767 19.3098L18.0845 15.8492L19.7923 19.3098Z" fill="#181A26"/>
<path d="M27.0692 5.96695C27.0242 5.87902 26.9335 5.82388 26.8347 5.82388H20.9601C20.8743 5.82388 20.794 5.86576 20.7444 5.9359L18.0844 9.7189L15.4243 5.93555C15.3748 5.86541 15.2945 5.82353 15.209 5.82353H9.33402C9.23527 5.82353 9.14454 5.87867 9.09952 5.9666C9.05416 6.05454 9.06218 6.16027 9.11976 6.24088L14.8775 14.2672C11.8552 15.5276 9.72485 18.5122 9.72485 21.986C9.72485 26.5957 13.475 30.3459 18.0844 30.3459C22.694 30.3459 26.4443 26.596 26.4443 21.986C26.4443 18.5125 24.3139 15.5276 21.2916 14.2672L27.049 6.24088C27.1066 6.16062 27.1146 6.05489 27.0692 5.96695ZM9.84733 6.3508H15.0719L20.4245 13.9622C19.6815 13.7451 18.8971 13.6265 18.0844 13.6265C17.1282 13.6265 16.2098 13.7901 15.3538 14.0871C15.3482 14.0445 15.3364 14.003 15.3098 13.966L9.84733 6.3508ZM25.917 21.986C25.917 26.305 22.4034 29.8186 18.0844 29.8186C13.7654 29.8186 10.2518 26.305 10.2518 21.986C10.2518 17.667 13.7654 14.1534 18.0844 14.1534C22.4034 14.1534 25.917 17.667 25.917 21.986ZM20.9664 13.8163L18.4068 10.1764L21.0972 6.35045H26.3214L20.9664 13.8163Z" fill="#181A26"/>
<path d="M15.7294 13.0208C15.7832 13.0208 15.8376 13.0044 15.8844 12.9706C16.0023 12.8847 16.0281 12.72 15.9427 12.6024L15.0287 11.3455C14.9429 11.2279 14.7782 11.2021 14.6602 11.2872C14.5427 11.3731 14.5165 11.5378 14.6023 11.6557L15.5162 12.9126C15.5679 12.9835 15.6481 13.0208 15.7294 13.0208Z" fill="#181A26"/>
<path d="M11.7338 6.81665C11.6483 6.69905 11.4833 6.67323 11.3653 6.75838C11.2477 6.84422 11.2216 7.00893 11.3074 7.12687L13.8073 10.5644C13.8589 10.6353 13.9392 10.6729 14.0209 10.6729C14.0746 10.6729 14.1287 10.6565 14.1758 10.6227C14.2934 10.5368 14.3196 10.3721 14.2341 10.2542L11.7338 6.81665Z" fill="#181A26"/>
<path d="M23.368 26.2264C22.7783 27.0412 22.0291 27.6972 21.1337 28.1571C20.9208 28.2667 21.1086 28.5874 21.3214 28.4782C22.2755 27.9882 23.0617 27.2809 23.6891 26.4141C23.8297 26.2198 23.5073 26.0341 23.368 26.2264Z" fill="#181A26"/>
<path d="M23.7156 25.6782C23.6015 25.8886 23.9225 26.0767 24.0366 25.8659C24.6549 24.7252 24.9617 23.4916 24.8898 22.1932C24.8765 21.9552 24.5045 21.9534 24.5178 22.1932C24.5865 23.432 24.3056 24.5898 23.7156 25.6782Z" fill="#181A26"/>
</g>
</g>
<defs>
<clipPath id="clip0_967_2033">
<rect width="36" height="36" rx="18" fill="white"/>
</clipPath>
<clipPath id="clip1_967_2033">
<rect width="24.5224" height="24.5224" fill="white" transform="translate(5.82324 5.82353)"/>
</clipPath>
</defs>
</svg>
