<svg width="60" height="60" viewBox="0 0 60 60" fill="none" xmlns="http://www.w3.org/2000/svg">
<path d="M56.0341 27.8971H52.3334C52.3462 27.8317 52.3734 27.7705 52.3734 27.7016V27.2384C52.3734 27.1449 52.3436 27.0608 52.3198 26.9741C52.7558 26.8304 53.0763 26.4326 53.0763 25.949V25.4458C53.0763 24.8432 52.5858 24.3528 51.9832 24.3528H51.5863C51.6016 24.0834 51.6211 23.8148 51.6211 23.5411C51.6211 15.7742 46.0225 9.30011 38.6508 7.91723C38.769 7.78039 38.848 7.60785 38.848 7.41321V6.7052C38.848 6.27427 38.497 5.92409 38.0661 5.92409H37.143C37.6589 5.48806 37.9938 4.84465 37.9938 4.11794C37.9938 2.80816 36.9288 1.74316 35.6199 1.74316C34.3101 1.74316 33.2451 2.80816 33.2451 4.11794C33.2451 4.84465 33.58 5.48806 34.0959 5.92409H33.3624C32.9315 5.92409 32.5805 6.27512 32.5805 6.7052V7.41321C32.5805 7.60785 32.6595 7.78039 32.7776 7.91723C25.406 9.30011 19.8073 15.7742 19.8073 23.5411C19.8073 23.8148 19.8269 24.0834 19.8422 24.3528H19.4453C18.8426 24.3528 18.3531 24.8432 18.3531 25.4458V25.949C18.3531 26.4326 18.6735 26.8296 19.1087 26.9741C19.0849 27.0608 19.0551 27.1449 19.0551 27.2384V27.7016C19.0551 27.7713 19.0815 27.8317 19.0951 27.8971H15.3944L14.1101 36.508H12.0167C11.8858 29.6591 8.56839 24.1276 4.43506 23.7825C4.35092 22.6308 3.39812 21.7171 2.22518 21.7171C0.998697 21.7171 0 22.7158 0 23.9431C0 25.1705 0.998697 26.1692 2.22518 26.1692C3.21538 26.1692 4.04663 25.5155 4.33477 24.6197C8.13407 24.8985 11.1778 30.305 11.1778 36.9296V37.3512H13.9843L11.4642 54.25L12.0821 54.0902C12.6983 53.9304 13.4004 53.9227 14.1067 53.9984C14.099 54.0885 14.082 54.1752 14.082 54.267C14.082 56.4666 15.8712 58.2566 18.0717 58.2566C20.1354 58.2566 21.8175 56.6766 22.0215 54.6673C22.5493 54.403 23.0661 54.1684 23.6976 54.1182C24.2314 54.0791 24.743 54.2797 25.2836 54.4956C25.9602 54.7659 26.6622 55.0447 27.4952 54.8925C28.2916 54.7455 28.9299 54.3647 29.4926 54.0281C30.3757 53.5012 31.0718 53.0864 32.1954 53.4927C32.5006 53.6031 32.7785 53.7383 33.0471 53.8683C33.7806 54.2228 34.5396 54.5899 35.5986 54.3783C35.9437 54.3095 36.2497 54.1837 36.5455 54.0613C36.8328 53.9431 37.1039 53.8309 37.3861 53.7833C38.1961 53.6448 38.9092 53.8692 39.7983 54.1471C39.9666 54.1998 40.1289 54.2576 40.2887 54.3146C40.9882 54.5636 41.7124 54.822 42.632 54.5763C43.0834 54.4557 43.4242 54.2313 43.7531 54.0137C43.9665 53.8726 44.1679 53.74 44.3889 53.6439C45.1011 53.3363 45.7862 53.3261 46.7543 53.6108C46.9897 53.6805 47.2243 53.7791 47.4598 53.8768C47.8482 54.0392 48.2502 54.2066 48.6837 54.2746C48.9361 54.3137 49.1605 54.3205 49.373 54.3146C49.4002 56.4913 51.1741 58.2558 53.3576 58.2558C55.5301 58.2558 57.2946 56.5091 57.3396 54.3477C57.9933 54.6239 58.6707 54.7973 59.3923 54.6528C59.4645 54.6384 59.5351 54.618 59.6456 54.5857L60 54.4828L56.0341 27.8971ZM2.22433 25.3252C1.46277 25.3252 0.842305 24.7055 0.842305 23.9431C0.842305 23.1807 1.46192 22.5611 2.22433 22.5611C2.98674 22.5611 3.60721 23.1807 3.60721 23.9431C3.60721 24.7055 2.98674 25.3252 2.22433 25.3252ZM34.0874 4.11794C34.0874 3.27308 34.775 2.58632 35.619 2.58632C36.4631 2.58632 37.1498 3.27308 37.1498 4.11794C37.1498 4.96194 36.4631 5.64871 35.619 5.64871C34.775 5.64871 34.0874 4.96194 34.0874 4.11794ZM33.4236 6.76725H38.004V7.35116H33.4236V6.76725ZM35.7142 8.47735C44.0209 8.47735 50.778 15.2345 50.778 23.5411C50.778 23.8139 50.7686 24.0842 50.7533 24.3528H20.6751C20.6598 24.0842 20.6505 23.8139 20.6505 23.5411C20.6505 15.2353 27.4076 8.47735 35.7142 8.47735ZM19.1954 25.4458H19.1962C19.1962 25.3082 19.3084 25.1968 19.4453 25.1968H19.8915H51.5344H51.9815C52.1192 25.1968 52.2314 25.309 52.2314 25.4458V25.949C52.2314 26.0842 52.1167 26.1981 51.9815 26.1981H51.3322H20.0938H19.4444C19.3076 26.1981 19.1954 26.0859 19.1954 25.949V25.4458ZM25.2071 27.2843L24.477 27.8963H23.9866L24.2764 27.6532L23.9662 27.2834L23.2361 27.8954H22.7456L23.0355 27.6523L22.7252 27.2826L21.9951 27.8946H21.5047L21.7945 27.6515L21.4843 27.2817L20.7542 27.8937H20.0946C19.9875 27.8971 19.8983 27.8079 19.8983 27.7016V27.2384C19.8983 27.1322 19.9875 27.0421 20.0938 27.0421H51.333C51.4393 27.0421 51.5285 27.1322 51.5285 27.2384V27.7016C51.5285 27.8079 51.4393 27.8971 51.333 27.8971H25.2275L25.5173 27.654L25.2071 27.2843ZM18.0709 57.4126C16.3361 57.4126 14.9244 56.0009 14.9244 54.2661C14.9244 54.2168 14.9329 54.1701 14.9354 54.1216C15.1487 54.1616 15.3595 54.2058 15.5652 54.2551C15.5652 54.2585 15.5644 54.2627 15.5644 54.2661C15.5644 55.6481 16.6889 56.7735 18.0709 56.7735C19.0577 56.7735 19.9017 56.1964 20.308 55.3651C20.5808 55.3065 20.8358 55.2155 21.0831 55.111C20.7125 56.4352 19.5107 57.4126 18.0709 57.4126ZM16.0565 54.3834C16.9923 54.6435 17.7776 54.9529 18.1601 55.1152C18.7134 55.349 19.1996 55.4416 19.6391 55.4416C19.6629 55.4416 19.6841 55.4356 19.7079 55.4348C19.3424 55.9499 18.7491 56.2915 18.07 56.2915C16.994 56.2915 16.1185 55.445 16.0565 54.3834ZM53.3568 57.4126C51.622 57.4126 50.2102 56.0009 50.2102 54.2661C50.2102 54.2355 50.2179 54.2066 50.2196 54.1769C50.455 54.1063 50.6734 54.0188 50.8825 53.9219C50.8647 54.0349 50.8502 54.1488 50.8502 54.2661C50.8502 55.6481 51.9747 56.7735 53.3576 56.7735C54.7396 56.7735 55.8641 55.6481 55.8641 54.2661C55.8641 54.0213 55.8157 53.791 55.7477 53.5683C55.9364 53.6592 56.1268 53.7553 56.3205 53.8556C56.3715 53.8819 56.4234 53.9083 56.4744 53.9346C56.4888 54.0443 56.5033 54.1531 56.5033 54.2661C56.5033 56.0017 55.0915 57.4126 53.3568 57.4126ZM51.3305 54.2661C51.3305 54.057 51.373 53.8607 51.4342 53.6728C51.571 53.6099 51.6993 53.5453 51.8523 53.4876C52.8026 53.1314 53.6695 53.015 54.4982 53.134C54.7082 53.1637 54.9198 53.2292 55.1332 53.3074C55.2904 53.5929 55.3822 53.9176 55.3822 54.2661C55.3822 55.3829 54.4736 56.2915 53.3568 56.2915C52.2399 56.2915 51.3305 55.3829 51.3305 54.2661ZM56.7081 53.1068C56.0392 52.7608 55.3465 52.403 54.6181 52.2993C53.6449 52.1625 52.6436 52.2917 51.5574 52.6979C51.2676 52.8059 51.0126 52.9283 50.7678 53.0464C50.4397 53.2045 50.1448 53.3397 49.815 53.4162L48.8962 39.8866L48.4151 39.9189L49.3356 53.4757C49.175 53.4791 49.0067 53.4731 48.8146 53.4425C48.4797 53.3898 48.1414 53.2487 47.7836 53.1C47.5193 52.9895 47.2558 52.8807 46.9906 52.8025C45.8321 52.4625 44.9524 52.4812 44.0523 52.8713C43.7633 52.9963 43.5211 53.1561 43.2873 53.3108C43.0018 53.4995 42.7332 53.6779 42.4136 53.7621C42.3039 53.7918 42.2011 53.7969 42.0974 53.808V39.7956H41.6163V53.8037C41.2704 53.7595 40.9347 53.6499 40.5717 53.5207C40.4017 53.4604 40.2292 53.3983 39.9887 53.3235C39.0954 53.0447 38.2505 52.7821 37.2442 52.9521C36.8693 53.0158 36.5404 53.1518 36.2234 53.2827C35.9531 53.3941 35.6972 53.4995 35.4329 53.5521C35.2536 53.5878 35.0887 53.5963 34.9289 53.5921V39.9019H34.4478V53.5233C34.1061 53.4374 33.7789 53.2861 33.4126 53.1085C33.1185 52.9665 32.815 52.8212 32.481 52.6996C30.9834 52.1565 30.0051 52.7396 29.0599 53.304C28.6027 53.5768 28.1632 53.8301 27.6592 53.9788V39.8466H27.1781V54.0732C26.6427 54.1199 26.1344 53.9278 25.5981 53.7128C24.9921 53.4697 24.3622 53.2156 23.6321 53.2768C22.7584 53.3456 22.0623 53.6983 21.4495 54.0094C20.9786 54.2483 20.5562 54.4616 20.0963 54.5517C20.0878 54.5517 20.0785 54.5534 20.07 54.5534C20.07 54.5542 20.0691 54.5559 20.0691 54.5568C19.9646 54.5763 19.8575 54.5891 19.7478 54.5942L20.6794 39.918L20.1983 39.8874L19.2668 54.5627C19.0279 54.5262 18.7746 54.4582 18.4925 54.3384C17.6935 54.0001 16.0981 53.4051 14.4492 53.1909C13.8364 53.1238 13.6239 53.1059 13.3086 53.1059C13.029 53.1059 12.7519 53.1221 12.4816 53.1569L16.1228 28.7403H20.0963H51.3356H55.3091L59.054 53.8513C58.2933 53.9261 57.5215 53.5275 56.7081 53.1068Z" fill="#181A26"/>
<path d="M23.871 23.184C23.6254 20.2109 24.5212 17.1443 26.3282 14.7678L25.6576 14.2578C23.7257 16.7975 22.7686 20.0766 23.0313 23.2537L23.871 23.184Z" fill="#181A26"/>
<path d="M29.6591 11.7564L29.2171 11.0374C28.2804 11.6128 27.422 12.3012 26.6638 13.0857L27.2698 13.6714C27.9787 12.9387 28.7819 12.2936 29.6591 11.7564Z" fill="#181A26"/>
</svg>
