<svg fill="#fff" class="svg-icon" xmlns="http://www.w3.org/2000/svg" xmlns:xlink="http://www.w3.org/1999/xlink"><defs><symbol viewBox="0 0 15 8" fill="none" id="arrow_d_sprite">
<path d="M7.50003 8C7.32566 8 7.15111 7.93483 7.01799 7.80467L0.199815 1.13804C-0.066605 0.877537 -0.066605 0.455706 0.199815 0.195374C0.466235 -0.064958 0.897655 -0.0651247 1.1639 0.195374L7.50003 6.39068L13.8362 0.195374C14.1026 -0.0651247 14.534 -0.0651247 14.8002 0.195374C15.0665 0.455873 15.0667 0.877704 14.8002 1.13804L7.98208 7.80467C7.84895 7.93483 7.67441 8 7.50003 8Z" fill="currentColor" />
</symbol><symbol viewBox="0 0 8 15" fill="none" id="arrow_l_sprite">
<path d="M-4.66682e-07 7.49997C-4.74305e-07 7.67434 0.0651654 7.84889 0.195331 7.98201L6.86196 14.8002C7.12246 15.0666 7.54429 15.0666 7.80463 14.8002C8.06496 14.5338 8.06512 14.1023 7.80463 13.8361L1.60932 7.49997L7.80463 1.16384C8.06513 0.897422 8.06513 0.466001 7.80463 0.199751C7.54413 -0.0664984 7.1223 -0.0666689 6.86197 0.199751L0.195331 7.01792C0.0651654 7.15105 -4.5906e-07 7.32559 -4.66682e-07 7.49997Z" fill="currentColor" />
</symbol><symbol viewBox="0 0 8 15" fill="none" id="arrow_r_sprite">
<path d="M8 7.49997C8 7.67434 7.93483 7.84889 7.80467 7.98201L1.13804 14.8002C0.877537 15.0666 0.455706 15.0666 0.195374 14.8002C-0.064958 14.5338 -0.0651247 14.1023 0.195374 13.8361L6.39068 7.49997L0.195373 1.16384C-0.0651253 0.897422 -0.0651253 0.466001 0.195373 0.199751C0.455872 -0.0664984 0.877703 -0.0666689 1.13803 0.199751L7.80467 7.01792C7.93483 7.15105 8 7.32559 8 7.49997Z" fill="currentColor" />
</symbol><symbol viewBox="0 0 16 16" fill="none" id="arrow_sprite">
<path d="M8.00052 11C7.87264 11 7.74464 10.9512 7.64702 10.8535L2.64702 5.85353C2.45164 5.65816 2.45164 5.34178 2.64702 5.14653C2.84239 4.95128 3.15877 4.95116 3.35402 5.14653L8.00052 9.79303L12.647 5.14653C12.8424 4.95116 13.1588 4.95116 13.354 5.14653C13.5493 5.34191 13.5494 5.65828 13.354 5.85353L8.35402 10.8535C8.25639 10.9512 8.12839 11 8.00052 11Z" fill="white" />
</symbol><symbol viewBox="0 0 18 18" fill="none" id="clip_sprite">
<g opacity="0.5">
<path d="M16.8747 5.0625C16.8747 6.26456 16.4067 7.39462 15.5567 8.24456L7.45109 16.4464C6.79184 17.1056 5.92615 17.4352 5.06103 17.4352C4.19703 17.4352 3.33303 17.1062 2.67546 16.4486C1.35978 15.1324 1.35978 12.9915 2.67546 11.6758L8.53109 5.85337C9.41028 4.97981 10.8075 4.95113 11.6473 5.78981C12.0574 6.19987 12.2734 6.75337 12.256 7.34906C12.2385 7.93181 11.9983 8.48419 11.5793 8.90325L6.02234 14.4602C5.8024 14.6801 5.4469 14.6801 5.22696 14.4602C5.00703 14.2403 5.00703 13.8847 5.22696 13.6648L10.7839 8.10787C10.9993 7.89244 11.1231 7.61119 11.1315 7.31587C11.14 7.0335 11.0404 6.77362 10.852 6.58519C10.4498 6.18469 9.76465 6.21338 9.32478 6.651L3.46971 12.4723C2.5939 13.3487 2.5939 14.7763 3.47084 15.6532C4.34834 16.5302 5.7754 16.5302 6.6529 15.6532L14.7585 7.45144C15.3987 6.81131 15.7497 5.96419 15.7497 5.0625C15.7497 4.16081 15.3987 3.31369 14.7613 2.67637C14.1235 2.0385 13.2763 1.6875 12.3747 1.6875C11.473 1.6875 10.6258 2.0385 9.98796 2.67637L2.08371 10.5244C1.86265 10.7432 1.50715 10.7421 1.28834 10.521C1.06953 10.3005 1.07065 9.945 1.29115 9.72563L9.19428 1.87931C10.0425 1.0305 11.1726 0.5625 12.3747 0.5625C13.5767 0.5625 14.7068 1.0305 15.5567 1.881C16.4067 2.73038 16.8747 3.86044 16.8747 5.0625Z" fill="#212121" />
</g>
</symbol><symbol viewBox="0 0 20 20" fill="none" id="close_sprite">
<path d="M2.26494 18.5716C2.09936 18.5716 1.9375 18.5225 1.79982 18.4305C1.66214 18.3386 1.55483 18.2078 1.49146 18.0549C1.42809 17.9019 1.41152 17.7336 1.44383 17.5712C1.47614 17.4088 1.55588 17.2596 1.67298 17.1426L17.1416 1.67391C17.2986 1.51691 17.5116 1.42871 17.7336 1.42871C17.9556 1.42871 18.1686 1.51691 18.3256 1.67391C18.4825 1.83091 18.5707 2.04384 18.5707 2.26587C18.5707 2.4879 18.4825 2.70083 18.3256 2.85783L2.8569 18.3265C2.77923 18.4043 2.68696 18.466 2.58537 18.5081C2.48378 18.5501 2.37489 18.5717 2.26494 18.5716Z" fill="#DCDDDE" />
<path d="M17.7335 18.5716C17.6236 18.5717 17.5147 18.5501 17.4131 18.5081C17.3115 18.466 17.2192 18.4043 17.1416 18.3265L1.67293 2.85783C1.51593 2.70083 1.42773 2.4879 1.42773 2.26587C1.42773 2.04384 1.51593 1.83091 1.67293 1.67391C1.82993 1.51691 2.04286 1.42871 2.26489 1.42871C2.48692 1.42871 2.69986 1.51691 2.85685 1.67391L18.3255 17.1426C18.4426 17.2596 18.5223 17.4088 18.5547 17.5712C18.587 17.7336 18.5704 17.9019 18.507 18.0549C18.4437 18.2078 18.3363 18.3386 18.1987 18.4305C18.061 18.5225 17.8991 18.5716 17.7335 18.5716Z" fill="#DCDDDE" />
</symbol><symbol viewBox="0 0 18 18" fill="none" id="email_sprite">
<g clip-path="url(#email_sprite_clip0_700_1705)">
<path d="M15.1875 2.69995H2.8125C1.26164 2.69995 0 3.96159 0 5.51245V13.6335C0 15.1844 1.26164 16.446 2.8125 16.446H7.875C8.26337 16.446 8.57812 16.1313 8.57812 15.7429C8.57812 15.3546 8.26337 15.0398 7.875 15.0398H2.8125C2.03714 15.0398 1.40625 14.4089 1.40625 13.6335V5.71062L7.51479 9.509C7.97292 9.79382 8.48639 9.93623 9 9.93623C9.51361 9.93623 10.0271 9.79382 10.4852 9.509L16.5938 5.71062V8.18433C16.5938 8.57269 16.9085 8.88745 17.2969 8.88745C17.6852 8.88745 18 8.57269 18 8.18433V5.51245C18 3.96159 16.7384 2.69995 15.1875 2.69995ZM9.74254 8.31479C9.28455 8.59961 8.71545 8.59961 8.25746 8.31479L1.95735 4.3972C2.19452 4.21497 2.49101 4.1062 2.8125 4.1062H15.1875C15.509 4.1062 15.8056 4.21497 16.0426 4.3972L9.74254 8.31479ZM14.3996 10.4891L10.5393 14.3408C10.4573 14.4226 10.3968 14.5234 10.3631 14.6343L9.52254 17.4019C9.44797 17.6473 9.51292 17.9137 9.692 18.0973C9.82617 18.2348 10.0084 18.3093 10.1953 18.3093C10.2579 18.3093 10.321 18.3009 10.383 18.2838L13.2209 17.4977C13.3378 17.4653 13.4442 17.4034 13.5299 17.3177L17.3822 13.4727C18.2046 12.6503 18.2046 11.3121 17.3822 10.4897C16.5597 9.66721 15.2216 9.66721 14.3996 10.4891ZM12.6674 16.1918L11.2396 16.5874L11.6575 15.2117L14.2622 12.6128L15.2567 13.6073L12.6674 16.1918ZM16.3883 12.4779L16.2521 12.6139L15.2577 11.6195L15.3934 11.4839C15.6675 11.2098 16.1136 11.2098 16.3878 11.4839C16.662 11.7582 16.662 12.2042 16.3883 12.4779Z" fill="black" />
</g>
<defs>

</defs>
</symbol><clipPath id="email_sprite_clip0_700_1705">
<rect width="18" height="18" fill="white" />
</clipPath><symbol viewBox="0 0 25 28" fill="currentColor" id="panorama_sprite">
<path d="M23.1697 12.2654L23.1722 12.2669C23.4737 12.441 23.7247 12.6928 23.8995 12.9972C24.0744 13.3016 24.1667 13.6475 24.1667 14C24.1667 14.3525 24.0744 14.6984 23.8995 15.0028C23.7247 15.3072 23.4737 15.559 23.1722 15.7331L23.1697 15.7346L3.54931 27.2247L3.54913 27.2248C2.24962 27.9865 0.5 27.1024 0.5 25.4901V2.50991C0.5 0.897633 2.24962 0.0134733 3.54913 0.775203L3.54931 0.775305L23.1697 12.2654Z" stroke="white" />
</symbol><symbol viewBox="0 0 18 18" fill="none" id="phone_sprite">
<g clip-path="url(#phone_sprite_clip0_700_1701)">
<path d="M16.2271 12.9701C15.2996 12.0758 14.5226 11.5596 13.7817 11.3455C12.7609 11.0504 11.8152 11.3188 10.9714 12.1429C10.9701 12.1442 10.9689 12.1454 10.9676 12.1467L10.0689 13.0386C9.51071 12.7251 8.42565 12.035 7.23889 10.8482L7.15148 10.7608C5.97251 9.58184 5.27809 8.49068 4.96214 7.93024L5.85331 7.03233C5.85461 7.03104 5.85578 7.02974 5.85707 7.02857C6.68118 6.18462 6.94953 5.23911 6.65447 4.21824C6.44033 3.47739 5.92413 2.70036 5.02985 1.77288C4.57305 1.29935 3.95944 1.02542 3.30186 1.00169C2.64428 0.978081 2.01264 1.20687 1.52277 1.64655L1.5037 1.66367C1.49488 1.67159 1.48632 1.67976 1.47789 1.68819C0.503069 2.66301 -0.00794791 4.02771 9.34599e-05 5.63482C0.0137119 8.36474 1.51408 11.4867 4.01365 13.9863C4.01573 13.9885 4.01793 13.9906 4.02001 13.9927C4.48978 14.4618 5.02323 14.9261 5.60571 15.3727C5.89676 15.5958 6.31349 15.5408 6.5367 15.2497C6.75991 14.9587 6.70479 14.5418 6.41374 14.3187C5.87471 13.9054 5.38315 13.4776 4.95268 13.0472C4.95073 13.0451 4.94853 13.043 4.94658 13.0411C2.69253 10.7844 1.34002 8.0139 1.32809 5.62807C1.32199 4.39048 1.69423 3.35742 2.40499 2.6394L2.41004 2.63474C2.89279 2.20154 3.62351 2.22787 4.0737 2.69479C5.793 4.47777 5.66849 5.31939 4.90884 6.0985L3.67786 7.33868C3.48487 7.53323 3.43104 7.82635 3.54258 8.07668C3.57384 8.14684 4.32973 9.8175 6.21258 11.7002L6.3 11.7875C8.18246 13.6701 9.85312 14.426 9.92329 14.4574C10.1736 14.5688 10.4667 14.5151 10.6613 14.322L11.9012 13.0913C12.6803 12.3315 13.5221 12.2068 15.3052 13.9261C15.7721 14.3763 15.7984 15.1072 15.3652 15.5898L15.3606 15.595C14.6484 16.2999 13.6263 16.6719 12.4021 16.6719C12.392 16.6719 12.3819 16.6719 12.3719 16.6717C11.3933 16.6669 10.2601 16.3987 9.09503 15.8961C8.7582 15.7507 8.36754 15.9061 8.22228 16.2428C8.07701 16.5797 8.23226 16.9703 8.56896 17.1156C9.91577 17.6965 11.193 17.994 12.3651 17.9999C12.3776 18 12.39 18 12.4025 18C13.9934 18 15.3445 17.4894 16.3118 16.5221C16.3202 16.5136 16.3284 16.5051 16.3363 16.4961L16.3535 16.4771C16.7931 15.9873 17.022 15.3556 16.9983 14.6981C16.9745 14.0405 16.7006 13.4268 16.2271 12.9701Z" fill="black" />
</g>
<defs>

</defs>
</symbol><clipPath id="phone_sprite_clip0_700_1701">
<rect width="18" height="18" fill="white" />
</clipPath><symbol viewBox="0 0 22 22" fill="none" id="play_sprite">
<path d="M18.3513 10.1L18.355 10.1022C18.5101 10.1918 18.6399 10.3217 18.7305 10.4794C18.8211 10.6371 18.869 10.8167 18.869 11C18.869 11.1833 18.8211 11.3629 18.7305 11.5206C18.6399 11.6783 18.5101 11.8082 18.355 11.8978L18.3513 11.9L4.33669 20.1072L4.33643 20.1074C3.64699 20.5115 2.75 20.0289 2.75 19.2072V2.79279C2.75 1.97114 3.64699 1.48852 4.33643 1.89264L4.33669 1.89279L18.3513 10.1Z" stroke="white" stroke-width="1.5" />
</symbol><symbol viewBox="0 0 18 18" fill="none" id="user_sprite">
<path d="M9 9C9.77876 9 10.54 8.76907 11.1876 8.33641C11.8351 7.90376 12.3398 7.2888 12.6378 6.56932C12.9358 5.84983 13.0138 5.05813 12.8618 4.29433C12.7099 3.53053 12.3349 2.82894 11.7842 2.27827C11.2336 1.7276 10.532 1.35259 9.76817 1.20066C9.00437 1.04873 8.21267 1.12671 7.49318 1.42473C6.7737 1.72275 6.15875 2.22743 5.72609 2.87494C5.29343 3.52246 5.0625 4.28374 5.0625 5.0625C5.06369 6.10643 5.47892 7.10725 6.21708 7.84542C6.95525 8.58359 7.95608 8.99881 9 9ZM9 2.25C9.55626 2.25 10.1 2.41495 10.5625 2.72399C11.0251 3.03303 11.3855 3.47229 11.5984 3.9862C11.8113 4.50012 11.867 5.06562 11.7585 5.61119C11.6499 6.15676 11.3821 6.6579 10.9887 7.05124C10.5954 7.44457 10.0943 7.71244 9.54869 7.82096C9.00312 7.92948 8.43762 7.87378 7.9237 7.66091C7.40979 7.44804 6.97053 7.08756 6.66149 6.62504C6.35245 6.16253 6.1875 5.61876 6.1875 5.0625C6.18839 4.31685 6.485 3.602 7.01225 3.07475C7.5395 2.5475 8.25435 2.25089 9 2.25Z" fill="white" />
<path d="M15.9865 14.6981C15.5029 13.2292 14.5658 11.9516 13.3102 11.049C12.0545 10.1464 10.5449 9.66533 8.99854 9.67495C7.45216 9.66533 5.94258 10.1464 4.68692 11.049C3.43126 11.9516 2.49423 13.2292 2.0106 14.6981C1.9297 14.9446 1.90908 15.2069 1.95048 15.463C1.99188 15.7192 2.09409 15.9617 2.24854 16.1701C2.40658 16.3878 2.61375 16.5651 2.85323 16.6875C3.0927 16.81 3.35769 16.8742 3.62666 16.8749H14.3704C14.6394 16.8742 14.9044 16.81 15.1439 16.6875C15.3833 16.5651 15.5905 16.3878 15.7485 16.1701C15.903 15.9617 16.0052 15.7192 16.0466 15.463C16.088 15.2069 16.0674 14.9446 15.9865 14.6981ZM14.839 15.5092C14.7854 15.5834 14.715 15.6439 14.6335 15.6857C14.5521 15.7276 14.462 15.7496 14.3704 15.7499H3.62666C3.53512 15.7496 3.44496 15.7276 3.36353 15.6857C3.28211 15.6439 3.21172 15.5834 3.1581 15.5092C3.10875 15.4441 3.07586 15.3681 3.06224 15.2876C3.04863 15.2071 3.05469 15.1245 3.07992 15.0468C3.49841 13.8089 4.29453 12.7334 5.35623 11.9715C6.41794 11.2097 7.6918 10.8 8.99854 10.8C10.3053 10.8 11.5791 11.2097 12.6408 11.9715C13.7026 12.7334 14.4987 13.8089 14.9172 15.0468C14.9424 15.1245 14.9485 15.2071 14.9348 15.2876C14.9212 15.3681 14.8883 15.4441 14.839 15.5092Z" fill="white" />
</symbol><symbol viewBox="0 0 24 24" fill="none" id="wa_sprite">
<path d="M12.0117 2C6.50572 2 2.02348 6.47837 2.02148 11.9844C2.02048 13.7444 2.48147 15.4626 3.35547 16.9766L2 22L7.23242 20.7637C8.69142 21.5597 10.3339 21.9775 12.0059 21.9785H12.0098C17.5148 21.9785 21.995 17.4991 21.998 11.9941C22 9.32514 20.9622 6.81573 19.0762 4.92773C17.1902 3.04073 14.6837 2.001 12.0117 2ZM12.0098 4C14.1458 4.001 16.1531 4.8338 17.6621 6.3418C19.1711 7.8518 20 9.85819 19.998 11.9922C19.996 16.3962 16.4138 19.9785 12.0078 19.9785C10.6748 19.9775 9.35441 19.6428 8.19141 19.0078L7.51758 18.6406L6.77344 18.8164L4.80469 19.2812L5.28516 17.4961L5.50195 16.6953L5.08789 15.9766C4.38989 14.7686 4.02048 13.3874 4.02148 11.9844C4.02348 7.58238 7.60677 4 12.0098 4ZM8.47656 7.375C8.30956 7.375 8.03955 7.4375 7.81055 7.6875C7.58155 7.9365 6.93555 8.53958 6.93555 9.76758C6.93555 10.9956 7.83008 12.1826 7.95508 12.3496C8.07908 12.5156 9.68175 15.1152 12.2188 16.1152C14.3267 16.9462 14.7549 16.7822 15.2129 16.7402C15.6709 16.6992 16.6904 16.1377 16.8984 15.5547C17.1064 14.9717 17.1069 14.4702 17.0449 14.3672C16.9829 14.2632 16.8164 14.2012 16.5664 14.0762C16.3174 13.9512 15.0903 13.3486 14.8613 13.2656C14.6323 13.1826 14.4648 13.1406 14.2988 13.3906C14.1328 13.6406 13.6558 14.2012 13.5098 14.3672C13.3638 14.5342 13.2188 14.5566 12.9688 14.4316C12.7188 14.3056 11.9149 14.0414 10.9609 13.1914C10.2189 12.5304 9.71827 11.7148 9.57227 11.4648C9.42727 11.2158 9.55859 11.0791 9.68359 10.9551C9.79559 10.8431 9.93164 10.6636 10.0566 10.5176C10.1806 10.3716 10.2236 10.2676 10.3066 10.1016C10.3896 9.93556 10.3472 9.78906 10.2852 9.66406C10.2232 9.53906 9.73763 8.3065 9.51562 7.8125C9.32863 7.3975 9.13112 7.38786 8.95312 7.38086C8.80813 7.37486 8.64256 7.375 8.47656 7.375Z" fill="white" />
</symbol></defs></svg>