<svg width="156" height="180" viewBox="0 0 156 180" fill="none" xmlns="http://www.w3.org/2000/svg">
<path d="M29.8763 52.2141C30.2524 52.262 30.6311 52.286 31.0103 52.2861C33.4623 52.2198 35.8071 51.2669 37.6103 49.6041C38.9734 48.4307 40.0738 46.9832 40.8399 45.356C41.6059 43.7287 42.0204 41.9583 42.0563 40.1601C42.0563 35.0001 38.9963 29.2761 32.1383 28.2501H31.9523C31.3044 28.1565 30.6509 28.1063 29.9963 28.1001C24.7223 28.1001 18.7043 32.3001 17.9423 40.1001C17.4323 45.2361 21.3683 51.0621 29.8763 52.2141ZM32.2043 50.4141C32.3363 50.2701 32.4623 50.1201 32.5883 49.9761L34.2983 49.7181C33.6341 50.035 32.9295 50.2591 32.2043 50.3841V50.4141ZM36.4463 48.2781C36.1915 48.502 35.9252 48.7123 35.6483 48.9081L33.1823 49.2801C33.6679 48.6916 34.1206 48.0767 34.5383 47.4381L37.7063 46.9641C37.321 47.4249 36.8997 47.8542 36.4463 48.2481V48.2781ZM38.9603 34.9521L36.6383 35.3061C36.4816 34.7788 36.2973 34.2601 36.0863 33.7521L37.9763 33.4701C38.3479 33.9231 38.6773 34.4091 38.9603 34.9221V34.9521ZM39.8123 37.0701L37.1003 37.4781C37.0303 36.9429 36.9301 36.412 36.8003 35.8881L39.2423 35.5161C39.4714 36.0086 39.662 36.5181 39.8123 37.0401V37.0701ZM40.1963 39.2001L37.1963 39.6561V39.3381C37.1963 38.8941 37.1963 38.4561 37.1543 38.0241L39.9503 37.6041C40.0707 38.1295 40.1529 38.6629 40.1963 39.2001ZM40.2383 40.1421C40.2344 40.5799 40.2003 41.017 40.1363 41.4501L36.8843 41.9421C37.0043 41.3901 37.0885 40.8309 37.1363 40.2681L40.2443 39.8001C40.2503 39.9321 40.2563 40.0461 40.2563 40.1601L40.2383 40.1421ZM36.7283 42.5421L40.0283 42.0441C39.9129 42.6276 39.7462 43.1998 39.5303 43.7541L36.1643 44.2641C36.3925 43.7186 36.5868 43.1595 36.7463 42.5901L36.7283 42.5421ZM35.8883 44.9421L39.2663 44.4321C38.9737 45.0625 38.6242 45.665 38.2223 46.2321L34.9463 46.7301C35.2975 46.1576 35.618 45.5668 35.9063 44.9601L35.8883 44.9421ZM35.8163 33.1341C35.5825 32.6228 35.3222 32.1242 35.0363 31.6401L35.8703 31.5141C36.473 31.907 37.0251 32.3725 37.5143 32.9001L35.8163 33.1341ZM19.7303 40.2501C20.2223 35.2341 23.9963 29.9001 29.9963 29.9001C30.5257 29.9017 31.0546 29.9337 31.5803 29.9961L31.6523 30.0801L31.7183 30.1521C28.873 30.2006 26.1504 31.3188 24.0923 33.2841C24.0491 33.3257 24.0194 33.3793 24.007 33.438C23.9946 33.4966 24 33.5577 24.0226 33.6132C24.0452 33.6687 24.0839 33.7162 24.1338 33.7495C24.1836 33.7828 24.2423 33.8005 24.3023 33.8001C24.3801 33.7982 24.4547 33.7684 24.5123 33.7161C26.5966 31.7521 29.3713 30.6892 32.2343 30.7581C37.5803 36.7101 35.4683 45.5301 29.6903 50.3661C24.2663 49.4841 19.1963 45.8001 19.7303 40.2501V40.2501Z" fill="#101010"/>
<path d="M47.0086 60.6201C40.2706 54.0441 30.5986 54.1341 29.9986 54.1401C29.4406 54.1401 8.85461 54.6021 6.80861 77.2821C6.79247 77.4533 6.8264 77.6256 6.90628 77.7779C6.98617 77.9302 7.10857 78.056 7.25861 78.1401C7.60661 78.3441 16.0246 83.0541 29.9746 83.8401C30.7006 83.8821 31.4326 83.9001 32.1646 83.9001C36.8856 83.8884 41.5674 83.0434 45.9946 81.4041C48.3796 80.5636 50.662 79.4566 52.7986 78.1041C52.9203 78.0218 53.0201 77.911 53.0891 77.7813C53.1581 77.6516 53.1943 77.507 53.1946 77.3601C53.2186 70.2801 51.1306 64.6461 47.0086 60.6201V60.6201ZM51.4126 76.8681C50.9326 77.1621 50.0086 77.6841 48.7426 78.2901L46.5046 78.6321C46.4746 78.0801 46.4386 77.5401 46.3846 77.0121L51.3946 76.2561C51.4006 76.4601 51.4126 76.6581 51.4126 76.8681V76.8681ZM49.3366 66.9921L43.9786 67.8021C43.7446 67.2741 43.4986 66.7641 43.2406 66.2781L48.5386 65.4741C48.8266 65.9661 49.0966 66.4701 49.3366 66.9921V66.9921ZM50.1886 69.1041L44.8246 69.9141C44.6386 69.3861 44.4406 68.8701 44.2246 68.3721L49.6246 67.5561C49.7986 68.0601 50.0086 68.6001 50.1886 69.1041ZM50.3686 69.7041C50.5246 70.2141 50.6626 70.7361 50.7826 71.2761L45.4846 72.0741C45.3406 71.5401 45.1906 71.0181 45.0226 70.5081L50.3686 69.7041ZM50.9026 71.8641C51.0106 72.3861 51.1006 72.9141 51.1726 73.4601L45.9766 74.2401C45.8746 73.7061 45.7666 73.1721 45.6406 72.6561L50.9026 71.8641ZM51.3706 75.6681L46.3126 76.4001C46.2526 75.8541 46.1746 75.3201 46.0906 74.7981L51.2386 74.0181C51.2986 74.5641 51.3466 75.1041 51.3706 75.6501V75.6681ZM42.9346 65.7141C42.6466 65.1981 42.3346 64.6941 42.0346 64.2141L47.1406 63.4461C47.5201 63.9193 47.8746 64.4119 48.2026 64.9221L42.9346 65.7141ZM41.6686 63.6621C41.3206 63.1521 40.9606 62.6601 40.5946 62.1921L45.2866 61.4841L45.7606 61.9221C46.0846 62.2401 46.3606 62.5701 46.6846 62.9061L41.6686 63.6621ZM40.1566 61.6521C39.7306 61.1421 39.2986 60.6621 38.8666 60.2121L42.8386 59.6121C43.4841 60.0253 44.1033 60.4781 44.6926 60.9681L40.1566 61.6521ZM38.3566 59.6841C37.8406 59.1721 37.3306 58.7041 36.8266 58.2801L39.4846 57.8781C40.3634 58.2367 41.2174 58.6537 42.0406 59.1261L38.3566 59.6841ZM36.2086 57.7641C35.5666 57.2481 34.9486 56.7981 34.3666 56.4081H34.4386C35.7672 56.6562 37.075 57.0052 38.3506 57.4521L36.2086 57.7641ZM30.0466 82.0401C18.4366 81.3921 10.6426 77.8401 8.63261 76.8441C10.7566 57.0081 27.8326 56.0001 29.8366 55.9401C31.2586 56.5401 42.7606 61.7061 44.5306 76.6341C44.6566 77.7201 44.7286 78.8301 44.7466 79.9281C40.0296 81.5775 35.0371 82.2948 30.0466 82.0401V82.0401Z" fill="#101010"/>
<path d="M14.7974 69.0621C14.7622 69.0439 14.7235 69.033 14.6839 69.0301C14.6443 69.0272 14.6045 69.0323 14.567 69.0452C14.5294 69.0581 14.4948 69.0785 14.4653 69.1051C14.4359 69.1318 14.4121 69.1641 14.3954 69.2001C13.8521 70.203 13.3771 71.2414 12.9734 72.3081C12.9591 72.3447 12.9522 72.3838 12.9532 72.4231C12.9542 72.4624 12.9631 72.5011 12.9793 72.5369C12.9956 72.5727 13.0188 72.6049 13.0477 72.6316C13.0765 72.6582 13.1105 72.6788 13.1474 72.6921C13.1832 72.6979 13.2197 72.6979 13.2554 72.6921C13.3162 72.6918 13.3755 72.6733 13.4257 72.6391C13.4759 72.6049 13.5148 72.5565 13.5374 72.5001C13.9308 71.4708 14.3918 70.4686 14.9174 69.5001C14.9425 69.4647 14.9594 69.4241 14.9669 69.3813C14.9744 69.3386 14.9724 69.2947 14.9609 69.2528C14.9494 69.2109 14.9288 69.1721 14.9006 69.1391C14.8723 69.1062 14.8371 69.0799 14.7974 69.0621V69.0621Z" fill="#101010"/>
<path d="M27.5256 59.4201C27.2796 59.4201 21.4956 60.0201 16.7256 65.7081C16.7002 65.7382 16.6811 65.773 16.6694 65.8106C16.6578 65.8482 16.6538 65.8878 16.6577 65.927C16.6616 65.9661 16.6734 66.0041 16.6922 66.0387C16.7111 66.0732 16.7367 66.1036 16.7676 66.1281C16.8203 66.1753 16.8888 66.201 16.9596 66.2001C17.0032 66.2001 17.0463 66.1905 17.0858 66.1718C17.1252 66.1531 17.16 66.1259 17.1876 66.0921C19.794 62.8582 23.4996 60.6967 27.5976 60.0201C27.6371 60.0163 27.6754 60.0048 27.7104 59.9861C27.7454 59.9675 27.7763 59.9421 27.8014 59.9114C27.8265 59.8807 27.8453 59.8453 27.8567 59.8074C27.868 59.7694 27.8717 59.7295 27.8676 59.6901C27.8648 59.6491 27.8535 59.6092 27.8343 59.5729C27.8152 59.5366 27.7887 59.5047 27.7564 59.4793C27.7242 59.4538 27.687 59.4354 27.6473 59.4252C27.6075 59.415 27.5661 59.4133 27.5256 59.4201Z" fill="#101010"/>
<path d="M23.541 34.586C23.4768 34.5398 23.3972 34.5202 23.3189 34.5314C23.2406 34.5426 23.1697 34.5837 23.121 34.646C22.618 35.332 22.214 36.0854 21.921 36.884C21.8964 36.9596 21.9028 37.0419 21.9388 37.1127C21.9748 37.1836 22.0374 37.2373 22.113 37.262H22.203C22.2671 37.2624 22.3297 37.2422 22.3816 37.2044C22.4334 37.1666 22.4717 37.1132 22.491 37.052C22.7657 36.3206 23.1392 35.6302 23.601 35C23.6469 34.9368 23.6663 34.8581 23.655 34.7808C23.6438 34.7035 23.6029 34.6336 23.541 34.586V34.586Z" fill="#101010"/>
<path d="M23.0556 40.3101C23.1312 40.3103 23.2041 40.282 23.2597 40.2309C23.3153 40.1797 23.3496 40.1094 23.3556 40.0341C23.7816 33.6021 29.8656 32.4681 30.1236 32.4261C30.2032 32.4126 30.2741 32.368 30.3208 32.3022C30.3675 32.2363 30.3861 32.1546 30.3726 32.0751C30.3591 31.9955 30.3145 31.9246 30.2487 31.8779C30.1828 31.8312 30.1012 31.8126 30.0216 31.8261C29.9976 31.8441 23.2356 33.0861 22.7976 39.9921C22.7923 40.0679 22.816 40.1429 22.8639 40.2019C22.9118 40.261 22.9803 40.2996 23.0556 40.3101Z" fill="#101010"/>
<path d="M53.8763 117.214C54.2524 117.262 54.6311 117.286 55.0103 117.286C57.4623 117.22 59.8071 116.267 61.6103 114.604C62.9734 113.431 64.0738 111.983 64.8399 110.356C65.6059 108.729 66.0204 106.958 66.0563 105.16C66.0563 100 62.9963 94.2761 56.1383 93.2501H55.9523C55.3044 93.1565 54.6509 93.1063 53.9963 93.1001C48.7223 93.1001 42.7043 97.3001 41.9423 105.1C41.4323 110.236 45.3683 116.062 53.8763 117.214ZM56.2043 115.414C56.3363 115.27 56.4623 115.12 56.5883 114.976L58.2983 114.718C57.6341 115.035 56.9295 115.259 56.2043 115.384V115.414ZM60.4463 113.278C60.1915 113.502 59.9252 113.712 59.6483 113.908L57.1823 114.28C57.6679 113.692 58.1206 113.077 58.5383 112.438L61.7063 111.964C61.321 112.425 60.8997 112.854 60.4463 113.248V113.278ZM62.9603 99.9521L60.6383 100.306C60.4816 99.7788 60.2973 99.2601 60.0863 98.7521L61.9763 98.4701C62.3479 98.9231 62.6773 99.4091 62.9603 99.9221V99.9521ZM63.8123 102.07L61.1003 102.478C61.0303 101.943 60.9301 101.412 60.8003 100.888L63.2423 100.516C63.4714 101.009 63.662 101.518 63.8123 102.04V102.07ZM64.1963 104.2L61.1963 104.656V104.338C61.1963 103.894 61.1963 103.456 61.1543 103.024L63.9503 102.604C64.0707 103.129 64.1529 103.663 64.1963 104.2ZM64.2383 105.142C64.2344 105.58 64.2003 106.017 64.1363 106.45L60.8843 106.942C61.0043 106.39 61.0885 105.831 61.1363 105.268L64.2443 104.8C64.2503 104.932 64.2563 105.046 64.2563 105.16L64.2383 105.142ZM60.7283 107.542L64.0283 107.044C63.9129 107.628 63.7462 108.2 63.5303 108.754L60.1643 109.264C60.3925 108.719 60.5868 108.16 60.7463 107.59L60.7283 107.542ZM59.8883 109.942L63.2663 109.432C62.9737 110.063 62.6242 110.665 62.2223 111.232L58.9463 111.73C59.2975 111.158 59.618 110.567 59.9063 109.96L59.8883 109.942ZM59.8163 98.1341C59.5825 97.6228 59.3222 97.1242 59.0363 96.6401L59.8703 96.5141C60.473 96.907 61.0251 97.3725 61.5143 97.9001L59.8163 98.1341ZM43.7303 105.25C44.2223 100.234 47.9963 94.9001 53.9963 94.9001C54.5257 94.9017 55.0546 94.9337 55.5803 94.9961L55.6523 95.0801L55.7183 95.1521C52.873 95.2006 50.1504 96.3188 48.0923 98.2841C48.0491 98.3257 48.0194 98.3793 48.007 98.438C47.9946 98.4966 48 98.5577 48.0226 98.6132C48.0452 98.6687 48.0839 98.7162 48.1338 98.7495C48.1836 98.7828 48.2423 98.8005 48.3023 98.8001C48.3801 98.7982 48.4547 98.7684 48.5123 98.7161C50.5966 96.7521 53.3713 95.6892 56.2343 95.7581C61.5803 101.71 59.4683 110.53 53.6903 115.366C48.2663 114.484 43.1963 110.8 43.7303 105.25V105.25Z" fill="#101010"/>
<path d="M71.0086 125.62C64.2706 119.044 54.5986 119.134 53.9986 119.14C53.4406 119.14 32.8546 119.602 30.8086 142.282C30.7925 142.453 30.8264 142.626 30.9063 142.778C30.9862 142.93 31.1086 143.056 31.2586 143.14C31.6066 143.344 40.0246 148.054 53.9746 148.84C54.7006 148.882 55.4326 148.9 56.1646 148.9C60.8856 148.888 65.5674 148.043 69.9946 146.404C72.3796 145.564 74.662 144.457 76.7986 143.104C76.9203 143.022 77.0201 142.911 77.0891 142.781C77.1581 142.652 77.1943 142.507 77.1946 142.36C77.2186 135.28 75.1306 129.646 71.0086 125.62V125.62ZM75.4126 141.868C74.9326 142.162 74.0086 142.684 72.7426 143.29L70.5046 143.632C70.4746 143.08 70.4386 142.54 70.3846 142.012L75.3946 141.256C75.4006 141.46 75.4126 141.658 75.4126 141.868V141.868ZM73.3366 131.992L67.9786 132.802C67.7446 132.274 67.4986 131.764 67.2406 131.278L72.5386 130.474C72.8266 130.966 73.0966 131.47 73.3366 131.992V131.992ZM74.1886 134.104L68.8246 134.914C68.6386 134.386 68.4406 133.87 68.2246 133.372L73.6246 132.556C73.7986 133.06 74.0086 133.6 74.1886 134.104ZM74.3686 134.704C74.5246 135.214 74.6626 135.736 74.7826 136.276L69.4846 137.074C69.3406 136.54 69.1906 136.018 69.0226 135.508L74.3686 134.704ZM74.9026 136.864C75.0106 137.386 75.1006 137.914 75.1726 138.46L69.9766 139.24C69.8746 138.706 69.7666 138.172 69.6406 137.656L74.9026 136.864ZM75.3706 140.668L70.3126 141.4C70.2526 140.854 70.1746 140.32 70.0906 139.798L75.2386 139.018C75.2986 139.564 75.3466 140.104 75.3706 140.65V140.668ZM66.9346 130.714C66.6466 130.198 66.3346 129.694 66.0346 129.214L71.1406 128.446C71.5201 128.919 71.8746 129.412 72.2026 129.922L66.9346 130.714ZM65.6686 128.662C65.3206 128.152 64.9606 127.66 64.5946 127.192L69.2866 126.484L69.7606 126.922C70.0846 127.24 70.3606 127.57 70.6846 127.906L65.6686 128.662ZM64.1566 126.652C63.7306 126.142 63.2986 125.662 62.8666 125.212L66.8386 124.612C67.4841 125.025 68.1033 125.478 68.6926 125.968L64.1566 126.652ZM62.3566 124.684C61.8406 124.172 61.3306 123.704 60.8266 123.28L63.4846 122.878C64.3634 123.237 65.2174 123.654 66.0406 124.126L62.3566 124.684ZM60.2086 122.764C59.5666 122.248 58.9486 121.798 58.3666 121.408H58.4386C59.7672 121.656 61.075 122.005 62.3506 122.452L60.2086 122.764ZM54.0466 147.04C42.4366 146.392 34.6426 142.84 32.6326 141.844C34.7566 122.008 51.8326 121 53.8366 120.94C55.2586 121.54 66.7606 126.706 68.5306 141.634C68.6566 142.72 68.7286 143.83 68.7466 144.928C64.0296 146.577 59.0371 147.295 54.0466 147.04V147.04Z" fill="#101010"/>
<path d="M38.7974 134.062C38.7622 134.044 38.7235 134.033 38.6839 134.03C38.6443 134.027 38.6045 134.032 38.567 134.045C38.5294 134.058 38.4948 134.079 38.4653 134.105C38.4359 134.132 38.4121 134.164 38.3954 134.2C37.8521 135.203 37.3771 136.241 36.9734 137.308C36.9591 137.345 36.9522 137.384 36.9532 137.423C36.9542 137.462 36.9631 137.501 36.9793 137.537C36.9956 137.573 37.0188 137.605 37.0477 137.632C37.0765 137.658 37.1105 137.679 37.1474 137.692C37.1832 137.698 37.2197 137.698 37.2554 137.692C37.3162 137.692 37.3755 137.673 37.4257 137.639C37.4759 137.605 37.5148 137.557 37.5374 137.5C37.9308 136.471 38.3918 135.469 38.9174 134.5C38.9425 134.465 38.9594 134.424 38.9669 134.381C38.9744 134.339 38.9724 134.295 38.9609 134.253C38.9494 134.211 38.9288 134.172 38.9006 134.139C38.8723 134.106 38.8371 134.08 38.7974 134.062V134.062Z" fill="#101010"/>
<path d="M51.5256 124.42C51.2796 124.42 45.4956 125.02 40.7256 130.708C40.7002 130.738 40.6811 130.773 40.6694 130.811C40.6578 130.848 40.6538 130.888 40.6577 130.927C40.6616 130.966 40.6734 131.004 40.6922 131.039C40.7111 131.073 40.7367 131.104 40.7676 131.128C40.8203 131.175 40.8888 131.201 40.9596 131.2C41.0032 131.2 41.0463 131.19 41.0858 131.172C41.1252 131.153 41.16 131.126 41.1876 131.092C43.794 127.858 47.4996 125.697 51.5976 125.02C51.6371 125.016 51.6754 125.005 51.7104 124.986C51.7454 124.967 51.7763 124.942 51.8014 124.911C51.8265 124.881 51.8453 124.845 51.8567 124.807C51.868 124.769 51.8717 124.73 51.8676 124.69C51.8648 124.649 51.8535 124.609 51.8343 124.573C51.8152 124.537 51.7887 124.505 51.7564 124.479C51.7242 124.454 51.687 124.435 51.6473 124.425C51.6075 124.415 51.5661 124.413 51.5256 124.42Z" fill="#101010"/>
<path d="M47.541 99.586C47.4768 99.5398 47.3972 99.5202 47.3189 99.5314C47.2406 99.5426 47.1697 99.5837 47.121 99.646C46.618 100.332 46.214 101.085 45.921 101.884C45.8964 101.96 45.9028 102.042 45.9388 102.113C45.9748 102.184 46.0374 102.237 46.113 102.262H46.203C46.2671 102.262 46.3297 102.242 46.3816 102.204C46.4334 102.167 46.4717 102.113 46.491 102.052C46.7657 101.321 47.1392 100.63 47.601 100C47.6469 99.9368 47.6663 99.8581 47.655 99.7808C47.6438 99.7035 47.6029 99.6336 47.541 99.586V99.586Z" fill="#101010"/>
<path d="M47.0556 105.31C47.1312 105.31 47.2041 105.282 47.2597 105.231C47.3153 105.18 47.3496 105.109 47.3556 105.034C47.7816 98.6021 53.8656 97.4681 54.1236 97.4261C54.2032 97.4126 54.2741 97.368 54.3208 97.3022C54.3675 97.2363 54.3861 97.1546 54.3726 97.0751C54.3591 96.9955 54.3145 96.9246 54.2487 96.8779C54.1828 96.8312 54.1012 96.8126 54.0216 96.8261C53.9976 96.8441 47.2356 98.0861 46.7976 104.992C46.7923 105.068 46.816 105.143 46.8639 105.202C46.9118 105.261 46.9803 105.3 47.0556 105.31Z" fill="#101010"/>
<path d="M103.876 117.214C104.252 117.262 104.631 117.286 105.01 117.286C107.462 117.22 109.807 116.267 111.61 114.604C112.973 113.431 114.074 111.983 114.84 110.356C115.606 108.729 116.02 106.958 116.056 105.16C116.056 100 112.996 94.2761 106.138 93.2501H105.952C105.304 93.1565 104.651 93.1063 103.996 93.1001C98.7223 93.1001 92.7043 97.3001 91.9423 105.1C91.4323 110.236 95.3683 116.062 103.876 117.214ZM106.204 115.414C106.336 115.27 106.462 115.12 106.588 114.976L108.298 114.718C107.634 115.035 106.93 115.259 106.204 115.384V115.414ZM110.446 113.278C110.192 113.502 109.925 113.712 109.648 113.908L107.182 114.28C107.668 113.692 108.121 113.077 108.538 112.438L111.706 111.964C111.321 112.425 110.9 112.854 110.446 113.248V113.278ZM112.96 99.9521L110.638 100.306C110.482 99.7788 110.297 99.2601 110.086 98.7521L111.976 98.4701C112.348 98.9231 112.677 99.4091 112.96 99.9221V99.9521ZM113.812 102.07L111.1 102.478C111.03 101.943 110.93 101.412 110.8 100.888L113.242 100.516C113.471 101.009 113.662 101.518 113.812 102.04V102.07ZM114.196 104.2L111.196 104.656V104.338C111.196 103.894 111.196 103.456 111.154 103.024L113.95 102.604C114.071 103.129 114.153 103.663 114.196 104.2ZM114.238 105.142C114.234 105.58 114.2 106.017 114.136 106.45L110.884 106.942C111.004 106.39 111.088 105.831 111.136 105.268L114.244 104.8C114.25 104.932 114.256 105.046 114.256 105.16L114.238 105.142ZM110.728 107.542L114.028 107.044C113.913 107.628 113.746 108.2 113.53 108.754L110.164 109.264C110.392 108.719 110.587 108.16 110.746 107.59L110.728 107.542ZM109.888 109.942L113.266 109.432C112.974 110.063 112.624 110.665 112.222 111.232L108.946 111.73C109.298 111.158 109.618 110.567 109.906 109.96L109.888 109.942ZM109.816 98.1341C109.583 97.6228 109.322 97.1242 109.036 96.6401L109.87 96.5141C110.473 96.907 111.025 97.3725 111.514 97.9001L109.816 98.1341ZM93.7303 105.25C94.2223 100.234 97.9963 94.9001 103.996 94.9001C104.526 94.9017 105.055 94.9337 105.58 94.9961L105.652 95.0801L105.718 95.1521C102.873 95.2006 100.15 96.3188 98.0923 98.2841C98.0491 98.3257 98.0194 98.3793 98.007 98.438C97.9946 98.4966 98 98.5577 98.0226 98.6132C98.0452 98.6687 98.0839 98.7162 98.1338 98.7495C98.1836 98.7828 98.2423 98.8005 98.3023 98.8001C98.3801 98.7982 98.4547 98.7684 98.5123 98.7161C100.597 96.7521 103.371 95.6892 106.234 95.7581C111.58 101.71 109.468 110.53 103.69 115.366C98.2663 114.484 93.1963 110.8 93.7303 105.25V105.25Z" fill="#101010"/>
<path d="M121.009 125.62C114.271 119.044 104.599 119.134 103.999 119.14C103.441 119.14 82.8546 119.602 80.8086 142.282C80.7925 142.453 80.8264 142.626 80.9063 142.778C80.9862 142.93 81.1086 143.056 81.2586 143.14C81.6066 143.344 90.0246 148.054 103.975 148.84C104.701 148.882 105.433 148.9 106.165 148.9C110.886 148.888 115.567 148.043 119.995 146.404C122.38 145.564 124.662 144.457 126.799 143.104C126.92 143.022 127.02 142.911 127.089 142.781C127.158 142.652 127.194 142.507 127.195 142.36C127.219 135.28 125.131 129.646 121.009 125.62V125.62ZM125.413 141.868C124.933 142.162 124.009 142.684 122.743 143.29L120.505 143.632C120.475 143.08 120.439 142.54 120.385 142.012L125.395 141.256C125.401 141.46 125.413 141.658 125.413 141.868V141.868ZM123.337 131.992L117.979 132.802C117.745 132.274 117.499 131.764 117.241 131.278L122.539 130.474C122.827 130.966 123.097 131.47 123.337 131.992V131.992ZM124.189 134.104L118.825 134.914C118.639 134.386 118.441 133.87 118.225 133.372L123.625 132.556C123.799 133.06 124.009 133.6 124.189 134.104ZM124.369 134.704C124.525 135.214 124.663 135.736 124.783 136.276L119.485 137.074C119.341 136.54 119.191 136.018 119.023 135.508L124.369 134.704ZM124.903 136.864C125.011 137.386 125.101 137.914 125.173 138.46L119.977 139.24C119.875 138.706 119.767 138.172 119.641 137.656L124.903 136.864ZM125.371 140.668L120.313 141.4C120.253 140.854 120.175 140.32 120.091 139.798L125.239 139.018C125.299 139.564 125.347 140.104 125.371 140.65V140.668ZM116.935 130.714C116.647 130.198 116.335 129.694 116.035 129.214L121.141 128.446C121.52 128.919 121.875 129.412 122.203 129.922L116.935 130.714ZM115.669 128.662C115.321 128.152 114.961 127.66 114.595 127.192L119.287 126.484L119.761 126.922C120.085 127.24 120.361 127.57 120.685 127.906L115.669 128.662ZM114.157 126.652C113.731 126.142 113.299 125.662 112.867 125.212L116.839 124.612C117.484 125.025 118.103 125.478 118.693 125.968L114.157 126.652ZM112.357 124.684C111.841 124.172 111.331 123.704 110.827 123.28L113.485 122.878C114.363 123.237 115.217 123.654 116.041 124.126L112.357 124.684ZM110.209 122.764C109.567 122.248 108.949 121.798 108.367 121.408H108.439C109.767 121.656 111.075 122.005 112.351 122.452L110.209 122.764ZM104.047 147.04C92.4366 146.392 84.6426 142.84 82.6326 141.844C84.7566 122.008 101.833 121 103.837 120.94C105.259 121.54 116.761 126.706 118.531 141.634C118.657 142.72 118.729 143.83 118.747 144.928C114.03 146.577 109.037 147.295 104.047 147.04V147.04Z" fill="#101010"/>
<path d="M88.7974 134.062C88.7622 134.044 88.7235 134.033 88.6839 134.03C88.6443 134.027 88.6045 134.032 88.567 134.045C88.5294 134.058 88.4948 134.079 88.4653 134.105C88.4359 134.132 88.4121 134.164 88.3954 134.2C87.8521 135.203 87.3771 136.241 86.9734 137.308C86.9591 137.345 86.9522 137.384 86.9532 137.423C86.9542 137.462 86.9631 137.501 86.9793 137.537C86.9956 137.573 87.0188 137.605 87.0477 137.632C87.0765 137.658 87.1105 137.679 87.1474 137.692C87.1832 137.698 87.2197 137.698 87.2554 137.692C87.3162 137.692 87.3755 137.673 87.4257 137.639C87.4759 137.605 87.5148 137.557 87.5374 137.5C87.9308 136.471 88.3918 135.469 88.9174 134.5C88.9425 134.465 88.9594 134.424 88.9669 134.381C88.9744 134.339 88.9724 134.295 88.9609 134.253C88.9494 134.211 88.9288 134.172 88.9006 134.139C88.8723 134.106 88.8371 134.08 88.7974 134.062V134.062Z" fill="#101010"/>
<path d="M101.526 124.42C101.28 124.42 95.4956 125.02 90.7256 130.708C90.7002 130.738 90.6811 130.773 90.6694 130.811C90.6578 130.848 90.6538 130.888 90.6577 130.927C90.6616 130.966 90.6734 131.004 90.6922 131.039C90.7111 131.073 90.7367 131.104 90.7676 131.128C90.8203 131.175 90.8888 131.201 90.9596 131.2C91.0032 131.2 91.0463 131.19 91.0858 131.172C91.1252 131.153 91.16 131.126 91.1876 131.092C93.794 127.858 97.4996 125.697 101.598 125.02C101.637 125.016 101.675 125.005 101.71 124.986C101.745 124.967 101.776 124.942 101.801 124.911C101.827 124.881 101.845 124.845 101.857 124.807C101.868 124.769 101.872 124.73 101.868 124.69C101.865 124.649 101.853 124.609 101.834 124.573C101.815 124.537 101.789 124.505 101.756 124.479C101.724 124.454 101.687 124.435 101.647 124.425C101.608 124.415 101.566 124.413 101.526 124.42Z" fill="#101010"/>
<path d="M97.541 99.586C97.4768 99.5398 97.3972 99.5202 97.3189 99.5314C97.2406 99.5426 97.1697 99.5837 97.121 99.646C96.618 100.332 96.214 101.085 95.921 101.884C95.8964 101.96 95.9028 102.042 95.9388 102.113C95.9748 102.184 96.0374 102.237 96.113 102.262H96.203C96.2671 102.262 96.3297 102.242 96.3816 102.204C96.4334 102.167 96.4717 102.113 96.491 102.052C96.7657 101.321 97.1392 100.63 97.601 100C97.6469 99.9368 97.6663 99.8581 97.655 99.7808C97.6438 99.7035 97.6029 99.6336 97.541 99.586V99.586Z" fill="#101010"/>
<path d="M97.0556 105.31C97.1312 105.31 97.2041 105.282 97.2597 105.231C97.3153 105.18 97.3496 105.109 97.3556 105.034C97.7816 98.6021 103.866 97.4681 104.124 97.4261C104.203 97.4126 104.274 97.368 104.321 97.3022C104.367 97.2363 104.386 97.1546 104.373 97.0751C104.359 96.9955 104.314 96.9246 104.249 96.8779C104.183 96.8312 104.101 96.8126 104.022 96.8261C103.998 96.8441 97.2356 98.0861 96.7976 104.992C96.7923 105.068 96.816 105.143 96.8639 105.202C96.9118 105.261 96.9803 105.3 97.0556 105.31Z" fill="#101010"/>
<path d="M153.876 117.214C154.252 117.262 154.631 117.286 155.01 117.286C157.462 117.22 159.807 116.267 161.61 114.604C162.973 113.431 164.074 111.983 164.84 110.356C165.606 108.729 166.02 106.958 166.056 105.16C166.056 100 162.996 94.2761 156.138 93.2501H155.952C155.304 93.1565 154.651 93.1063 153.996 93.1001C148.722 93.1001 142.704 97.3001 141.942 105.1C141.432 110.236 145.368 116.062 153.876 117.214ZM156.204 115.414C156.336 115.27 156.462 115.12 156.588 114.976L158.298 114.718C157.634 115.035 156.93 115.259 156.204 115.384V115.414ZM160.446 113.278C160.192 113.502 159.925 113.712 159.648 113.908L157.182 114.28C157.668 113.692 158.121 113.077 158.538 112.438L161.706 111.964C161.321 112.425 160.9 112.854 160.446 113.248V113.278ZM162.96 99.9521L160.638 100.306C160.482 99.7788 160.297 99.2601 160.086 98.7521L161.976 98.4701C162.348 98.9231 162.677 99.4091 162.96 99.9221V99.9521ZM163.812 102.07L161.1 102.478C161.03 101.943 160.93 101.412 160.8 100.888L163.242 100.516C163.471 101.009 163.662 101.518 163.812 102.04V102.07ZM164.196 104.2L161.196 104.656V104.338C161.196 103.894 161.196 103.456 161.154 103.024L163.95 102.604C164.071 103.129 164.153 103.663 164.196 104.2ZM164.238 105.142C164.234 105.58 164.2 106.017 164.136 106.45L160.884 106.942C161.004 106.39 161.088 105.831 161.136 105.268L164.244 104.8C164.25 104.932 164.256 105.046 164.256 105.16L164.238 105.142ZM160.728 107.542L164.028 107.044C163.913 107.628 163.746 108.2 163.53 108.754L160.164 109.264C160.392 108.719 160.587 108.16 160.746 107.59L160.728 107.542ZM159.888 109.942L163.266 109.432C162.974 110.063 162.624 110.665 162.222 111.232L158.946 111.73C159.298 111.158 159.618 110.567 159.906 109.96L159.888 109.942ZM159.816 98.1341C159.583 97.6228 159.322 97.1242 159.036 96.6401L159.87 96.5141C160.473 96.907 161.025 97.3725 161.514 97.9001L159.816 98.1341ZM143.73 105.25C144.222 100.234 147.996 94.9001 153.996 94.9001C154.526 94.9017 155.055 94.9337 155.58 94.9961L155.652 95.0801L155.718 95.1521C152.873 95.2006 150.15 96.3188 148.092 98.2841C148.049 98.3257 148.019 98.3793 148.007 98.438C147.995 98.4966 148 98.5577 148.023 98.6132C148.045 98.6687 148.084 98.7162 148.134 98.7495C148.184 98.7828 148.242 98.8005 148.302 98.8001C148.38 98.7982 148.455 98.7684 148.512 98.7161C150.597 96.7521 153.371 95.6892 156.234 95.7581C161.58 101.71 159.468 110.53 153.69 115.366C148.266 114.484 143.196 110.8 143.73 105.25V105.25Z" fill="#101010"/>
<path d="M171.009 125.62C164.271 119.044 154.599 119.134 153.999 119.14C153.441 119.14 132.855 119.602 130.809 142.282C130.792 142.453 130.826 142.626 130.906 142.778C130.986 142.93 131.109 143.056 131.259 143.14C131.607 143.344 140.025 148.054 153.975 148.84C154.701 148.882 155.433 148.9 156.165 148.9C160.886 148.888 165.567 148.043 169.995 146.404C172.38 145.564 174.662 144.457 176.799 143.104C176.92 143.022 177.02 142.911 177.089 142.781C177.158 142.652 177.194 142.507 177.195 142.36C177.219 135.28 175.131 129.646 171.009 125.62V125.62ZM175.413 141.868C174.933 142.162 174.009 142.684 172.743 143.29L170.505 143.632C170.475 143.08 170.439 142.54 170.385 142.012L175.395 141.256C175.401 141.46 175.413 141.658 175.413 141.868V141.868ZM173.337 131.992L167.979 132.802C167.745 132.274 167.499 131.764 167.241 131.278L172.539 130.474C172.827 130.966 173.097 131.47 173.337 131.992V131.992ZM174.189 134.104L168.825 134.914C168.639 134.386 168.441 133.87 168.225 133.372L173.625 132.556C173.799 133.06 174.009 133.6 174.189 134.104ZM174.369 134.704C174.525 135.214 174.663 135.736 174.783 136.276L169.485 137.074C169.341 136.54 169.191 136.018 169.023 135.508L174.369 134.704ZM174.903 136.864C175.011 137.386 175.101 137.914 175.173 138.46L169.977 139.24C169.875 138.706 169.767 138.172 169.641 137.656L174.903 136.864ZM175.371 140.668L170.313 141.4C170.253 140.854 170.175 140.32 170.091 139.798L175.239 139.018C175.299 139.564 175.347 140.104 175.371 140.65V140.668ZM166.935 130.714C166.647 130.198 166.335 129.694 166.035 129.214L171.141 128.446C171.52 128.919 171.875 129.412 172.203 129.922L166.935 130.714ZM165.669 128.662C165.321 128.152 164.961 127.66 164.595 127.192L169.287 126.484L169.761 126.922C170.085 127.24 170.361 127.57 170.685 127.906L165.669 128.662ZM164.157 126.652C163.731 126.142 163.299 125.662 162.867 125.212L166.839 124.612C167.484 125.025 168.103 125.478 168.693 125.968L164.157 126.652ZM162.357 124.684C161.841 124.172 161.331 123.704 160.827 123.28L163.485 122.878C164.363 123.237 165.217 123.654 166.041 124.126L162.357 124.684ZM160.209 122.764C159.567 122.248 158.949 121.798 158.367 121.408H158.439C159.767 121.656 161.075 122.005 162.351 122.452L160.209 122.764ZM154.047 147.04C142.437 146.392 134.643 142.84 132.633 141.844C134.757 122.008 151.833 121 153.837 120.94C155.259 121.54 166.761 126.706 168.531 141.634C168.657 142.72 168.729 143.83 168.747 144.928C164.03 146.577 159.037 147.295 154.047 147.04V147.04Z" fill="#101010"/>
<path d="M138.797 134.062C138.762 134.044 138.724 134.033 138.684 134.03C138.644 134.027 138.605 134.032 138.567 134.045C138.529 134.058 138.495 134.079 138.465 134.105C138.436 134.132 138.412 134.164 138.395 134.2C137.852 135.203 137.377 136.241 136.973 137.308C136.959 137.345 136.952 137.384 136.953 137.423C136.954 137.462 136.963 137.501 136.979 137.537C136.996 137.573 137.019 137.605 137.048 137.632C137.077 137.658 137.11 137.679 137.147 137.692C137.183 137.698 137.22 137.698 137.255 137.692C137.316 137.692 137.375 137.673 137.426 137.639C137.476 137.605 137.515 137.557 137.537 137.5C137.931 136.471 138.392 135.469 138.917 134.5C138.943 134.465 138.959 134.424 138.967 134.381C138.974 134.339 138.972 134.295 138.961 134.253C138.949 134.211 138.929 134.172 138.901 134.139C138.872 134.106 138.837 134.08 138.797 134.062V134.062Z" fill="#101010"/>
<path d="M151.526 124.42C151.28 124.42 145.496 125.02 140.726 130.708C140.7 130.738 140.681 130.773 140.669 130.811C140.658 130.848 140.654 130.888 140.658 130.927C140.662 130.966 140.673 131.004 140.692 131.039C140.711 131.073 140.737 131.104 140.768 131.128C140.82 131.175 140.889 131.201 140.96 131.2C141.003 131.2 141.046 131.19 141.086 131.172C141.125 131.153 141.16 131.126 141.188 131.092C143.794 127.858 147.5 125.697 151.598 125.02C151.637 125.016 151.675 125.005 151.71 124.986C151.745 124.967 151.776 124.942 151.801 124.911C151.827 124.881 151.845 124.845 151.857 124.807C151.868 124.769 151.872 124.73 151.868 124.69C151.865 124.649 151.853 124.609 151.834 124.573C151.815 124.537 151.789 124.505 151.756 124.479C151.724 124.454 151.687 124.435 151.647 124.425C151.608 124.415 151.566 124.413 151.526 124.42Z" fill="#101010"/>
<path d="M147.541 99.586C147.477 99.5398 147.397 99.5202 147.319 99.5314C147.241 99.5426 147.17 99.5837 147.121 99.646C146.618 100.332 146.214 101.085 145.921 101.884C145.896 101.96 145.903 102.042 145.939 102.113C145.975 102.184 146.037 102.237 146.113 102.262H146.203C146.267 102.262 146.33 102.242 146.382 102.204C146.433 102.167 146.472 102.113 146.491 102.052C146.766 101.321 147.139 100.63 147.601 100C147.647 99.9368 147.666 99.8581 147.655 99.7808C147.644 99.7035 147.603 99.6336 147.541 99.586V99.586Z" fill="#101010"/>
<path d="M147.056 105.31C147.131 105.31 147.204 105.282 147.26 105.231C147.315 105.18 147.35 105.109 147.356 105.034C147.782 98.6021 153.866 97.4681 154.124 97.4261C154.203 97.4126 154.274 97.368 154.321 97.3022C154.367 97.2363 154.386 97.1546 154.373 97.0751C154.359 96.9955 154.314 96.9246 154.249 96.8779C154.183 96.8312 154.101 96.8126 154.022 96.8261C153.998 96.8441 147.236 98.0861 146.798 104.992C146.792 105.068 146.816 105.143 146.864 105.202C146.912 105.261 146.98 105.3 147.056 105.31Z" fill="#101010"/>
<path d="M79.8763 52.2141C80.2524 52.262 80.6311 52.286 81.0103 52.2861C83.4623 52.2198 85.8071 51.2669 87.6103 49.6041C88.9734 48.4307 90.0738 46.9832 90.8399 45.356C91.6059 43.7287 92.0204 41.9583 92.0563 40.1601C92.0563 35.0001 88.9963 29.2761 82.1383 28.2501H81.9523C81.3044 28.1565 80.6509 28.1063 79.9963 28.1001C74.7223 28.1001 68.7043 32.3001 67.9423 40.1001C67.4323 45.2361 71.3683 51.0621 79.8763 52.2141ZM82.2043 50.4141C82.3363 50.2701 82.4623 50.1201 82.5883 49.9761L84.2983 49.7181C83.6341 50.035 82.9295 50.2591 82.2043 50.3841V50.4141ZM86.4463 48.2781C86.1915 48.502 85.9252 48.7123 85.6483 48.9081L83.1823 49.2801C83.6679 48.6916 84.1206 48.0767 84.5383 47.4381L87.7063 46.9641C87.321 47.4249 86.8997 47.8542 86.4463 48.2481V48.2781ZM88.9603 34.9521L86.6383 35.3061C86.4816 34.7788 86.2973 34.2601 86.0863 33.7521L87.9763 33.4701C88.3479 33.9231 88.6773 34.4091 88.9603 34.9221V34.9521ZM89.8123 37.0701L87.1003 37.4781C87.0303 36.9429 86.9301 36.412 86.8003 35.8881L89.2423 35.5161C89.4714 36.0086 89.662 36.5181 89.8123 37.0401V37.0701ZM90.1963 39.2001L87.1963 39.6561V39.3381C87.1963 38.8941 87.1963 38.4561 87.1543 38.0241L89.9503 37.6041C90.0707 38.1295 90.1529 38.6629 90.1963 39.2001ZM90.2383 40.1421C90.2344 40.5799 90.2003 41.017 90.1363 41.4501L86.8843 41.9421C87.0043 41.3901 87.0885 40.8309 87.1363 40.2681L90.2443 39.8001C90.2503 39.9321 90.2563 40.0461 90.2563 40.1601L90.2383 40.1421ZM86.7283 42.5421L90.0283 42.0441C89.9129 42.6276 89.7462 43.1998 89.5303 43.7541L86.1643 44.2641C86.3925 43.7186 86.5868 43.1595 86.7463 42.5901L86.7283 42.5421ZM85.8883 44.9421L89.2663 44.4321C88.9737 45.0625 88.6242 45.665 88.2223 46.2321L84.9463 46.7301C85.2975 46.1576 85.618 45.5668 85.9063 44.9601L85.8883 44.9421ZM85.8163 33.1341C85.5825 32.6228 85.3222 32.1242 85.0363 31.6401L85.8703 31.5141C86.473 31.907 87.0251 32.3725 87.5143 32.9001L85.8163 33.1341ZM69.7303 40.2501C70.2223 35.2341 73.9963 29.9001 79.9963 29.9001C80.5257 29.9017 81.0546 29.9337 81.5803 29.9961L81.6523 30.0801L81.7183 30.1521C78.873 30.2006 76.1504 31.3188 74.0923 33.2841C74.0491 33.3257 74.0194 33.3793 74.007 33.438C73.9946 33.4966 74 33.5577 74.0226 33.6132C74.0452 33.6687 74.0839 33.7162 74.1338 33.7495C74.1836 33.7828 74.2423 33.8005 74.3023 33.8001C74.3801 33.7982 74.4547 33.7684 74.5123 33.7161C76.5966 31.7521 79.3713 30.6892 82.2343 30.7581C87.5803 36.7101 85.4683 45.5301 79.6903 50.3661C74.2663 49.4841 69.1963 45.8001 69.7303 40.2501V40.2501Z" fill="#101010"/>
<path d="M97.0086 60.6201C90.2706 54.0441 80.5986 54.1341 79.9986 54.1401C79.4406 54.1401 58.8546 54.6021 56.8086 77.2821C56.7925 77.4533 56.8264 77.6256 56.9063 77.7779C56.9862 77.9302 57.1086 78.056 57.2586 78.1401C57.6066 78.3441 66.0246 83.0541 79.9746 83.8401C80.7006 83.8821 81.4326 83.9001 82.1646 83.9001C86.8856 83.8884 91.5674 83.0434 95.9946 81.4041C98.3796 80.5636 100.662 79.4566 102.799 78.1041C102.92 78.0218 103.02 77.911 103.089 77.7813C103.158 77.6516 103.194 77.507 103.195 77.3601C103.219 70.2801 101.131 64.6461 97.0086 60.6201V60.6201ZM101.413 76.8681C100.933 77.1621 100.009 77.6841 98.7426 78.2901L96.5046 78.6321C96.4746 78.0801 96.4386 77.5401 96.3846 77.0121L101.395 76.2561C101.401 76.4601 101.413 76.6581 101.413 76.8681V76.8681ZM99.3366 66.9921L93.9786 67.8021C93.7446 67.2741 93.4986 66.7641 93.2406 66.2781L98.5386 65.4741C98.8266 65.9661 99.0966 66.4701 99.3366 66.9921V66.9921ZM100.189 69.1041L94.8246 69.9141C94.6386 69.3861 94.4406 68.8701 94.2246 68.3721L99.6246 67.5561C99.7986 68.0601 100.009 68.6001 100.189 69.1041ZM100.369 69.7041C100.525 70.2141 100.663 70.7361 100.783 71.2761L95.4846 72.0741C95.3406 71.5401 95.1906 71.0181 95.0226 70.5081L100.369 69.7041ZM100.903 71.8641C101.011 72.3861 101.101 72.9141 101.173 73.4601L95.9766 74.2401C95.8746 73.7061 95.7666 73.1721 95.6406 72.6561L100.903 71.8641ZM101.371 75.6681L96.3126 76.4001C96.2526 75.8541 96.1746 75.3201 96.0906 74.7981L101.239 74.0181C101.299 74.5641 101.347 75.1041 101.371 75.6501V75.6681ZM92.9346 65.7141C92.6466 65.1981 92.3346 64.6941 92.0346 64.2141L97.1406 63.4461C97.5201 63.9193 97.8746 64.4119 98.2026 64.9221L92.9346 65.7141ZM91.6686 63.6621C91.3206 63.1521 90.9606 62.6601 90.5946 62.1921L95.2866 61.4841L95.7606 61.9221C96.0846 62.2401 96.3606 62.5701 96.6846 62.9061L91.6686 63.6621ZM90.1566 61.6521C89.7306 61.1421 89.2986 60.6621 88.8666 60.2121L92.8386 59.6121C93.4841 60.0253 94.1033 60.4781 94.6926 60.9681L90.1566 61.6521ZM88.3566 59.6841C87.8406 59.1721 87.3306 58.7041 86.8266 58.2801L89.4846 57.8781C90.3634 58.2367 91.2174 58.6537 92.0406 59.1261L88.3566 59.6841ZM86.2086 57.7641C85.5666 57.2481 84.9486 56.7981 84.3666 56.4081H84.4386C85.7672 56.6562 87.075 57.0052 88.3506 57.4521L86.2086 57.7641ZM80.0466 82.0401C68.4366 81.3921 60.6426 77.8401 58.6326 76.8441C60.7566 57.0081 77.8326 56.0001 79.8366 55.9401C81.2586 56.5401 92.7606 61.7061 94.5306 76.6341C94.6566 77.7201 94.7286 78.8301 94.7466 79.9281C90.0296 81.5775 85.0371 82.2948 80.0466 82.0401V82.0401Z" fill="#101010"/>
<path d="M64.7974 69.0621C64.7622 69.0439 64.7235 69.033 64.6839 69.0301C64.6443 69.0272 64.6045 69.0323 64.567 69.0452C64.5294 69.0581 64.4948 69.0785 64.4653 69.1051C64.4359 69.1318 64.4121 69.1641 64.3954 69.2001C63.8521 70.203 63.3771 71.2414 62.9734 72.3081C62.9591 72.3447 62.9522 72.3838 62.9532 72.4231C62.9542 72.4624 62.9631 72.5011 62.9793 72.5369C62.9956 72.5727 63.0188 72.6049 63.0477 72.6316C63.0765 72.6582 63.1105 72.6788 63.1474 72.6921C63.1832 72.6979 63.2197 72.6979 63.2554 72.6921C63.3162 72.6918 63.3755 72.6733 63.4257 72.6391C63.4759 72.6049 63.5148 72.5565 63.5374 72.5001C63.9308 71.4708 64.3918 70.4686 64.9174 69.5001C64.9425 69.4647 64.9594 69.4241 64.9669 69.3813C64.9744 69.3386 64.9724 69.2947 64.9609 69.2528C64.9494 69.2109 64.9288 69.1721 64.9006 69.1391C64.8723 69.1062 64.8371 69.0799 64.7974 69.0621V69.0621Z" fill="#101010"/>
<path d="M77.5256 59.4201C77.2796 59.4201 71.4956 60.0201 66.7256 65.7081C66.7002 65.7382 66.6811 65.773 66.6694 65.8106C66.6578 65.8482 66.6538 65.8878 66.6577 65.927C66.6616 65.9661 66.6734 66.0041 66.6922 66.0387C66.7111 66.0732 66.7367 66.1036 66.7676 66.1281C66.8203 66.1753 66.8888 66.201 66.9596 66.2001C67.0032 66.2001 67.0463 66.1905 67.0858 66.1718C67.1252 66.1531 67.16 66.1259 67.1876 66.0921C69.794 62.8582 73.4996 60.6967 77.5976 60.0201C77.6371 60.0163 77.6754 60.0048 77.7104 59.9861C77.7454 59.9675 77.7763 59.9421 77.8014 59.9114C77.8265 59.8807 77.8453 59.8453 77.8567 59.8074C77.868 59.7694 77.8717 59.7295 77.8676 59.6901C77.8648 59.6491 77.8535 59.6092 77.8343 59.5729C77.8152 59.5366 77.7887 59.5047 77.7564 59.4793C77.7242 59.4538 77.687 59.4354 77.6473 59.4252C77.6075 59.415 77.5661 59.4133 77.5256 59.4201Z" fill="#101010"/>
<path d="M73.541 34.586C73.4768 34.5398 73.3972 34.5202 73.3189 34.5314C73.2406 34.5426 73.1697 34.5837 73.121 34.646C72.618 35.332 72.214 36.0854 71.921 36.884C71.8964 36.9596 71.9028 37.0419 71.9388 37.1127C71.9748 37.1836 72.0374 37.2373 72.113 37.262H72.203C72.2671 37.2624 72.3297 37.2422 72.3816 37.2044C72.4334 37.1666 72.4717 37.1132 72.491 37.052C72.7657 36.3206 73.1392 35.6302 73.601 35C73.6469 34.9368 73.6663 34.8581 73.655 34.7808C73.6438 34.7035 73.6029 34.6336 73.541 34.586V34.586Z" fill="#101010"/>
<path d="M73.0556 40.3101C73.1312 40.3103 73.2041 40.282 73.2597 40.2309C73.3153 40.1797 73.3496 40.1094 73.3556 40.0341C73.7816 33.6021 79.8656 32.4681 80.1236 32.4261C80.2032 32.4126 80.2741 32.368 80.3208 32.3022C80.3675 32.2363 80.3861 32.1546 80.3726 32.0751C80.3591 31.9955 80.3145 31.9246 80.2487 31.8779C80.1828 31.8312 80.1012 31.8126 80.0216 31.8261C79.9976 31.8441 73.2356 33.0861 72.7976 39.9921C72.7923 40.0679 72.816 40.1429 72.8639 40.2019C72.9118 40.261 72.9803 40.2996 73.0556 40.3101Z" fill="#101010"/>
<path d="M129.876 52.2141C130.252 52.262 130.631 52.286 131.01 52.2861C133.462 52.2198 135.807 51.2669 137.61 49.6041C138.973 48.4307 140.074 46.9832 140.84 45.356C141.606 43.7287 142.02 41.9583 142.056 40.1601C142.056 35.0001 138.996 29.2761 132.138 28.2501H131.952C131.304 28.1565 130.651 28.1063 129.996 28.1001C124.722 28.1001 118.704 32.3001 117.942 40.1001C117.432 45.2361 121.368 51.0621 129.876 52.2141ZM132.204 50.4141C132.336 50.2701 132.462 50.1201 132.588 49.9761L134.298 49.7181C133.634 50.035 132.93 50.2591 132.204 50.3841V50.4141ZM136.446 48.2781C136.192 48.502 135.925 48.7123 135.648 48.9081L133.182 49.2801C133.668 48.6916 134.121 48.0767 134.538 47.4381L137.706 46.9641C137.321 47.4249 136.9 47.8542 136.446 48.2481V48.2781ZM138.96 34.9521L136.638 35.3061C136.482 34.7788 136.297 34.2601 136.086 33.7521L137.976 33.4701C138.348 33.9231 138.677 34.4091 138.96 34.9221V34.9521ZM139.812 37.0701L137.1 37.4781C137.03 36.9429 136.93 36.412 136.8 35.8881L139.242 35.5161C139.471 36.0086 139.662 36.5181 139.812 37.0401V37.0701ZM140.196 39.2001L137.196 39.6561V39.3381C137.196 38.8941 137.196 38.4561 137.154 38.0241L139.95 37.6041C140.071 38.1295 140.153 38.6629 140.196 39.2001ZM140.238 40.1421C140.234 40.5799 140.2 41.017 140.136 41.4501L136.884 41.9421C137.004 41.3901 137.088 40.8309 137.136 40.2681L140.244 39.8001C140.25 39.9321 140.256 40.0461 140.256 40.1601L140.238 40.1421ZM136.728 42.5421L140.028 42.0441C139.913 42.6276 139.746 43.1998 139.53 43.7541L136.164 44.2641C136.392 43.7186 136.587 43.1595 136.746 42.5901L136.728 42.5421ZM135.888 44.9421L139.266 44.4321C138.974 45.0625 138.624 45.665 138.222 46.2321L134.946 46.7301C135.298 46.1576 135.618 45.5668 135.906 44.9601L135.888 44.9421ZM135.816 33.1341C135.583 32.6228 135.322 32.1242 135.036 31.6401L135.87 31.5141C136.473 31.907 137.025 32.3725 137.514 32.9001L135.816 33.1341ZM119.73 40.2501C120.222 35.2341 123.996 29.9001 129.996 29.9001C130.526 29.9017 131.055 29.9337 131.58 29.9961L131.652 30.0801L131.718 30.1521C128.873 30.2006 126.15 31.3188 124.092 33.2841C124.049 33.3257 124.019 33.3793 124.007 33.438C123.995 33.4966 124 33.5577 124.023 33.6132C124.045 33.6687 124.084 33.7162 124.134 33.7495C124.184 33.7828 124.242 33.8005 124.302 33.8001C124.38 33.7982 124.455 33.7684 124.512 33.7161C126.597 31.7521 129.371 30.6892 132.234 30.7581C137.58 36.7101 135.468 45.5301 129.69 50.3661C124.266 49.4841 119.196 45.8001 119.73 40.2501V40.2501Z" fill="#101010"/>
<path d="M147.009 60.6201C140.271 54.0441 130.599 54.1341 129.999 54.1401C129.441 54.1401 108.855 54.6021 106.809 77.2821C106.792 77.4533 106.826 77.6256 106.906 77.7779C106.986 77.9302 107.109 78.056 107.259 78.1401C107.607 78.3441 116.025 83.0541 129.975 83.8401C130.701 83.8821 131.433 83.9001 132.165 83.9001C136.886 83.8884 141.567 83.0434 145.995 81.4041C148.38 80.5636 150.662 79.4566 152.799 78.1041C152.92 78.0218 153.02 77.911 153.089 77.7813C153.158 77.6516 153.194 77.507 153.195 77.3601C153.219 70.2801 151.131 64.6461 147.009 60.6201V60.6201ZM151.413 76.8681C150.933 77.1621 150.009 77.6841 148.743 78.2901L146.505 78.6321C146.475 78.0801 146.439 77.5401 146.385 77.0121L151.395 76.2561C151.401 76.4601 151.413 76.6581 151.413 76.8681V76.8681ZM149.337 66.9921L143.979 67.8021C143.745 67.2741 143.499 66.7641 143.241 66.2781L148.539 65.4741C148.827 65.9661 149.097 66.4701 149.337 66.9921V66.9921ZM150.189 69.1041L144.825 69.9141C144.639 69.3861 144.441 68.8701 144.225 68.3721L149.625 67.5561C149.799 68.0601 150.009 68.6001 150.189 69.1041ZM150.369 69.7041C150.525 70.2141 150.663 70.7361 150.783 71.2761L145.485 72.0741C145.341 71.5401 145.191 71.0181 145.023 70.5081L150.369 69.7041ZM150.903 71.8641C151.011 72.3861 151.101 72.9141 151.173 73.4601L145.977 74.2401C145.875 73.7061 145.767 73.1721 145.641 72.6561L150.903 71.8641ZM151.371 75.6681L146.313 76.4001C146.253 75.8541 146.175 75.3201 146.091 74.7981L151.239 74.0181C151.299 74.5641 151.347 75.1041 151.371 75.6501V75.6681ZM142.935 65.7141C142.647 65.1981 142.335 64.6941 142.035 64.2141L147.141 63.4461C147.52 63.9193 147.875 64.4119 148.203 64.9221L142.935 65.7141ZM141.669 63.6621C141.321 63.1521 140.961 62.6601 140.595 62.1921L145.287 61.4841L145.761 61.9221C146.085 62.2401 146.361 62.5701 146.685 62.9061L141.669 63.6621ZM140.157 61.6521C139.731 61.1421 139.299 60.6621 138.867 60.2121L142.839 59.6121C143.484 60.0253 144.103 60.4781 144.693 60.9681L140.157 61.6521ZM138.357 59.6841C137.841 59.1721 137.331 58.7041 136.827 58.2801L139.485 57.8781C140.363 58.2367 141.217 58.6537 142.041 59.1261L138.357 59.6841ZM136.209 57.7641C135.567 57.2481 134.949 56.7981 134.367 56.4081H134.439C135.767 56.6562 137.075 57.0052 138.351 57.4521L136.209 57.7641ZM130.047 82.0401C118.437 81.3921 110.643 77.8401 108.633 76.8441C110.757 57.0081 127.833 56.0001 129.837 55.9401C131.259 56.5401 142.761 61.7061 144.531 76.6341C144.657 77.7201 144.729 78.8301 144.747 79.9281C140.03 81.5775 135.037 82.2948 130.047 82.0401V82.0401Z" fill="#101010"/>
<path d="M114.797 69.0621C114.762 69.0439 114.724 69.033 114.684 69.0301C114.644 69.0272 114.605 69.0323 114.567 69.0452C114.529 69.0581 114.495 69.0785 114.465 69.1051C114.436 69.1318 114.412 69.1641 114.395 69.2001C113.852 70.203 113.377 71.2414 112.973 72.3081C112.959 72.3447 112.952 72.3838 112.953 72.4231C112.954 72.4624 112.963 72.5011 112.979 72.5369C112.996 72.5727 113.019 72.6049 113.048 72.6316C113.077 72.6582 113.11 72.6788 113.147 72.6921C113.183 72.6979 113.22 72.6979 113.255 72.6921C113.316 72.6918 113.375 72.6733 113.426 72.6391C113.476 72.6049 113.515 72.5565 113.537 72.5001C113.931 71.4708 114.392 70.4686 114.917 69.5001C114.943 69.4647 114.959 69.4241 114.967 69.3813C114.974 69.3386 114.972 69.2947 114.961 69.2528C114.949 69.2109 114.929 69.1721 114.901 69.1391C114.872 69.1062 114.837 69.0799 114.797 69.0621V69.0621Z" fill="#101010"/>
<path d="M127.526 59.4201C127.28 59.4201 121.496 60.0201 116.726 65.7081C116.7 65.7382 116.681 65.773 116.669 65.8106C116.658 65.8482 116.654 65.8878 116.658 65.927C116.662 65.9661 116.673 66.0041 116.692 66.0387C116.711 66.0732 116.737 66.1036 116.768 66.1281C116.82 66.1753 116.889 66.201 116.96 66.2001C117.003 66.2001 117.046 66.1905 117.086 66.1718C117.125 66.1531 117.16 66.1259 117.188 66.0921C119.794 62.8582 123.5 60.6967 127.598 60.0201C127.637 60.0163 127.675 60.0048 127.71 59.9861C127.745 59.9675 127.776 59.9421 127.801 59.9114C127.827 59.8807 127.845 59.8453 127.857 59.8074C127.868 59.7694 127.872 59.7295 127.868 59.6901C127.865 59.6491 127.853 59.6092 127.834 59.5729C127.815 59.5366 127.789 59.5047 127.756 59.4793C127.724 59.4538 127.687 59.4354 127.647 59.4252C127.608 59.415 127.566 59.4133 127.526 59.4201Z" fill="#101010"/>
<path d="M123.541 34.586C123.477 34.5398 123.397 34.5202 123.319 34.5314C123.241 34.5426 123.17 34.5837 123.121 34.646C122.618 35.332 122.214 36.0854 121.921 36.884C121.896 36.9596 121.903 37.0419 121.939 37.1127C121.975 37.1836 122.037 37.2373 122.113 37.262H122.203C122.267 37.2624 122.33 37.2422 122.382 37.2044C122.433 37.1666 122.472 37.1132 122.491 37.052C122.766 36.3206 123.139 35.6302 123.601 35C123.647 34.9368 123.666 34.8581 123.655 34.7808C123.644 34.7035 123.603 34.6336 123.541 34.586V34.586Z" fill="#101010"/>
<path d="M123.056 40.3101C123.131 40.3103 123.204 40.282 123.26 40.2309C123.315 40.1797 123.35 40.1094 123.356 40.0341C123.782 33.6021 129.866 32.4681 130.124 32.4261C130.203 32.4126 130.274 32.368 130.321 32.3022C130.367 32.2363 130.386 32.1546 130.373 32.0751C130.359 31.9955 130.314 31.9246 130.249 31.8779C130.183 31.8312 130.101 31.8126 130.022 31.8261C129.998 31.8441 123.236 33.0861 122.798 39.9921C122.792 40.0679 122.816 40.1429 122.864 40.2019C122.912 40.261 122.98 40.2996 123.056 40.3101Z" fill="#101010"/>
</svg>
